Archivo Narrow Devanagari-Regular.ufo
<glyph name="exclam" format="1">
  <advance width="191"/>
  <unicode hex="0021"/>
  <outline>
    <contour>
      <point x="53" y="606" type="line"/>
      <point x="61" y="453"/>
      <point x="67" y="297"/>
      <point x="72" y="144" type="curve"/>
      <point x="122" y="144" type="line"/>
      <point x="129" y="309"/>
      <point x="140" y="584"/>
      <point x="143" y="606" type="curve"/>
    </contour>
    <contour>
      <point x="138" y="87" type="line"/>
      <point x="59" y="87" type="line"/>
      <point x="59" y="0" type="line"/>
      <point x="138" y="0" type="line"/>
    </contour>
  </outline>
</glyph>
<glyph name="quotedbl" format="1">
  <advance width="231"/>
  <unicode hex="0022"/>
  <outline>
    <contour>
      <point x="198" y="476" type="line"/>
      <point x="198" y="606" type="line"/>
      <point x="135" y="606" type="line"/>
      <point x="135" y="476" type="line"/>
      <point x="154" y="360" type="line"/>
      <point x="177" y="360" type="line"/>
    </contour>
    <contour>
      <point x="92" y="476" type="line"/>
      <point x="92" y="606" type="line"/>
      <point x="31" y="606" type="line"/>
      <point x="31" y="476" type="line"/>
      <point x="50" y="360" type="line"/>
      <point x="75" y="360" type="line"/>
    </contour>
  </outline>
</glyph>
<glyph name="numbersign" format="1">
  <advance width="403"/>
  <unicode hex="0023"/>
  <outline>
    <contour>
      <point x="390" y="425" type="line"/>
      <point x="338" y="425" type="line"/>
      <point x="379" y="614" type="line"/>
      <point x="315" y="614" type="line"/>
      <point x="273" y="425" type="line"/>
      <point x="190" y="425" type="line"/>
      <point x="231" y="614" type="line"/>
      <point x="168" y="614" type="line"/>
      <point x="126" y="425" type="line"/>
      <point x="43" y="425" type="line"/>
      <point x="43" y="359" type="line"/>
      <point x="112" y="359" type="line"/>
      <point x="81" y="219" type="line"/>
      <point x="9" y="219" type="line"/>
      <point x="9" y="154" type="line"/>
      <point x="66" y="154" type="line"/>
      <point x="31" y="0" type="line"/>
      <point x="95" y="0" type="line"/>
      <point x="130" y="154" type="line"/>
      <point x="213" y="154" type="line"/>
      <point x="179" y="0" type="line"/>
      <point x="243" y="0" type="line"/>
      <point x="277" y="154" type="line"/>
      <point x="354" y="154" type="line"/>
      <point x="354" y="219" type="line"/>
      <point x="291" y="219" type="line"/>
      <point x="323" y="359" type="line"/>
      <point x="390" y="359" type="line"/>
    </contour>
    <contour>
      <point x="145" y="219" type="line"/>
      <point x="176" y="359" type="line"/>
      <point x="259" y="359" type="line"/>
      <point x="228" y="219" type="line"/>
    </contour>
  </outline>
</glyph>
<glyph name="dollar" format="1">
  <advance width="403"/>
  <unicode hex="0024"/>
  <outline>
    <contour>
      <point x="221" y="639" type="line"/>
      <point x="180" y="639" type="line"/>
      <point x="180" y="545" type="line"/>
      <point x="105" y="534"/>
      <point x="63" y="486"/>
      <point x="63" y="417" type="curve" smooth="yes"/>
      <point x="63" y="332"/>
      <point x="121" y="306"/>
      <point x="180" y="286" type="curve"/>
      <point x="180" y="119" type="line"/>
      <point x="142" y="127"/>
      <point x="118" y="153"/>
      <point x="118" y="206" type="curve" smooth="yes"/>
      <point x="118" y="215" type="line"/>
      <point x="53" y="215" type="line"/>
      <point x="53" y="213"/>
      <point x="52" y="208"/>
      <point x="52" y="192" type="curve" smooth="yes"/>
      <point x="52" y="134"/>
      <point x="84" y="69"/>
      <point x="180" y="61" type="curve"/>
      <point x="180" y="-43" type="line"/>
      <point x="221" y="-43" type="line"/>
      <point x="221" y="61" type="line"/>
      <point x="296" y="67"/>
      <point x="349" y="112"/>
      <point x="349" y="201" type="curve" smooth="yes"/>
      <point x="349" y="294"/>
      <point x="282" y="320"/>
      <point x="221" y="341" type="curve"/>
      <point x="221" y="488" type="line"/>
      <point x="264" y="479"/>
      <point x="275" y="444"/>
      <point x="275" y="413" type="curve" smooth="yes"/>
      <point x="275" y="403" type="line"/>
      <point x="339" y="403" type="line"/>
      <point x="339" y="405"/>
      <point x="340" y="414"/>
      <point x="340" y="419" type="curve" smooth="yes"/>
      <point x="340" y="482"/>
      <point x="301" y="539"/>
      <point x="221" y="545" type="curve"/>
    </contour>
    <contour>
      <point x="221" y="270" type="line"/>
      <point x="255" y="254"/>
      <point x="283" y="234"/>
      <point x="283" y="192" type="curve" smooth="yes"/>
      <point x="283" y="147"/>
      <point x="256" y="122"/>
      <point x="221" y="118" type="curve"/>
    </contour>
    <contour>
      <point x="180" y="358" type="line"/>
      <point x="150" y="371"/>
      <point x="129" y="388"/>
      <point x="129" y="420" type="curve" smooth="yes"/>
      <point x="129" y="443"/>
      <point x="136" y="480"/>
      <point x="180" y="488" type="curve"/>
    </contour>
  </outline>
</glyph>
<glyph name="percent" format="1">
  <advance width="644"/>
  <unicode hex="0025"/>
  <outline>
    <contour>
      <point x="171" y="0" type="line"/>
      <point x="542" y="606" type="line"/>
      <point x="483" y="606" type="line"/>
      <point x="113" y="0" type="line"/>
    </contour>
    <contour>
      <point x="153" y="617" type="curve" smooth="yes"/>
      <point x="84" y="617"/>
      <point x="43" y="580"/>
      <point x="43" y="457" type="curve" smooth="yes"/>
      <point x="43" y="335"/>
      <point x="84" y="298"/>
      <point x="153" y="298" type="curve" smooth="yes"/>
      <point x="223" y="298"/>
      <point x="264" y="334"/>
      <point x="264" y="457" type="curve" smooth="yes"/>
      <point x="264" y="580"/>
      <point x="223" y="617"/>
    </contour>
    <contour>
      <point x="153" y="569" type="curve" smooth="yes"/>
      <point x="197" y="569"/>
      <point x="207" y="525"/>
      <point x="207" y="464" type="curve" smooth="yes"/>
      <point x="207" y="451" type="line" smooth="yes"/>
      <point x="207" y="390"/>
      <point x="197" y="346"/>
      <point x="153" y="346" type="curve" smooth="yes"/>
      <point x="107" y="346"/>
      <point x="98" y="390"/>
      <point x="98" y="451" type="curve" smooth="yes"/>
      <point x="98" y="464" type="line" smooth="yes"/>
      <point x="98" y="525"/>
      <point x="107" y="569"/>
    </contour>
    <contour>
      <point x="501" y="309" type="curve" smooth="yes"/>
      <point x="433" y="309"/>
      <point x="391" y="271"/>
      <point x="391" y="149" type="curve" smooth="yes"/>
      <point x="391" y="27"/>
      <point x="433" y="-11"/>
      <point x="501" y="-11" type="curve" smooth="yes"/>
      <point x="571" y="-11"/>
      <point x="613" y="26"/>
      <point x="613" y="149" type="curve" smooth="yes"/>
      <point x="613" y="271"/>
      <point x="571" y="309"/>
    </contour>
    <contour>
      <point x="501" y="260" type="curve" smooth="yes"/>
      <point x="546" y="260"/>
      <point x="556" y="217"/>
      <point x="556" y="156" type="curve" smooth="yes"/>
      <point x="556" y="142" type="line" smooth="yes"/>
      <point x="556" y="81"/>
      <point x="546" y="38"/>
      <point x="501" y="38" type="curve" smooth="yes"/>
      <point x="457" y="38"/>
      <point x="446" y="81"/>
      <point x="446" y="142" type="curve" smooth="yes"/>
      <point x="446" y="156" type="line" smooth="yes"/>
      <point x="446" y="217"/>
      <point x="457" y="260"/>
    </contour>
  </outline>
</glyph>
<glyph name="ampersand" format="1">
  <advance width="484"/>
  <unicode hex="0026"/>
  <outline>
    <contour>
      <point x="116" y="617"/>
      <point x="42" y="559"/>
      <point x="42" y="451" type="curve" smooth="yes"/>
      <point x="42" y="379"/>
      <point x="75" y="340"/>
      <point x="120" y="315" type="curve"/>
      <point x="120" y="311" type="line"/>
      <point x="69" y="292"/>
      <point x="31" y="243"/>
      <point x="31" y="163" type="curve" smooth="yes"/>
      <point x="31" y="55"/>
      <point x="109" y="-11"/>
      <point x="219" y="-11" type="curve" smooth="yes"/>
      <point x="345" y="-11"/>
      <point x="410" y="61"/>
      <point x="410" y="171" type="curve" smooth="yes"/>
      <point x="410" y="275" type="line"/>
      <point x="472" y="275" type="line"/>
      <point x="472" y="340" type="line"/>
      <point x="338" y="340" type="line"/>
      <point x="338" y="169" type="line" smooth="yes"/>
      <point x="338" y="94"/>
      <point x="300" y="56"/>
      <point x="225" y="56" type="curve" smooth="yes"/>
      <point x="156" y="56"/>
      <point x="109" y="88"/>
      <point x="109" y="168" type="curve" smooth="yes"/>
      <point x="109" y="254"/>
      <point x="160" y="276"/>
      <point x="214" y="276" type="curve" smooth="yes"/>
      <point x="257" y="276" type="line"/>
      <point x="257" y="340" type="line"/>
      <point x="212" y="340" type="line" smooth="yes"/>
      <point x="163" y="340"/>
      <point x="119" y="375"/>
      <point x="119" y="446" type="curve" smooth="yes"/>
      <point x="119" y="522"/>
      <point x="168" y="551"/>
      <point x="225" y="551" type="curve" smooth="yes"/>
      <point x="290" y="551"/>
      <point x="338" y="518"/>
      <point x="338" y="443" type="curve" smooth="yes"/>
      <point x="338" y="435" type="line"/>
      <point x="410" y="435" type="line"/>
      <point x="410" y="451" type="line" smooth="yes"/>
      <point x="410" y="552"/>
      <point x="334" y="617"/>
      <point x="226" y="617" type="curve" smooth="yes"/>
    </contour>
  </outline>
</glyph>
<glyph name="quotesingle" format="1">
  <advance width="129"/>
  <unicode hex="0027"/>
  <outline>
    <contour>
      <point x="91" y="476" type="line"/>
      <point x="91" y="606" type="line"/>
      <point x="30" y="606" type="line"/>
      <point x="30" y="476" type="line"/>
      <point x="49" y="360" type="line"/>
      <point x="74" y="360" type="line"/>
    </contour>
  </outline>
</glyph>
<glyph name="parenright" format="1">
  <advance width="241"/>
  <unicode hex="0029"/>
  <outline>
    <contour>
      <point x="13" y="650" type="line"/>
      <point x="80" y="542"/>
      <point x="131" y="394"/>
      <point x="131" y="256" type="curve" smooth="yes"/>
      <point x="131" y="118"/>
      <point x="80" y="-31"/>
      <point x="13" y="-139" type="curve"/>
      <point x="61" y="-139" type="line"/>
      <point x="154" y="-30"/>
      <point x="206" y="110"/>
      <point x="206" y="255" type="curve" smooth="yes"/>
      <point x="206" y="400"/>
      <point x="154" y="541"/>
      <point x="61" y="650" type="curve"/>
    </contour>
  </outline>
</glyph>
<glyph name="asterisk" format="1">
  <advance width="282"/>
  <unicode hex="002A"/>
  <outline>
    <contour>
      <point x="224" y="576" type="line"/>
      <point x="162" y="533" type="line"/>
      <point x="170" y="606" type="line"/>
      <point x="111" y="606" type="line"/>
      <point x="119" y="532" type="line"/>
      <point x="57" y="576" type="line"/>
      <point x="28" y="526" type="line"/>
      <point x="97" y="494" type="line"/>
      <point x="28" y="461" type="line"/>
      <point x="57" y="412" type="line"/>
      <point x="119" y="455" type="line"/>
      <point x="111" y="380" type="line"/>
      <point x="170" y="380" type="line"/>
      <point x="162" y="455" type="line"/>
      <point x="224" y="412" type="line"/>
      <point x="253" y="461" type="line"/>
      <point x="184" y="494" type="line"/>
      <point x="253" y="526" type="line"/>
    </contour>
  </outline>
</glyph>
<glyph name="plus" format="1">
  <advance width="423"/>
  <unicode hex="002B"/>
  <outline>
    <contour>
      <point x="383" y="261" type="line"/>
      <point x="246" y="261" type="line"/>
      <point x="246" y="452" type="line"/>
      <point x="177" y="452" type="line"/>
      <point x="177" y="261" type="line"/>
      <point x="41" y="261" type="line"/>
      <point x="41" y="191" type="line"/>
      <point x="177" y="191" type="line"/>
      <point x="177" y="0" type="line"/>
      <point x="246" y="0" type="line"/>
      <point x="246" y="191" type="line"/>
      <point x="383" y="191" type="line"/>
    </contour>
  </outline>
</glyph>
<glyph name="comma" format="1">
  <advance width="202"/>
  <unicode hex="002C"/>
  <outline>
    <contour>
      <point x="103" y="-102" type="line"/>
      <point x="140" y="7" type="line"/>
      <point x="140" y="87" type="line"/>
      <point x="62" y="87" type="line"/>
      <point x="62" y="0" type="line"/>
      <point x="93" y="0" type="line"/>
      <point x="62" y="-102" type="line"/>
    </contour>
  </outline>
</glyph>
<glyph name="hyphen" format="1">
  <advance width="241"/>
  <unicode hex="002D"/>
  <outline>
    <contour>
      <point x="8" y="197" type="line"/>
      <point x="234" y="197" type="line"/>
      <point x="234" y="279" type="line"/>
      <point x="8" y="279" type="line"/>
    </contour>
  </outline>
</glyph>
<glyph name="period" format="1">
  <advance width="202"/>
  <unicode hex="002E"/>
  <outline>
    <contour>
      <point x="62" y="0" type="line"/>
      <point x="140" y="0" type="line"/>
      <point x="140" y="87" type="line"/>
      <point x="62" y="87" type="line"/>
    </contour>
  </outline>
</glyph>
<glyph name="zero" format="1">
  <advance width="403"/>
  <unicode hex="0030"/>
  <outline>
    <contour>
      <point x="97" y="617"/>
      <point x="35" y="550"/>
      <point x="35" y="303" type="curve" smooth="yes"/>
      <point x="35" y="57"/>
      <point x="97" y="-11"/>
      <point x="202" y="-11" type="curve" smooth="yes"/>
      <point x="305" y="-11"/>
      <point x="368" y="57"/>
      <point x="368" y="303" type="curve" smooth="yes"/>
      <point x="368" y="550"/>
      <point x="305" y="617"/>
      <point x="202" y="617" type="curve" smooth="yes"/>
    </contour>
    <contour>
      <point x="274" y="552"/>
      <point x="293" y="461"/>
      <point x="293" y="334" type="curve" smooth="yes"/>
      <point x="293" y="272" type="line" smooth="yes"/>
      <point x="293" y="146"/>
      <point x="274" y="54"/>
      <point x="202" y="54" type="curve" smooth="yes"/>
      <point x="129" y="54"/>
      <point x="110" y="146"/>
      <point x="110" y="272" type="curve" smooth="yes"/>
      <point x="110" y="334" type="line" smooth="yes"/>
      <point x="110" y="461"/>
      <point x="129" y="552"/>
      <point x="202" y="552" type="curve" smooth="yes"/>
    </contour>
  </outline>
</glyph>
<glyph name="one" format="1">
  <advance width="403"/>
  <unicode hex="0031"/>
  <outline>
    <contour>
      <point x="261" y="65" type="line"/>
      <point x="261" y="606" type="line"/>
      <point x="232" y="606" type="line"/>
      <point x="176" y="573"/>
      <point x="93" y="547"/>
      <point x="43" y="542" type="curve"/>
      <point x="43" y="496" type="line"/>
      <point x="188" y="496" type="line"/>
      <point x="188" y="65" type="line"/>
      <point x="44" y="65" type="line"/>
      <point x="44" y="0" type="line"/>
      <point x="393" y="0" type="line"/>
      <point x="393" y="65" type="line"/>
    </contour>
  </outline>
</glyph>
<glyph name="two" format="1">
  <advance width="403"/>
  <unicode hex="0032"/>
  <outline>
    <contour>
      <point x="200" y="617" type="curve" smooth="yes"/>
      <point x="115" y="617"/>
      <point x="41" y="563"/>
      <point x="41" y="433" type="curve" smooth="yes"/>
      <point x="41" y="412"/>
      <point x="43" y="398"/>
      <point x="43" y="398" type="curve"/>
      <point x="109" y="398" type="line"/>
      <point x="109" y="434" type="line" smooth="yes"/>
      <point x="109" y="501"/>
      <point x="133" y="557"/>
      <point x="200" y="557" type="curve" smooth="yes"/>
      <point x="272" y="557"/>
      <point x="291" y="505"/>
      <point x="291" y="461" type="curve" smooth="yes"/>
      <point x="291" y="341"/>
      <point x="163" y="251"/>
      <point x="85" y="153" type="curve" smooth="yes"/>
      <point x="54" y="109"/>
      <point x="35" y="61"/>
      <point x="35" y="8" type="curve" smooth="yes"/>
      <point x="35" y="0" type="line"/>
      <point x="360" y="0" type="line"/>
      <point x="360" y="67" type="line"/>
      <point x="112" y="67" type="line"/>
      <point x="114" y="76"/>
      <point x="119" y="86"/>
      <point x="125" y="94" type="curve" smooth="yes"/>
      <point x="194" y="208"/>
      <point x="358" y="302"/>
      <point x="358" y="460" type="curve" smooth="yes"/>
      <point x="358" y="571"/>
      <point x="288" y="617"/>
    </contour>
  </outline>
</glyph>
<glyph name="three" format="1">
  <advance width="403"/>
  <unicode hex="0033"/>
  <outline>
    <contour>
      <point x="199" y="617" type="curve" smooth="yes"/>
      <point x="109" y="617"/>
      <point x="45" y="552"/>
      <point x="45" y="451" type="curve" smooth="yes"/>
      <point x="45" y="438" type="line"/>
      <point x="108" y="438" type="line"/>
      <point x="108" y="443" type="line" smooth="yes"/>
      <point x="108" y="524"/>
      <point x="148" y="559"/>
      <point x="200" y="559" type="curve" smooth="yes"/>
      <point x="247" y="559"/>
      <point x="292" y="528"/>
      <point x="292" y="446" type="curve" smooth="yes"/>
      <point x="292" y="372"/>
      <point x="246" y="336"/>
      <point x="195" y="336" type="curve" smooth="yes"/>
      <point x="137" y="336" type="line"/>
      <point x="137" y="280" type="line"/>
      <point x="194" y="280" type="line" smooth="yes"/>
      <point x="249" y="280"/>
      <point x="301" y="257"/>
      <point x="301" y="168" type="curve" smooth="yes"/>
      <point x="301" y="82"/>
      <point x="258" y="47"/>
      <point x="195" y="47" type="curve" smooth="yes"/>
      <point x="132" y="47"/>
      <point x="97" y="89"/>
      <point x="97" y="169" type="curve" smooth="yes"/>
      <point x="97" y="177" type="line"/>
      <point x="34" y="177" type="line"/>
      <point x="34" y="171" type="line" smooth="yes"/>
      <point x="34" y="61"/>
      <point x="93" y="-11"/>
      <point x="202" y="-11" type="curve" smooth="yes"/>
      <point x="298" y="-11"/>
      <point x="366" y="55"/>
      <point x="366" y="163" type="curve" smooth="yes"/>
      <point x="366" y="243"/>
      <point x="328" y="292"/>
      <point x="276" y="311" type="curve"/>
      <point x="276" y="315" type="line"/>
      <point x="322" y="340"/>
      <point x="355" y="379"/>
      <point x="355" y="451" type="curve" smooth="yes"/>
      <point x="355" y="559"/>
      <point x="292" y="617"/>
    </contour>
  </outline>
</glyph>
<glyph name="four" format="1">
  <advance width="403"/>
  <unicode hex="0034"/>
  <outline>
    <contour>
      <point x="179" y="617" type="line"/>
      <point x="144" y="478"/>
      <point x="84" y="330"/>
      <point x="21" y="213" type="curve"/>
      <point x="21" y="153" type="line"/>
      <point x="260" y="153" type="line"/>
      <point x="260" y="0" type="line"/>
      <point x="322" y="0" type="line"/>
      <point x="322" y="153" type="line"/>
      <point x="384" y="153" type="line"/>
      <point x="384" y="210" type="line"/>
      <point x="322" y="210" type="line"/>
      <point x="322" y="527" type="line"/>
      <point x="290" y="527" type="line"/>
      <point x="279" y="480"/>
      <point x="276" y="460"/>
      <point x="260" y="418" type="curve"/>
      <point x="260" y="210" type="line"/>
      <point x="82" y="210" type="line"/>
      <point x="115" y="260"/>
      <point x="210" y="452"/>
      <point x="242" y="617" type="curve"/>
    </contour>
  </outline>
</glyph>
<glyph name="five" format="1">
  <advance width="403"/>
  <unicode hex="0035"/>
  <outline>
    <contour>
      <point x="128" y="539" type="line"/>
      <point x="345" y="539" type="line"/>
      <point x="345" y="606" type="line"/>
      <point x="74" y="606" type="line"/>
      <point x="54" y="271" type="line"/>
      <point x="113" y="260" type="line"/>
      <point x="133" y="305"/>
      <point x="170" y="335"/>
      <point x="211" y="335" type="curve" smooth="yes"/>
      <point x="267" y="335"/>
      <point x="306" y="286"/>
      <point x="306" y="198" type="curve" smooth="yes"/>
      <point x="306" y="95"/>
      <point x="262" y="46"/>
      <point x="205" y="46" type="curve" smooth="yes"/>
      <point x="149" y="46"/>
      <point x="102" y="100"/>
      <point x="102" y="188" type="curve"/>
      <point x="37" y="188" type="line"/>
      <point x="37" y="65"/>
      <point x="104" y="-11"/>
      <point x="205" y="-11" type="curve" smooth="yes"/>
      <point x="307" y="-11"/>
      <point x="371" y="65"/>
      <point x="371" y="198" type="curve" smooth="yes"/>
      <point x="371" y="331"/>
      <point x="308" y="394"/>
      <point x="229" y="394" type="curve" smooth="yes"/>
      <point x="175" y="394"/>
      <point x="136" y="364"/>
      <point x="116" y="342" type="curve"/>
    </contour>
  </outline>
</glyph>
<glyph name="six" format="1">
  <advance width="403"/>
  <unicode hex="0036"/>
  <outline>
    <contour>
      <point x="98" y="617"/>
      <point x="35" y="538"/>
      <point x="35" y="286" type="curve" smooth="yes"/>
      <point x="35" y="61"/>
      <point x="101" y="-11"/>
      <point x="210" y="-11" type="curve" smooth="yes"/>
      <point x="301" y="-11"/>
      <point x="368" y="65"/>
      <point x="368" y="186" type="curve" smooth="yes"/>
      <point x="368" y="294"/>
      <point x="319" y="381"/>
      <point x="217" y="381" type="curve" smooth="yes"/>
      <point x="172" y="381"/>
      <point x="135" y="359"/>
      <point x="110" y="324" type="curve"/>
      <point x="110" y="464"/>
      <point x="128" y="552"/>
      <point x="202" y="552" type="curve" smooth="yes"/>
      <point x="253" y="552"/>
      <point x="278" y="504"/>
      <point x="278" y="420" type="curve"/>
      <point x="352" y="420" type="line"/>
      <point x="352" y="532"/>
      <point x="309" y="617"/>
      <point x="205" y="617" type="curve" smooth="yes"/>
    </contour>
    <contour>
      <point x="266" y="317"/>
      <point x="293" y="258"/>
      <point x="293" y="186" type="curve" smooth="yes"/>
      <point x="293" y="113"/>
      <point x="266" y="54"/>
      <point x="205" y="54" type="curve" smooth="yes"/>
      <point x="144" y="54"/>
      <point x="116" y="113"/>
      <point x="116" y="186" type="curve" smooth="yes"/>
      <point x="116" y="258"/>
      <point x="144" y="317"/>
      <point x="205" y="317" type="curve" smooth="yes"/>
    </contour>
  </outline>
</glyph>
<glyph name="seven" format="1">
  <advance width="403"/>
  <unicode hex="0037"/>
  <outline>
    <contour>
      <point x="372" y="606" type="line"/>
      <point x="32" y="606" type="line"/>
      <point x="32" y="539" type="line"/>
      <point x="288" y="539" type="line"/>
      <point x="213" y="412"/>
      <point x="110" y="213"/>
      <point x="110" y="0" type="curve"/>
      <point x="182" y="0" type="line"/>
      <point x="182" y="21"/>
      <point x="182" y="28"/>
      <point x="182" y="45" type="curve" smooth="yes"/>
      <point x="182" y="244"/>
      <point x="288" y="440"/>
      <point x="372" y="567" type="curve"/>
    </contour>
  </outline>
</glyph>
<glyph name="eight" format="1">
  <advance width="403"/>
  <unicode hex="0038"/>
  <outline>
    <contour>
      <point x="202" y="617" type="curve" smooth="yes"/>
      <point x="101" y="617"/>
      <point x="50" y="541"/>
      <point x="50" y="448" type="curve" smooth="yes"/>
      <point x="50" y="391"/>
      <point x="73" y="340"/>
      <point x="115" y="311" type="curve"/>
      <point x="60" y="284"/>
      <point x="37" y="232"/>
      <point x="37" y="166" type="curve" smooth="yes"/>
      <point x="37" y="69"/>
      <point x="85" y="-11"/>
      <point x="202" y="-11" type="curve" smooth="yes"/>
      <point x="317" y="-11"/>
      <point x="365" y="69"/>
      <point x="365" y="166" type="curve" smooth="yes"/>
      <point x="365" y="232"/>
      <point x="342" y="284"/>
      <point x="286" y="311" type="curve"/>
      <point x="330" y="340"/>
      <point x="352" y="391"/>
      <point x="352" y="448" type="curve" smooth="yes"/>
      <point x="352" y="541"/>
      <point x="301" y="617"/>
    </contour>
    <contour>
      <point x="202" y="282" type="curve" smooth="yes"/>
      <point x="267" y="282"/>
      <point x="300" y="236"/>
      <point x="300" y="165" type="curve" smooth="yes"/>
      <point x="300" y="93"/>
      <point x="267" y="47"/>
      <point x="202" y="47" type="curve" smooth="yes"/>
      <point x="135" y="47"/>
      <point x="102" y="93"/>
      <point x="102" y="165" type="curve" smooth="yes"/>
      <point x="102" y="236"/>
      <point x="135" y="282"/>
    </contour>
    <contour>
      <point x="202" y="559" type="curve" smooth="yes"/>
      <point x="255" y="559"/>
      <point x="292" y="517"/>
      <point x="292" y="449" type="curve" smooth="yes"/>
      <point x="292" y="381"/>
      <point x="255" y="338"/>
      <point x="202" y="338" type="curve" smooth="yes"/>
      <point x="148" y="338"/>
      <point x="112" y="381"/>
      <point x="112" y="449" type="curve" smooth="yes"/>
      <point x="112" y="517"/>
      <point x="148" y="559"/>
    </contour>
  </outline>
</glyph>
<glyph name="nine" format="1">
  <advance width="403"/>
  <unicode hex="0039"/>
  <outline>
    <contour>
      <point x="104" y="617"/>
      <point x="37" y="542"/>
      <point x="37" y="421" type="curve" smooth="yes"/>
      <point x="37" y="313"/>
      <point x="86" y="225"/>
      <point x="191" y="225" type="curve" smooth="yes"/>
      <point x="236" y="225"/>
      <point x="273" y="248"/>
      <point x="300" y="285" type="curve"/>
      <point x="300" y="138"/>
      <point x="280" y="47"/>
      <point x="205" y="47" type="curve" smooth="yes"/>
      <point x="147" y="47"/>
      <point x="117" y="99"/>
      <point x="117" y="187" type="curve"/>
      <point x="53" y="187" type="line"/>
      <point x="53" y="74"/>
      <point x="96" y="-11"/>
      <point x="202" y="-11" type="curve" smooth="yes"/>
      <point x="304" y="-11"/>
      <point x="365" y="68"/>
      <point x="365" y="321" type="curve" smooth="yes"/>
      <point x="365" y="545"/>
      <point x="300" y="617"/>
      <point x="194" y="617" type="curve" smooth="yes"/>
    </contour>
    <contour>
      <point x="264" y="559"/>
      <point x="294" y="496"/>
      <point x="294" y="421" type="curve" smooth="yes"/>
      <point x="294" y="346"/>
      <point x="264" y="282"/>
      <point x="198" y="282" type="curve" smooth="yes"/>
      <point x="131" y="282"/>
      <point x="102" y="346"/>
      <point x="102" y="421" type="curve" smooth="yes"/>
      <point x="102" y="496"/>
      <point x="131" y="559"/>
      <point x="198" y="559" type="curve" smooth="yes"/>
    </contour>
  </outline>
</glyph>
<glyph name="semicolon" format="1">
  <advance width="191"/>
  <unicode hex="003B"/>
  <outline>
    <contour>
      <point x="101" y="-102" type="line"/>
      <point x="138" y="7" type="line"/>
      <point x="138" y="87" type="line"/>
      <point x="60" y="87" type="line"/>
      <point x="60" y="0" type="line"/>
      <point x="91" y="0" type="line"/>
      <point x="60" y="-102" type="line"/>
    </contour>
    <contour>
      <point x="59" y="378" type="line"/>
      <point x="137" y="378" type="line"/>
      <point x="137" y="465" type="line"/>
      <point x="59" y="465" type="line"/>
    </contour>
  </outline>
</glyph>
<glyph name="less" format="1">
  <advance width="423"/>
  <unicode hex="003C"/>
  <outline>
    <contour>
      <point x="108" y="223" type="line"/>
      <point x="383" y="366" type="line"/>
      <point x="383" y="439" type="line"/>
      <point x="42" y="267" type="line"/>
      <point x="42" y="178" type="line"/>
      <point x="383" y="8" type="line"/>
      <point x="383" y="79" type="line"/>
    </contour>
  </outline>
</glyph>
<glyph name="equal" format="1">
  <advance width="423"/>
  <unicode hex="003D"/>
  <outline>
    <contour>
      <point x="41" y="284" type="line"/>
      <point x="383" y="284" type="line"/>
      <point x="383" y="352" type="line"/>
      <point x="41" y="352" type="line"/>
    </contour>
    <contour>
      <point x="41" y="97" type="line"/>
      <point x="383" y="97" type="line"/>
      <point x="383" y="164" type="line"/>
      <point x="41" y="164" type="line"/>
    </contour>
  </outline>
</glyph>
<glyph name="greater" format="1">
  <advance width="423"/>
  <unicode hex="003E"/>
  <outline>
    <contour>
      <point x="383" y="267" type="line"/>
      <point x="42" y="439" type="line"/>
      <point x="42" y="366" type="line"/>
      <point x="317" y="223" type="line"/>
      <point x="42" y="79" type="line"/>
      <point x="42" y="8" type="line"/>
      <point x="383" y="178" type="line"/>
    </contour>
  </outline>
</glyph>
<glyph name="question" format="1">
  <advance width="391"/>
  <unicode hex="003F"/>
  <outline>
    <contour>
      <point x="203" y="617" type="curve" smooth="yes"/>
      <point x="93" y="617"/>
      <point x="37" y="536"/>
      <point x="37" y="437" type="curve" smooth="yes"/>
      <point x="37" y="426"/>
      <point x="40" y="406"/>
      <point x="40" y="406" type="curve"/>
      <point x="108" y="406" type="line"/>
      <point x="108" y="406"/>
      <point x="107" y="415"/>
      <point x="107" y="430" type="curve" smooth="yes"/>
      <point x="107" y="472"/>
      <point x="116" y="557"/>
      <point x="196" y="557" type="curve" smooth="yes"/>
      <point x="272" y="557"/>
      <point x="280" y="477"/>
      <point x="280" y="450" type="curve" smooth="yes"/>
      <point x="280" y="333"/>
      <point x="168" y="330"/>
      <point x="168" y="208" type="curve" smooth="yes"/>
      <point x="168" y="155" type="line"/>
      <point x="235" y="155" type="line"/>
      <point x="235" y="194" type="line" smooth="yes"/>
      <point x="235" y="301"/>
      <point x="351" y="285"/>
      <point x="351" y="460" type="curve" smooth="yes"/>
      <point x="351" y="552"/>
      <point x="285" y="617"/>
    </contour>
    <contour>
      <point x="161" y="0" type="line"/>
      <point x="239" y="0" type="line"/>
      <point x="239" y="87" type="line"/>
      <point x="161" y="87" type="line"/>
    </contour>
  </outline>
</glyph>
<glyph name="at" format="1">
  <advance width="743"/>
  <unicode hex="0040"/>
  <outline>
    <contour>
      <point x="199" y="617"/>
      <point x="45" y="514"/>
      <point x="45" y="232" type="curve" smooth="yes"/>
      <point x="45" y="-24"/>
      <point x="162" y="-135"/>
      <point x="353" y="-135" type="curve" smooth="yes"/>
      <point x="387" y="-135"/>
      <point x="450" y="-126"/>
      <point x="483" y="-111" type="curve"/>
      <point x="483" y="-62" type="line"/>
      <point x="455" y="-78"/>
      <point x="389" y="-91"/>
      <point x="353" y="-91" type="curve" smooth="yes"/>
      <point x="175" y="-91"/>
      <point x="92" y="16"/>
      <point x="92" y="231" type="curve" smooth="yes"/>
      <point x="92" y="462"/>
      <point x="203" y="572"/>
      <point x="381" y="572" type="curve" smooth="yes"/>
      <point x="539" y="572"/>
      <point x="650" y="488"/>
      <point x="650" y="285" type="curve" smooth="yes"/>
      <point x="650" y="114"/>
      <point x="590" y="70"/>
      <point x="542" y="70" type="curve" smooth="yes"/>
      <point x="523" y="70"/>
      <point x="512" y="80"/>
      <point x="512" y="103" type="curve" smooth="yes"/>
      <point x="512" y="344" type="line" smooth="yes"/>
      <point x="512" y="418"/>
      <point x="471" y="461"/>
      <point x="390" y="461" type="curve" smooth="yes"/>
      <point x="311" y="461"/>
      <point x="255" y="423"/>
      <point x="255" y="343" type="curve" smooth="yes"/>
      <point x="255" y="336"/>
      <point x="255" y="331"/>
      <point x="255" y="325" type="curve"/>
      <point x="313" y="325" type="line"/>
      <point x="313" y="334" type="line" smooth="yes"/>
      <point x="313" y="371"/>
      <point x="329" y="408"/>
      <point x="381" y="408" type="curve" smooth="yes"/>
      <point x="440" y="408"/>
      <point x="456" y="378"/>
      <point x="456" y="334" type="curve" smooth="yes"/>
      <point x="456" y="276" type="line"/>
      <point x="333" y="276"/>
      <point x="241" y="255"/>
      <point x="241" y="137" type="curve" smooth="yes"/>
      <point x="241" y="33"/>
      <point x="310" y="19"/>
      <point x="352" y="19" type="curve" smooth="yes"/>
      <point x="392" y="19"/>
      <point x="432" y="40"/>
      <point x="455" y="74" type="curve"/>
      <point x="458" y="74" type="line"/>
      <point x="464" y="42"/>
      <point x="484" y="19"/>
      <point x="533" y="19" type="curve" smooth="yes"/>
      <point x="602" y="19"/>
      <point x="697" y="83"/>
      <point x="697" y="284" type="curve" smooth="yes"/>
      <point x="697" y="521"/>
      <point x="563" y="617"/>
      <point x="381" y="617" type="curve" smooth="yes"/>
    </contour>
    <contour>
      <point x="456" y="178" type="line"/>
      <point x="456" y="102"/>
      <point x="402" y="70"/>
      <point x="361" y="70" type="curve" smooth="yes"/>
      <point x="323" y="70"/>
      <point x="301" y="86"/>
      <point x="301" y="139" type="curve" smooth="yes"/>
      <point x="301" y="210"/>
      <point x="362" y="221"/>
      <point x="456" y="221" type="curve"/>
    </contour>
  </outline>
</glyph>
<glyph name="A" format="1">
  <advance width="473"/>
  <unicode hex="0041"/>
  <outline>
    <contour>
      <point x="424" y="9" type="move" name="ogonek"/>
    </contour>
    <contour>
      <point x="236" y="606" type="move" name="top"/>
    </contour>
    <contour>
      <point x="473" y="0" type="line"/>
      <point x="281" y="606" type="line"/>
      <point x="191" y="606" type="line"/>
      <point x="-2" y="0" type="line"/>
      <point x="67" y="0" type="line"/>
      <point x="109" y="140" type="line"/>
      <point x="355" y="140" type="line"/>
      <point x="398" y="0" type="line"/>
    </contour>
    <contour>
      <point x="234" y="554" type="line"/>
      <point x="234" y="554"/>
      <point x="242" y="508"/>
      <point x="248" y="492" type="curve" smooth="yes"/>
      <point x="336" y="202" type="line"/>
      <point x="129" y="202" type="line"/>
      <point x="218" y="492" type="line" smooth="yes"/>
      <point x="223" y="508"/>
      <point x="231" y="554"/>
      <point x="231" y="554" type="curve"/>
    </contour>
  </outline>
</glyph>
<glyph name="B" format="1">
  <advance width="473"/>
  <unicode hex="0042"/>
  <outline>
    <contour>
      <point x="58" y="606" type="line"/>
      <point x="58" y="0" type="line"/>
      <point x="279" y="0" type="line" smooth="yes"/>
      <point x="371" y="0"/>
      <point x="448" y="58"/>
      <point x="448" y="160" type="curve" smooth="yes"/>
      <point x="448" y="239"/>
      <point x="401" y="296"/>
      <point x="341" y="315" type="curve"/>
      <point x="341" y="318" type="line"/>
      <point x="393" y="337"/>
      <point x="434" y="389"/>
      <point x="434" y="459" type="curve" smooth="yes"/>
      <point x="434" y="548"/>
      <point x="367" y="606"/>
      <point x="279" y="606" type="curve" smooth="yes"/>
    </contour>
    <contour>
      <point x="126" y="279" type="line"/>
      <point x="266" y="279" type="line" smooth="yes"/>
      <point x="332" y="279"/>
      <point x="377" y="227"/>
      <point x="377" y="169" type="curve" smooth="yes"/>
      <point x="377" y="100"/>
      <point x="332" y="62"/>
      <point x="272" y="62" type="curve" smooth="yes"/>
      <point x="126" y="62" type="line"/>
    </contour>
    <contour>
      <point x="126" y="545" type="line"/>
      <point x="265" y="545" type="line" smooth="yes"/>
      <point x="323" y="545"/>
      <point x="362" y="512"/>
      <point x="362" y="442" type="curve" smooth="yes"/>
      <point x="362" y="389"/>
      <point x="320" y="342"/>
      <point x="259" y="342" type="curve" smooth="yes"/>
      <point x="126" y="342" type="line"/>
    </contour>
  </outline>
</glyph>
<glyph name="E" format="1">
  <advance width="484"/>
  <unicode hex="0045"/>
  <outline>
    <contour>
      <point x="242" y="0" type="move" name="bottom"/>
    </contour>
    <contour>
      <point x="435" y="9" type="move" name="ogonek"/>
    </contour>
    <contour>
      <point x="242" y="606" type="move" name="top"/>
    </contour>
    <contour>
      <point x="65" y="606" type="line"/>
      <point x="65" y="0" type="line"/>
      <point x="440" y="0" type="line"/>
      <point x="440" y="62" type="line"/>
      <point x="133" y="62" type="line"/>
      <point x="133" y="279" type="line"/>
      <point x="396" y="279" type="line"/>
      <point x="396" y="342" type="line"/>
      <point x="133" y="342" type="line"/>
      <point x="133" y="545" type="line"/>
      <point x="435" y="545" type="line"/>
      <point x="435" y="606" type="line"/>
    </contour>
  </outline>
</glyph>
<glyph name="F" format="1">
  <advance width="443"/>
  <unicode hex="0046"/>
  <outline>
    <contour>
      <point x="65" y="0" type="line"/>
      <point x="133" y="0" type="line"/>
      <point x="133" y="274" type="line"/>
      <point x="382" y="274" type="line"/>
      <point x="382" y="335" type="line"/>
      <point x="133" y="335" type="line"/>
      <point x="133" y="545" type="line"/>
      <point x="413" y="545" type="line"/>
      <point x="413" y="606" type="line"/>
      <point x="65" y="606" type="line"/>
    </contour>
  </outline>
</glyph>
<glyph name="G" format="1">
  <advance width="564"/>
  <unicode hex="0047"/>
  <outline>
    <contour>
      <point x="282" y="0" type="move" name="bottom"/>
    </contour>
    <contour>
      <point x="282" y="606" type="move" name="top"/>
    </contour>
    <contour>
      <point x="286" y="617" type="curve" smooth="yes"/>
      <point x="138" y="617"/>
      <point x="47" y="513"/>
      <point x="47" y="303" type="curve" smooth="yes"/>
      <point x="47" y="94"/>
      <point x="133" y="-11"/>
      <point x="287" y="-11" type="curve" smooth="yes"/>
      <point x="353" y="-11"/>
      <point x="405" y="11"/>
      <point x="442" y="67" type="curve"/>
      <point x="458" y="0" type="line"/>
      <point x="504" y="0" type="line"/>
      <point x="504" y="312" type="line"/>
      <point x="271" y="312" type="line"/>
      <point x="271" y="253" type="line"/>
      <point x="463" y="253" type="line"/>
      <point x="434" y="281" type="line"/>
      <point x="434" y="233" type="line" smooth="yes"/>
      <point x="434" y="111"/>
      <point x="392" y="53"/>
      <point x="281" y="53" type="curve" smooth="yes"/>
      <point x="177" y="53"/>
      <point x="119" y="126"/>
      <point x="119" y="281" type="curve" smooth="yes"/>
      <point x="119" y="325" type="line" smooth="yes"/>
      <point x="119" y="481"/>
      <point x="187" y="552"/>
      <point x="287" y="552" type="curve" smooth="yes"/>
      <point x="376" y="552"/>
      <point x="434" y="507"/>
      <point x="434" y="402" type="curve"/>
      <point x="504" y="402" type="line"/>
      <point x="504" y="548"/>
      <point x="414" y="617"/>
    </contour>
  </outline>
</glyph>
<glyph name="H" format="1">
  <advance width="523"/>
  <unicode hex="0048"/>
  <outline>
    <contour>
      <point x="459" y="606" type="line"/>
      <point x="392" y="606" type="line"/>
      <point x="392" y="342" type="line"/>
      <point x="133" y="342" type="line"/>
      <point x="133" y="606" type="line"/>
      <point x="65" y="606" type="line"/>
      <point x="65" y="0" type="line"/>
      <point x="133" y="0" type="line"/>
      <point x="133" y="279" type="line"/>
      <point x="392" y="279" type="line"/>
      <point x="392" y="0" type="line"/>
      <point x="459" y="0" type="line"/>
    </contour>
    <contour>
      <point x="262" y="303" type="move" name="center"/>
    </contour>
    <contour>
      <point x="262" y="606" type="move" name="top"/>
    </contour>
  </outline>
</glyph>
<glyph name="J" format="1">
  <advance width="350"/>
  <unicode hex="004A"/>
  <outline>
    <contour>
      <point x="175" y="606" type="move" name="top"/>
    </contour>
    <contour>
      <point x="292" y="606" type="line"/>
      <point x="224" y="606" type="line"/>
      <point x="224" y="136" type="line" smooth="yes"/>
      <point x="224" y="82"/>
      <point x="198" y="53"/>
      <point x="152" y="53" type="curve" smooth="yes"/>
      <point x="106" y="53"/>
      <point x="80" y="82"/>
      <point x="80" y="136" type="curve" smooth="yes"/>
      <point x="80" y="182" type="line"/>
      <point x="12" y="182" type="line"/>
      <point x="12" y="144" type="line" smooth="yes"/>
      <point x="12" y="43"/>
      <point x="64" y="-11"/>
      <point x="152" y="-11" type="curve" smooth="yes"/>
      <point x="240" y="-11"/>
      <point x="292" y="43"/>
      <point x="292" y="144" type="curve" smooth="yes"/>
    </contour>
  </outline>
</glyph>
<glyph name="K" format="1">
  <advance width="484"/>
  <unicode hex="004B"/>
  <outline>
    <contour>
      <point x="242" y="0" type="move" name="bottom"/>
    </contour>
    <contour>
      <point x="242" y="606" type="move" name="top"/>
    </contour>
    <contour>
      <point x="285" y="362" type="line"/>
      <point x="467" y="606" type="line"/>
      <point x="380" y="606" type="line"/>
      <point x="140" y="286" type="line"/>
      <point x="140" y="606" type="line"/>
      <point x="62" y="606" type="line"/>
      <point x="62" y="0" type="line"/>
      <point x="140" y="0" type="line"/>
      <point x="140" y="188" type="line"/>
      <point x="237" y="296" type="line"/>
      <point x="385" y="0" type="line"/>
      <point x="473" y="0" type="line"/>
    </contour>
  </outline>
</glyph>
<glyph name="L" format="1">
  <advance width="403"/>
  <unicode hex="004C"/>
  <outline>
    <contour>
      <point x="140" y="606" type="line"/>
      <point x="62" y="606" type="line"/>
      <point x="62" y="0" type="line"/>
      <point x="387" y="0" type="line"/>
      <point x="387" y="71" type="line"/>
      <point x="140" y="71" type="line"/>
    </contour>
    <contour>
      <point x="202" y="606" type="move" name="top"/>
    </contour>
    <contour>
      <point x="202" y="0" type="move" name="bottom"/>
    </contour>
  </outline>
</glyph>
<glyph name="M" format="1">
  <advance width="604"/>
  <unicode hex="004D"/>
  <outline>
    <contour>
      <point x="546" y="0" type="line"/>
      <point x="546" y="606" type="line"/>
      <point x="439" y="606" type="line"/>
      <point x="322" y="190" type="line" smooth="yes"/>
      <point x="309" y="145"/>
      <point x="302" y="53"/>
      <point x="302" y="53" type="curve" smooth="yes"/>
      <point x="299" y="53" type="line" smooth="yes"/>
      <point x="299" y="53"/>
      <point x="292" y="144"/>
      <point x="279" y="190" type="curve" smooth="yes"/>
      <point x="163" y="606" type="line"/>
      <point x="57" y="606" type="line"/>
      <point x="57" y="0" type="line"/>
      <point x="119" y="0" type="line"/>
      <point x="119" y="456" type="line" smooth="yes"/>
      <point x="119" y="472"/>
      <point x="113" y="549"/>
      <point x="113" y="549" type="curve"/>
      <point x="117" y="549" type="line"/>
      <point x="123" y="518"/>
      <point x="126" y="484"/>
      <point x="134" y="455" type="curve" smooth="yes"/>
      <point x="267" y="0" type="line"/>
      <point x="327" y="0" type="line"/>
      <point x="457" y="447" type="line" smooth="yes"/>
      <point x="467" y="481"/>
      <point x="472" y="515"/>
      <point x="480" y="549" type="curve"/>
      <point x="483" y="549" type="line"/>
      <point x="483" y="549"/>
      <point x="476" y="475"/>
      <point x="476" y="456" type="curve" smooth="yes"/>
      <point x="476" y="0" type="line"/>
    </contour>
  </outline>
</glyph>
<glyph name="N" format="1">
  <advance width="523"/>
  <unicode hex="004E"/>
  <outline>
    <contour>
      <point x="459" y="606" type="line"/>
      <point x="399" y="606" type="line"/>
      <point x="399" y="212" type="line" smooth="yes"/>
      <point x="399" y="190"/>
      <point x="401" y="124"/>
      <point x="401" y="124" type="curve"/>
      <point x="399" y="123" type="line"/>
      <point x="399" y="123"/>
      <point x="374" y="186"/>
      <point x="358" y="211" type="curve" smooth="yes"/>
      <point x="122" y="606" type="line"/>
      <point x="65" y="606" type="line"/>
      <point x="65" y="0" type="line"/>
      <point x="126" y="0" type="line"/>
      <point x="126" y="400" type="line" smooth="yes"/>
      <point x="126" y="428"/>
      <point x="122" y="490"/>
      <point x="122" y="490" type="curve"/>
      <point x="124" y="491" type="line"/>
      <point x="124" y="491"/>
      <point x="149" y="431"/>
      <point x="167" y="401" type="curve" smooth="yes"/>
      <point x="405" y="0" type="line"/>
      <point x="459" y="0" type="line"/>
    </contour>
    <contour>
      <point x="262" y="606" type="move" name="top"/>
    </contour>
    <contour>
      <point x="262" y="0" type="move" name="bottom"/>
    </contour>
  </outline>
</glyph>
<glyph name="O" format="1">
  <advance width="564"/>
  <unicode hex="004F"/>
  <outline>
    <contour>
      <point x="282" y="606" type="move" name="top"/>
    </contour>
    <contour>
      <point x="282" y="617" type="curve" smooth="yes"/>
      <point x="135" y="617"/>
      <point x="47" y="513"/>
      <point x="47" y="303" type="curve" smooth="yes"/>
      <point x="47" y="94"/>
      <point x="135" y="-11"/>
      <point x="282" y="-11" type="curve" smooth="yes"/>
      <point x="429" y="-11"/>
      <point x="517" y="94"/>
      <point x="517" y="303" type="curve" smooth="yes"/>
      <point x="517" y="513"/>
      <point x="429" y="617"/>
    </contour>
    <contour>
      <point x="282" y="552" type="curve" smooth="yes"/>
      <point x="382" y="552"/>
      <point x="446" y="481"/>
      <point x="446" y="325" type="curve" smooth="yes"/>
      <point x="446" y="281" type="line" smooth="yes"/>
      <point x="446" y="125"/>
      <point x="382" y="53"/>
      <point x="282" y="53" type="curve" smooth="yes"/>
      <point x="183" y="53"/>
      <point x="119" y="125"/>
      <point x="119" y="281" type="curve" smooth="yes"/>
      <point x="119" y="325" type="line" smooth="yes"/>
      <point x="119" y="481"/>
      <point x="183" y="552"/>
    </contour>
  </outline>
</glyph>
<glyph name="P" format="1">
  <advance width="484"/>
  <unicode hex="0050"/>
  <outline>
    <contour>
      <point x="133" y="254" type="line"/>
      <point x="281" y="254" type="line" smooth="yes"/>
      <point x="393" y="254"/>
      <point x="460" y="327"/>
      <point x="460" y="432" type="curve" smooth="yes"/>
      <point x="460" y="536"/>
      <point x="399" y="606"/>
      <point x="281" y="606" type="curve" smooth="yes"/>
      <point x="65" y="606" type="line"/>
      <point x="65" y="0" type="line"/>
      <point x="133" y="0" type="line"/>
    </contour>
    <contour>
      <point x="132" y="545" type="line"/>
      <point x="281" y="545" type="line" smooth="yes"/>
      <point x="350" y="545"/>
      <point x="388" y="501"/>
      <point x="388" y="432" type="curve" smooth="yes"/>
      <point x="388" y="363"/>
      <point x="345" y="317"/>
      <point x="281" y="317" type="curve" smooth="yes"/>
      <point x="132" y="317" type="line"/>
    </contour>
  </outline>
</glyph>
<glyph name="R" format="1">
  <advance width="523"/>
  <unicode hex="0052"/>
  <outline>
    <contour>
      <point x="262" y="0" type="move" name="bottom"/>
    </contour>
    <contour>
      <point x="262" y="606" type="move" name="top"/>
    </contour>
    <contour>
      <point x="65" y="606" type="line"/>
      <point x="65" y="0" type="line"/>
      <point x="133" y="0" type="line"/>
      <point x="133" y="272" type="line"/>
      <point x="308" y="272" type="line"/>
      <point x="424" y="0" type="line"/>
      <point x="500" y="0" type="line"/>
      <point x="376" y="283" type="line"/>
      <point x="446" y="306"/>
      <point x="486" y="364"/>
      <point x="486" y="439" type="curve" smooth="yes"/>
      <point x="486" y="539"/>
      <point x="424" y="606"/>
      <point x="306" y="606" type="curve" smooth="yes"/>
    </contour>
    <contour>
      <point x="132" y="545" type="line"/>
      <point x="305" y="545" type="line"/>
      <point x="376" y="545"/>
      <point x="416" y="505"/>
      <point x="416" y="439" type="curve" smooth="yes"/>
      <point x="416" y="377"/>
      <point x="370" y="335"/>
      <point x="306" y="335" type="curve" smooth="yes"/>
      <point x="132" y="335" type="line"/>
    </contour>
  </outline>
</glyph>
<glyph name="T" format="1">
  <advance width="443"/>
  <unicode hex="0054"/>
  <outline>
    <contour>
      <point x="424" y="606" type="line"/>
      <point x="18" y="606" type="line"/>
      <point x="18" y="545" type="line"/>
      <point x="187" y="545" type="line"/>
      <point x="187" y="0" type="line"/>
      <point x="255" y="0" type="line"/>
      <point x="255" y="545" type="line"/>
      <point x="424" y="545" type="line"/>
    </contour>
    <contour>
      <point x="222" y="303" type="move" name="center"/>
    </contour>
    <contour>
      <point x="222" y="0" type="move" name="bottom"/>
    </contour>
    <contour>
      <point x="222" y="606" type="move" name="top"/>
    </contour>
  </outline>
</glyph>
<glyph name="U" format="1">
  <advance width="523"/>
  <unicode hex="0055"/>
  <outline>
    <contour>
      <point x="471" y="9" type="move" name="ogonek"/>
    </contour>
    <contour>
      <point x="262" y="606" type="move" name="top"/>
    </contour>
    <contour>
      <point x="458" y="606" type="line"/>
      <point x="392" y="606" type="line"/>
      <point x="392" y="193" type="line" smooth="yes"/>
      <point x="392" y="102"/>
      <point x="342" y="53"/>
      <point x="262" y="53" type="curve" smooth="yes"/>
      <point x="181" y="53"/>
      <point x="132" y="102"/>
      <point x="132" y="193" type="curve" smooth="yes"/>
      <point x="132" y="606" type="line"/>
      <point x="64" y="606" type="line"/>
      <point x="64" y="199" type="line" smooth="yes"/>
      <point x="64" y="62"/>
      <point x="138" y="-11"/>
      <point x="262" y="-11" type="curve" smooth="yes"/>
      <point x="384" y="-11"/>
      <point x="458" y="62"/>
      <point x="458" y="199" type="curve" smooth="yes"/>
    </contour>
  </outline>
</glyph>
<glyph name="V" format="1">
  <advance width="484"/>
  <unicode hex="0056"/>
  <outline>
    <contour>
      <point x="290" y="0" type="line"/>
      <point x="474" y="606" type="line"/>
      <point x="409" y="606" type="line"/>
      <point x="247" y="61" type="line"/>
      <point x="243" y="61" type="line"/>
      <point x="86" y="606" type="line"/>
      <point x="9" y="606" type="line"/>
      <point x="194" y="0" type="line"/>
    </contour>
  </outline>
</glyph>
<glyph name="X" format="1">
  <advance width="484"/>
  <unicode hex="0058"/>
  <outline>
    <contour>
      <point x="459" y="606" type="line"/>
      <point x="385" y="606" type="line"/>
      <point x="239" y="378" type="line"/>
      <point x="248" y="378" type="line"/>
      <point x="104" y="606" type="line"/>
      <point x="22" y="606" type="line"/>
      <point x="204" y="314" type="line"/>
      <point x="5" y="0" type="line"/>
      <point x="78" y="0" type="line"/>
      <point x="243" y="257" type="line"/>
      <point x="236" y="257" type="line"/>
      <point x="397" y="0" type="line"/>
      <point x="479" y="0" type="line"/>
      <point x="277" y="323" type="line"/>
    </contour>
  </outline>
</glyph>
<glyph name="Y" format="1">
  <advance width="484"/>
  <unicode hex="0059"/>
  <outline>
    <contour>
      <point x="281" y="251" type="line"/>
      <point x="476" y="606" type="line"/>
      <point x="401" y="606" type="line"/>
      <point x="250" y="325" type="line"/>
      <point x="247" y="325" type="line"/>
      <point x="93" y="606" type="line"/>
      <point x="7" y="606" type="line"/>
      <point x="203" y="251" type="line"/>
      <point x="203" y="0" type="line"/>
      <point x="281" y="0" type="line"/>
    </contour>
    <contour>
      <point x="242" y="606" type="move" name="top"/>
    </contour>
  </outline>
</glyph>
<glyph name="Z" format="1">
  <advance width="443"/>
  <unicode hex="005A"/>
  <outline>
    <contour>
      <point x="417" y="606" type="line"/>
      <point x="37" y="606" type="line"/>
      <point x="37" y="545" type="line"/>
      <point x="318" y="545" type="line"/>
      <point x="19" y="31" type="line"/>
      <point x="19" y="0" type="line"/>
      <point x="423" y="0" type="line"/>
      <point x="423" y="62" type="line"/>
      <point x="116" y="62" type="line"/>
      <point x="417" y="576" type="line"/>
    </contour>
    <contour>
      <point x="222" y="606" type="move" name="top"/>
    </contour>
  </outline>
</glyph>
<glyph name="bracketleft" format="1">
  <advance width="202"/>
  <unicode hex="005B"/>
  <outline>
    <contour>
      <point x="184" y="592" type="line"/>
      <point x="184" y="650" type="line"/>
      <point x="43" y="650" type="line"/>
      <point x="43" y="-142" type="line"/>
      <point x="184" y="-142" type="line"/>
      <point x="184" y="-85" type="line"/>
      <point x="110" y="-85" type="line"/>
      <point x="110" y="592" type="line"/>
    </contour>
  </outline>
</glyph>
<glyph name="backslash" format="1">
  <advance width="202"/>
  <unicode hex="005C"/>
  <outline>
    <contour>
      <point x="202" y="-43" type="line"/>
      <point x="63" y="650" type="line"/>
      <point x="1" y="650" type="line"/>
      <point x="139" y="-43" type="line"/>
    </contour>
  </outline>
</glyph>
<glyph name="bracketright" format="1">
  <advance width="191"/>
  <unicode hex="005D"/>
  <outline>
    <contour>
      <point x="146" y="-142" type="line"/>
      <point x="146" y="650" type="line"/>
      <point x="17" y="650" type="line"/>
      <point x="17" y="600" type="line"/>
      <point x="90" y="600" type="line"/>
      <point x="90" y="-93" type="line"/>
      <point x="17" y="-93" type="line"/>
      <point x="17" y="-142" type="line"/>
    </contour>
  </outline>
</glyph>
<glyph name="asciicircum" format="1">
  <advance width="316"/>
  <unicode hex="005E"/>
  <outline>
    <contour>
      <point x="248" y="260" type="line"/>
      <point x="321" y="260" type="line"/>
      <point x="205" y="606" type="line"/>
      <point x="112" y="606" type="line"/>
      <point x="-3" y="260" type="line"/>
      <point x="70" y="260" type="line"/>
      <point x="159" y="549" type="line"/>
    </contour>
  </outline>
</glyph>
<glyph name="underscore" format="1">
  <advance width="403"/>
  <unicode hex="005F"/>
  <outline>
    <contour>
      <point x="0" y="-108" type="line"/>
      <point x="402" y="-108" type="line"/>
      <point x="402" y="-65" type="line"/>
      <point x="0" y="-65" type="line"/>
    </contour>
  </outline>
</glyph>
<glyph name="grave" format="1">
  <advance width="241"/>
  <unicode hex="0060"/>
  <outline>
    <contour>
      <point x="173" y="522" type="line"/>
      <point x="97" y="639" type="line"/>
      <point x="26" y="639" type="line"/>
      <point x="25" y="636" type="line"/>
      <point x="120" y="522" type="line"/>
    </contour>
    <contour>
      <point x="101" y="465" type="move" name="_top"/>
    </contour>
  </outline>
</glyph>
<glyph name="b" format="1">
  <advance width="391"/>
  <unicode hex="0062"/>
  <outline>
    <contour>
      <point x="117" y="422" type="line"/>
      <point x="117" y="639" type="line"/>
      <point x="54" y="639" type="line"/>
      <point x="54" y="0" type="line"/>
      <point x="99" y="0" type="line"/>
      <point x="109" y="53" type="line"/>
      <point x="113" y="53" type="line"/>
      <point x="135" y="11"/>
      <point x="171" y="-11"/>
      <point x="214" y="-11" type="curve" smooth="yes"/>
      <point x="301" y="-11"/>
      <point x="356" y="62"/>
      <point x="356" y="233" type="curve" smooth="yes"/>
      <point x="356" y="402"/>
      <point x="294" y="476"/>
      <point x="219" y="476" type="curve" smooth="yes"/>
      <point x="174" y="476"/>
      <point x="137" y="455"/>
      <point x="121" y="422" type="curve"/>
    </contour>
    <contour>
      <point x="204" y="420" type="curve" smooth="yes"/>
      <point x="260" y="420"/>
      <point x="290" y="374"/>
      <point x="290" y="249" type="curve" smooth="yes"/>
      <point x="290" y="216" type="line" smooth="yes"/>
      <point x="290" y="91"/>
      <point x="260" y="45"/>
      <point x="204" y="45" type="curve" smooth="yes"/>
      <point x="146" y="45"/>
      <point x="117" y="102"/>
      <point x="117" y="216" type="curve" smooth="yes"/>
      <point x="117" y="245" type="line" smooth="yes"/>
      <point x="117" y="362"/>
      <point x="146" y="420"/>
    </contour>
  </outline>
</glyph>
<glyph name="d" format="1">
  <advance width="403"/>
  <unicode hex="0064"/>
  <outline>
    <contour>
      <point x="202" y="232" type="move" name="center"/>
    </contour>
    <contour>
      <point x="350" y="0" type="line"/>
      <point x="350" y="639" type="line"/>
      <point x="278" y="639" type="line"/>
      <point x="278" y="421" type="line"/>
      <point x="273" y="421" type="line"/>
      <point x="257" y="455"/>
      <point x="219" y="476"/>
      <point x="174" y="476" type="curve" smooth="yes"/>
      <point x="97" y="476"/>
      <point x="35" y="402"/>
      <point x="35" y="233" type="curve" smooth="yes"/>
      <point x="35" y="63"/>
      <point x="91" y="-11"/>
      <point x="179" y="-11" type="curve" smooth="yes"/>
      <point x="222" y="-11"/>
      <point x="259" y="11"/>
      <point x="281" y="54" type="curve"/>
      <point x="286" y="54" type="line"/>
      <point x="295" y="0" type="line"/>
    </contour>
    <contour>
      <point x="278" y="216" type="line" smooth="yes"/>
      <point x="278" y="109"/>
      <point x="250" y="54"/>
      <point x="194" y="54" type="curve" smooth="yes"/>
      <point x="139" y="54"/>
      <point x="111" y="100"/>
      <point x="111" y="216" type="curve" smooth="yes"/>
      <point x="111" y="249" type="line" smooth="yes"/>
      <point x="111" y="365"/>
      <point x="139" y="411"/>
      <point x="194" y="411" type="curve" smooth="yes"/>
      <point x="250" y="411"/>
      <point x="278" y="355"/>
      <point x="278" y="246" type="curve" smooth="yes"/>
    </contour>
  </outline>
</glyph>
<glyph name="e" format="1">
  <advance width="403"/>
  <unicode hex="0065"/>
  <outline>
    <contour>
      <point x="96" y="476"/>
      <point x="40" y="400"/>
      <point x="40" y="232" type="curve" smooth="yes"/>
      <point x="40" y="59"/>
      <point x="99" y="-11"/>
      <point x="214" y="-11" type="curve" smooth="yes"/>
      <point x="303" y="-11"/>
      <point x="362" y="57"/>
      <point x="362" y="156" type="curve"/>
      <point x="300" y="156" type="line"/>
      <point x="300" y="90"/>
      <point x="265" y="48"/>
      <point x="217" y="48" type="curve" smooth="yes"/>
      <point x="143" y="48"/>
      <point x="107" y="97"/>
      <point x="106" y="212" type="curve"/>
      <point x="362" y="212" type="line"/>
      <point x="362" y="264" type="line" smooth="yes"/>
      <point x="362" y="417"/>
      <point x="313" y="476"/>
      <point x="214" y="476" type="curve" smooth="yes"/>
    </contour>
    <contour>
      <point x="269" y="417"/>
      <point x="297" y="368"/>
      <point x="297" y="274" type="curve"/>
      <point x="107" y="274" type="line"/>
      <point x="114" y="369"/>
      <point x="145" y="417"/>
      <point x="214" y="417" type="curve" smooth="yes"/>
    </contour>
    <contour>
      <point x="362" y="9" type="move" name="ogonek"/>
    </contour>
    <contour>
      <point x="202" y="0" type="move" name="bottom"/>
    </contour>
    <contour>
      <point x="202" y="465" type="move" name="top"/>
    </contour>
  </outline>
</glyph>
<glyph name="f" format="1">
  <advance width="202"/>
  <unicode hex="0066"/>
  <outline>
    <contour>
      <point x="70" y="646"/>
      <point x="49" y="592"/>
      <point x="49" y="539" type="curve" smooth="yes"/>
      <point x="49" y="465" type="line"/>
      <point x="8" y="465" type="line"/>
      <point x="8" y="400" type="line"/>
      <point x="49" y="400" type="line"/>
      <point x="49" y="0" type="line"/>
      <point x="121" y="0" type="line"/>
      <point x="121" y="400" type="line"/>
      <point x="202" y="400" type="line"/>
      <point x="202" y="465" type="line"/>
      <point x="121" y="465" type="line"/>
      <point x="121" y="543" type="line" smooth="yes"/>
      <point x="121" y="570"/>
      <point x="135" y="585"/>
      <point x="163" y="585" type="curve" smooth="yes"/>
      <point x="202" y="585" type="line"/>
      <point x="202" y="636" type="line"/>
      <point x="187" y="641"/>
      <point x="162" y="646"/>
      <point x="141" y="646" type="curve" smooth="yes"/>
    </contour>
  </outline>
</glyph>
<glyph name="h" format="1">
  <advance width="391"/>
  <unicode hex="0068"/>
  <outline>
    <contour>
      <point x="196" y="232" type="move" name="center"/>
    </contour>
    <contour>
      <point x="196" y="465" type="move" name="top"/>
    </contour>
    <contour>
      <point x="117" y="416" type="line"/>
      <point x="117" y="639" type="line"/>
      <point x="54" y="639" type="line"/>
      <point x="54" y="0" type="line"/>
      <point x="117" y="0" type="line"/>
      <point x="117" y="283" type="line" smooth="yes"/>
      <point x="117" y="371"/>
      <point x="160" y="420"/>
      <point x="207" y="420" type="curve" smooth="yes"/>
      <point x="247" y="420"/>
      <point x="275" y="405"/>
      <point x="275" y="340" type="curve" smooth="yes"/>
      <point x="275" y="0" type="line"/>
      <point x="337" y="0" type="line"/>
      <point x="337" y="338" type="line" smooth="yes"/>
      <point x="337" y="439"/>
      <point x="294" y="476"/>
      <point x="224" y="476" type="curve" smooth="yes"/>
      <point x="181" y="476"/>
      <point x="148" y="462"/>
      <point x="123" y="416" type="curve"/>
    </contour>
  </outline>
</glyph>
<glyph name="i" format="1">
  <advance width="149"/>
  <unicode hex="0069"/>
  <outline>
    <contour>
      <point x="106" y="0" type="line"/>
      <point x="106" y="465" type="line"/>
      <point x="43" y="465" type="line"/>
      <point x="43" y="0" type="line"/>
    </contour>
    <contour>
      <point x="106" y="555" type="line"/>
      <point x="106" y="639" type="line"/>
      <point x="43" y="639" type="line"/>
      <point x="43" y="555" type="line"/>
    </contour>
  </outline>
</glyph>
<glyph name="j" format="1">
  <advance width="149"/>
  <unicode hex="006A"/>
  <outline>
    <contour>
      <point x="106" y="465" type="line"/>
      <point x="43" y="465" type="line"/>
      <point x="43" y="-65" type="line" smooth="yes"/>
      <point x="43" y="-93"/>
      <point x="29" y="-108"/>
      <point x="2" y="-108" type="curve" smooth="yes"/>
      <point x="-37" y="-108" type="line"/>
      <point x="-37" y="-150" type="line"/>
      <point x="-23" y="-156"/>
      <point x="0" y="-161"/>
      <point x="19" y="-161" type="curve" smooth="yes"/>
      <point x="85" y="-161"/>
      <point x="106" y="-110"/>
      <point x="106" y="-59" type="curve" smooth="yes"/>
    </contour>
    <contour>
      <point x="43" y="555" type="line"/>
      <point x="106" y="555" type="line"/>
      <point x="106" y="639" type="line"/>
      <point x="43" y="639" type="line"/>
    </contour>
  </outline>
</glyph>
<glyph name="k" format="1">
  <advance width="350"/>
  <unicode hex="006B"/>
  <outline>
    <contour>
      <point x="175" y="0" type="move" name="bottom"/>
    </contour>
    <contour>
      <point x="273" y="465" type="line"/>
      <point x="117" y="240" type="line"/>
      <point x="117" y="639" type="line"/>
      <point x="54" y="639" type="line"/>
      <point x="54" y="0" type="line"/>
      <point x="117" y="0" type="line"/>
      <point x="117" y="162" type="line"/>
      <point x="169" y="218" type="line"/>
      <point x="279" y="0" type="line"/>
      <point x="350" y="0" type="line"/>
      <point x="207" y="273" type="line"/>
      <point x="343" y="465" type="line"/>
    </contour>
  </outline>
</glyph>
<glyph name="l" format="1">
  <advance width="161"/>
  <unicode hex="006C"/>
  <outline>
    <contour>
      <point x="80" y="0" type="move" name="bottom"/>
    </contour>
    <contour>
      <point x="80" y="465" type="move" name="top"/>
    </contour>
    <contour>
      <point x="143" y="465" type="move" name="topright"/>
    </contour>
    <contour>
      <point x="117" y="0" type="line"/>
      <point x="117" y="639" type="line"/>
      <point x="44" y="639" type="line"/>
      <point x="44" y="0" type="line"/>
    </contour>
  </outline>
</glyph>
<glyph name="m" format="1">
  <advance width="592"/>
  <unicode hex="006D"/>
  <outline>
    <contour>
      <point x="388" y="476"/>
      <point x="343" y="456"/>
      <point x="318" y="408" type="curve"/>
      <point x="301" y="456"/>
      <point x="265" y="476"/>
      <point x="219" y="476" type="curve" smooth="yes"/>
      <point x="177" y="476"/>
      <point x="140" y="461"/>
      <point x="114" y="412" type="curve"/>
      <point x="109" y="412" type="line"/>
      <point x="99" y="465" type="line"/>
      <point x="54" y="465" type="line"/>
      <point x="54" y="0" type="line"/>
      <point x="117" y="0" type="line"/>
      <point x="117" y="283" type="line" smooth="yes"/>
      <point x="117" y="371"/>
      <point x="157" y="420"/>
      <point x="202" y="420" type="curve" smooth="yes"/>
      <point x="236" y="420"/>
      <point x="264" y="405"/>
      <point x="264" y="340" type="curve" smooth="yes"/>
      <point x="264" y="0" type="line"/>
      <point x="328" y="0" type="line"/>
      <point x="328" y="281" type="line" smooth="yes"/>
      <point x="328" y="370"/>
      <point x="366" y="420"/>
      <point x="411" y="420" type="curve" smooth="yes"/>
      <point x="446" y="420"/>
      <point x="474" y="405"/>
      <point x="474" y="340" type="curve" smooth="yes"/>
      <point x="474" y="0" type="line"/>
      <point x="537" y="0" type="line"/>
      <point x="537" y="338" type="line" smooth="yes"/>
      <point x="537" y="438"/>
      <point x="494" y="476"/>
      <point x="428" y="476" type="curve" smooth="yes"/>
    </contour>
  </outline>
</glyph>
<glyph name="q" format="1">
  <advance width="403"/>
  <unicode hex="0071"/>
  <outline>
    <contour>
      <point x="278" y="41" type="line"/>
      <point x="278" y="-153" type="line"/>
      <point x="350" y="-153" type="line"/>
      <point x="350" y="465" type="line"/>
      <point x="295" y="465" type="line"/>
      <point x="286" y="411" type="line"/>
      <point x="281" y="411" type="line"/>
      <point x="259" y="453"/>
      <point x="222" y="476"/>
      <point x="179" y="476" type="curve" smooth="yes"/>
      <point x="91" y="476"/>
      <point x="35" y="402"/>
      <point x="35" y="232" type="curve" smooth="yes"/>
      <point x="35" y="63"/>
      <point x="97" y="-11"/>
      <point x="174" y="-11" type="curve" smooth="yes"/>
      <point x="219" y="-11"/>
      <point x="257" y="9"/>
      <point x="273" y="41" type="curve"/>
    </contour>
    <contour>
      <point x="278" y="216" type="line" smooth="yes"/>
      <point x="278" y="109"/>
      <point x="250" y="54"/>
      <point x="194" y="54" type="curve" smooth="yes"/>
      <point x="139" y="54"/>
      <point x="111" y="100"/>
      <point x="111" y="216" type="curve" smooth="yes"/>
      <point x="111" y="249" type="line" smooth="yes"/>
      <point x="111" y="365"/>
      <point x="139" y="411"/>
      <point x="194" y="411" type="curve" smooth="yes"/>
      <point x="250" y="411"/>
      <point x="278" y="356"/>
      <point x="278" y="249" type="curve" smooth="yes"/>
    </contour>
  </outline>
</glyph>
<glyph name="r" format="1">
  <advance width="229"/>
  <unicode hex="0072"/>
  <outline>
    <contour>
      <point x="115" y="0" type="move" name="bottom"/>
    </contour>
    <contour>
      <point x="115" y="465" type="move" name="top"/>
    </contour>
    <contour>
      <point x="192" y="476" type="curve" smooth="yes"/>
      <point x="148" y="476"/>
      <point x="124" y="440"/>
      <point x="113" y="406" type="curve"/>
      <point x="109" y="406" type="line"/>
      <point x="99" y="465" type="line"/>
      <point x="54" y="465" type="line"/>
      <point x="54" y="0" type="line"/>
      <point x="117" y="0" type="line"/>
      <point x="117" y="291" type="line" smooth="yes"/>
      <point x="117" y="373"/>
      <point x="157" y="401"/>
      <point x="203" y="401" type="curve" smooth="yes"/>
      <point x="223" y="401" type="line"/>
      <point x="223" y="469" type="line"/>
      <point x="223" y="469"/>
      <point x="208" y="476"/>
    </contour>
  </outline>
</glyph>
<glyph name="s" format="1">
  <advance width="350"/>
  <unicode hex="0073"/>
  <outline>
    <contour>
      <point x="175" y="0" type="move" name="bottom"/>
    </contour>
    <contour>
      <point x="175" y="465" type="move" name="top"/>
    </contour>
    <contour>
      <point x="180" y="476" type="curve" smooth="yes"/>
      <point x="92" y="476"/>
      <point x="41" y="424"/>
      <point x="41" y="346" type="curve" smooth="yes"/>
      <point x="41" y="182"/>
      <point x="249" y="243"/>
      <point x="249" y="121" type="curve" smooth="yes"/>
      <point x="249" y="74"/>
      <point x="217" y="46"/>
      <point x="176" y="46" type="curve" smooth="yes"/>
      <point x="131" y="46"/>
      <point x="96" y="74"/>
      <point x="97" y="135" type="curve" smooth="yes"/>
      <point x="97" y="144" type="line"/>
      <point x="30" y="144" type="line"/>
      <point x="30" y="142"/>
      <point x="29" y="137"/>
      <point x="29" y="123" type="curve" smooth="yes"/>
      <point x="29" y="59"/>
      <point x="66" y="-11"/>
      <point x="173" y="-11" type="curve" smooth="yes"/>
      <point x="254" y="-11"/>
      <point x="314" y="35"/>
      <point x="314" y="131" type="curve" smooth="yes"/>
      <point x="314" y="301"/>
      <point x="106" y="245"/>
      <point x="106" y="349" type="curve" smooth="yes"/>
      <point x="106" y="375"/>
      <point x="114" y="419"/>
      <point x="172" y="419" type="curve" smooth="yes"/>
      <point x="226" y="419"/>
      <point x="240" y="378"/>
      <point x="239" y="341" type="curve" smooth="yes"/>
      <point x="239" y="332" type="line"/>
      <point x="305" y="332" type="line"/>
      <point x="305" y="334"/>
      <point x="306" y="343"/>
      <point x="306" y="348" type="curve" smooth="yes"/>
      <point x="306" y="413"/>
      <point x="265" y="476"/>
    </contour>
  </outline>
</glyph>
<glyph name="t" format="1">
  <advance width="191"/>
  <unicode hex="0074"/>
  <outline>
    <contour>
      <point x="114" y="465" type="line"/>
      <point x="114" y="593" type="line"/>
      <point x="67" y="593" type="line"/>
      <point x="51" y="465" type="line"/>
      <point x="13" y="465" type="line"/>
      <point x="13" y="407" type="line"/>
      <point x="51" y="407" type="line"/>
      <point x="51" y="93" type="line" smooth="yes"/>
      <point x="51" y="43"/>
      <point x="69" y="-8"/>
      <point x="126" y="-8" type="curve" smooth="yes"/>
      <point x="143" y="-8"/>
      <point x="164" y="-4"/>
      <point x="175" y="5" type="curve"/>
      <point x="175" y="47" type="line"/>
      <point x="156" y="47" type="line" smooth="yes"/>
      <point x="129" y="47"/>
      <point x="114" y="62"/>
      <point x="114" y="90" type="curve" smooth="yes"/>
      <point x="114" y="407" type="line"/>
      <point x="175" y="407" type="line"/>
      <point x="175" y="465" type="line"/>
    </contour>
    <contour>
      <point x="95" y="232" type="move" name="center"/>
    </contour>
    <contour>
      <point x="110" y="0" type="move" name="bottom"/>
    </contour>
  </outline>
</glyph>
<glyph name="v" format="1">
  <advance width="350"/>
  <unicode hex="0076"/>
  <outline>
    <contour>
      <point x="211" y="0" type="line"/>
      <point x="340" y="465" type="line"/>
      <point x="277" y="465" type="line"/>
      <point x="212" y="213" type="line" smooth="yes"/>
      <point x="202" y="178"/>
      <point x="189" y="142"/>
      <point x="180" y="107" type="curve"/>
      <point x="176" y="107" type="line"/>
      <point x="165" y="144"/>
      <point x="155" y="179"/>
      <point x="145" y="216" type="curve" smooth="yes"/>
      <point x="80" y="465" type="line"/>
      <point x="10" y="465" type="line"/>
      <point x="140" y="0" type="line"/>
    </contour>
  </outline>
</glyph>
<glyph name="w" format="1">
  <advance width="511"/>
  <unicode hex="0077"/>
  <outline>
    <contour>
      <point x="256" y="465" type="move" name="top"/>
    </contour>
    <contour>
      <point x="319" y="0" type="line"/>
      <point x="393" y="0" type="line"/>
      <point x="510" y="465" type="line"/>
      <point x="443" y="465" type="line"/>
      <point x="380" y="183" type="line" smooth="yes"/>
      <point x="367" y="129"/>
      <point x="362" y="83"/>
      <point x="362" y="83" type="curve" smooth="yes"/>
      <point x="359" y="83" type="line" smooth="yes"/>
      <point x="359" y="83"/>
      <point x="354" y="135"/>
      <point x="347" y="183" type="curve" smooth="yes"/>
      <point x="296" y="465" type="line"/>
      <point x="219" y="465" type="line"/>
      <point x="170" y="182" type="line" smooth="yes"/>
      <point x="163" y="141"/>
      <point x="157" y="83"/>
      <point x="157" y="83" type="curve" smooth="yes"/>
      <point x="153" y="83" type="line" smooth="yes"/>
      <point x="153" y="83"/>
      <point x="143" y="151"/>
      <point x="135" y="182" type="curve" smooth="yes"/>
      <point x="72" y="465" type="line"/>
      <point x="1" y="465" type="line"/>
      <point x="118" y="0" type="line"/>
      <point x="190" y="0" type="line"/>
      <point x="239" y="277" type="line" smooth="yes"/>
      <point x="248" y="327"/>
      <point x="253" y="382"/>
      <point x="253" y="382" type="curve"/>
      <point x="257" y="382" type="line"/>
      <point x="257" y="382"/>
      <point x="262" y="326"/>
      <point x="271" y="278" type="curve" smooth="yes"/>
    </contour>
  </outline>
</glyph>
<glyph name="x" format="1">
  <advance width="350"/>
  <unicode hex="0078"/>
  <outline>
    <contour>
      <point x="207" y="240" type="line"/>
      <point x="339" y="465" type="line"/>
      <point x="267" y="465" type="line"/>
      <point x="171" y="292" type="line"/>
      <point x="179" y="292" type="line"/>
      <point x="88" y="465" type="line"/>
      <point x="10" y="465" type="line"/>
      <point x="141" y="234" type="line"/>
      <point x="5" y="0" type="line"/>
      <point x="75" y="0" type="line"/>
      <point x="176" y="181" type="line"/>
      <point x="170" y="181" type="line"/>
      <point x="267" y="0" type="line"/>
      <point x="344" y="0" type="line"/>
    </contour>
  </outline>
</glyph>
<glyph name="z" format="1">
  <advance width="362"/>
  <unicode hex="007A"/>
  <outline>
    <contour>
      <point x="323" y="434" type="line"/>
      <point x="323" y="465" type="line"/>
      <point x="40" y="465" type="line"/>
      <point x="40" y="407" type="line"/>
      <point x="236" y="407" type="line"/>
      <point x="25" y="31" type="line"/>
      <point x="25" y="0" type="line"/>
      <point x="337" y="0" type="line"/>
      <point x="337" y="58" type="line"/>
      <point x="111" y="58" type="line"/>
    </contour>
    <contour>
      <point x="181" y="465" type="move" name="top"/>
    </contour>
  </outline>
</glyph>
<glyph name="braceleft" format="1">
  <advance width="230"/>
  <unicode hex="007B"/>
  <outline>
    <contour>
      <point x="214" y="650" type="line"/>
      <point x="145" y="650"/>
      <point x="85" y="630"/>
      <point x="85" y="519" type="curve" smooth="yes"/>
      <point x="85" y="344" type="line" smooth="yes"/>
      <point x="85" y="304"/>
      <point x="49" y="291"/>
      <point x="17" y="291" type="curve"/>
      <point x="17" y="218" type="line"/>
      <point x="49" y="218"/>
      <point x="85" y="205"/>
      <point x="85" y="165" type="curve" smooth="yes"/>
      <point x="85" y="-10" type="line" smooth="yes"/>
      <point x="85" y="-121"/>
      <point x="145" y="-141"/>
      <point x="214" y="-141" type="curve"/>
      <point x="214" y="-95" type="line"/>
      <point x="181" y="-95"/>
      <point x="143" y="-85"/>
      <point x="143" y="-29" type="curve" smooth="yes"/>
      <point x="143" y="32"/>
      <point x="140" y="92"/>
      <point x="138" y="155" type="curve" smooth="yes"/>
      <point x="136" y="215"/>
      <point x="117" y="250"/>
      <point x="65" y="250" type="curve"/>
      <point x="65" y="259" type="line"/>
      <point x="117" y="259"/>
      <point x="135" y="294"/>
      <point x="138" y="354" type="curve" smooth="yes"/>
      <point x="140" y="417"/>
      <point x="143" y="478"/>
      <point x="143" y="540" type="curve" smooth="yes"/>
      <point x="143" y="594"/>
      <point x="181" y="604"/>
      <point x="214" y="604" type="curve"/>
    </contour>
  </outline>
</glyph>
<glyph name="bar" format="1">
  <advance width="188"/>
  <unicode hex="007C"/>
  <outline>
    <contour>
      <point x="129" y="-153" type="line"/>
      <point x="129" y="639" type="line"/>
      <point x="59" y="639" type="line"/>
      <point x="59" y="-153" type="line"/>
    </contour>
  </outline>
</glyph>
<glyph name="braceright" format="1">
  <advance width="230"/>
  <unicode hex="007D"/>
  <outline>
    <contour>
      <point x="18" y="604" type="line"/>
      <point x="50" y="604"/>
      <point x="88" y="594"/>
      <point x="88" y="540" type="curve" smooth="yes"/>
      <point x="88" y="478"/>
      <point x="91" y="417"/>
      <point x="94" y="354" type="curve" smooth="yes"/>
      <point x="95" y="294"/>
      <point x="114" y="259"/>
      <point x="166" y="259" type="curve"/>
      <point x="166" y="250" type="line"/>
      <point x="114" y="250"/>
      <point x="95" y="215"/>
      <point x="94" y="155" type="curve" smooth="yes"/>
      <point x="91" y="92"/>
      <point x="88" y="32"/>
      <point x="88" y="-29" type="curve" smooth="yes"/>
      <point x="88" y="-85"/>
      <point x="50" y="-95"/>
      <point x="18" y="-95" type="curve"/>
      <point x="18" y="-141" type="line"/>
      <point x="86" y="-141"/>
      <point x="145" y="-121"/>
      <point x="145" y="-10" type="curve" smooth="yes"/>
      <point x="145" y="165" type="line" smooth="yes"/>
      <point x="145" y="205"/>
      <point x="183" y="218"/>
      <point x="215" y="218" type="curve"/>
      <point x="215" y="291" type="line"/>
      <point x="183" y="291"/>
      <point x="145" y="304"/>
      <point x="145" y="344" type="curve" smooth="yes"/>
      <point x="145" y="519" type="line" smooth="yes"/>
      <point x="145" y="630"/>
      <point x="86" y="650"/>
      <point x="18" y="650" type="curve"/>
    </contour>
  </outline>
</glyph>
<glyph name="asciitilde" format="1">
  <advance width="423"/>
  <unicode hex="007E"/>
  <outline>
    <contour>
      <point x="392" y="343" type="line"/>
      <point x="392" y="343"/>
      <point x="349" y="278"/>
      <point x="288" y="278" type="curve" smooth="yes"/>
      <point x="232" y="278"/>
      <point x="190" y="332"/>
      <point x="135" y="332" type="curve" smooth="yes"/>
      <point x="65" y="332"/>
      <point x="31" y="268"/>
      <point x="31" y="268" type="curve"/>
      <point x="31" y="187" type="line"/>
      <point x="31" y="187"/>
      <point x="74" y="251"/>
      <point x="135" y="251" type="curve" smooth="yes"/>
      <point x="192" y="251"/>
      <point x="233" y="197"/>
      <point x="288" y="197" type="curve" smooth="yes"/>
      <point x="358" y="197"/>
      <point x="392" y="262"/>
      <point x="392" y="262" type="curve"/>
    </contour>
  </outline>
</glyph>
<glyph name="exclamdown" format="1">
  <advance width="241"/>
  <unicode hex="00A1"/>
  <outline>
    <contour>
      <point x="117" y="321" type="line"/>
      <point x="112" y="168"/>
      <point x="106" y="12"/>
      <point x="98" y="-141" type="curve"/>
      <point x="188" y="-141" type="line"/>
      <point x="185" y="-119"/>
      <point x="174" y="156"/>
      <point x="167" y="321" type="curve"/>
    </contour>
    <contour>
      <point x="183" y="465" type="line"/>
      <point x="105" y="465" type="line"/>
      <point x="105" y="378" type="line"/>
      <point x="183" y="378" type="line"/>
    </contour>
  </outline>
</glyph>
<glyph name="cent" format="1">
  <advance width="403"/>
  <unicode hex="00A2"/>
  <outline>
    <contour>
      <point x="228" y="639" type="line"/>
      <point x="187" y="639" type="line"/>
      <point x="187" y="545" type="line"/>
      <point x="89" y="535"/>
      <point x="44" y="458"/>
      <point x="44" y="303" type="curve" smooth="yes"/>
      <point x="44" y="147"/>
      <point x="90" y="72"/>
      <point x="187" y="61" type="curve"/>
      <point x="187" y="-43" type="line"/>
      <point x="228" y="-43" type="line"/>
      <point x="228" y="61" type="line"/>
      <point x="325" y="72"/>
      <point x="357" y="160"/>
      <point x="357" y="242" type="curve"/>
      <point x="291" y="242" type="line"/>
      <point x="291" y="171"/>
      <point x="275" y="129"/>
      <point x="228" y="119" type="curve"/>
      <point x="228" y="487" type="line"/>
      <point x="275" y="478"/>
      <point x="289" y="440"/>
      <point x="289" y="364" type="curve"/>
      <point x="357" y="364" type="line"/>
      <point x="357" y="472"/>
      <point x="324" y="537"/>
      <point x="228" y="545" type="curve"/>
    </contour>
    <contour>
      <point x="187" y="120" type="line"/>
      <point x="135" y="133"/>
      <point x="113" y="188"/>
      <point x="113" y="286" type="curve" smooth="yes"/>
      <point x="113" y="320" type="line" smooth="yes"/>
      <point x="113" y="417"/>
      <point x="136" y="473"/>
      <point x="187" y="485" type="curve"/>
    </contour>
  </outline>
</glyph>
<glyph name="sterling" format="1">
  <advance width="403"/>
  <unicode hex="00A3"/>
  <outline>
    <contour>
      <point x="223" y="617" type="curve" smooth="yes"/>
      <point x="136" y="617"/>
      <point x="85" y="559"/>
      <point x="85" y="441" type="curve" smooth="yes"/>
      <point x="85" y="328" type="line"/>
      <point x="20" y="328" type="line"/>
      <point x="20" y="273" type="line"/>
      <point x="85" y="273" type="line"/>
      <point x="85" y="63" type="line"/>
      <point x="30" y="63" type="line"/>
      <point x="30" y="0" type="line"/>
      <point x="362" y="0" type="line"/>
      <point x="362" y="63" type="line"/>
      <point x="141" y="63" type="line"/>
      <point x="149" y="273" type="line"/>
      <point x="270" y="273" type="line"/>
      <point x="270" y="328" type="line"/>
      <point x="150" y="328" type="line"/>
      <point x="150" y="452" type="line" smooth="yes"/>
      <point x="150" y="526"/>
      <point x="175" y="559"/>
      <point x="223" y="559" type="curve" smooth="yes"/>
      <point x="272" y="559"/>
      <point x="298" y="525"/>
      <point x="298" y="445" type="curve" smooth="yes"/>
      <point x="298" y="434" type="line"/>
      <point x="360" y="434" type="line"/>
      <point x="360" y="446" type="line" smooth="yes"/>
      <point x="360" y="576"/>
      <point x="306" y="617"/>
    </contour>
  </outline>
</glyph>
<glyph name="currency" format="1">
  <advance width="403"/>
  <unicode hex="00A4"/>
  <outline>
    <contour>
      <point x="153" y="524"/>
      <point x="107" y="503"/>
      <point x="73" y="470" type="curve"/>
      <point x="36" y="508" type="line"/>
      <point x="-4" y="468" type="line"/>
      <point x="41" y="426" type="line"/>
      <point x="19" y="390"/>
      <point x="7" y="348"/>
      <point x="7" y="302" type="curve" smooth="yes"/>
      <point x="7" y="256"/>
      <point x="19" y="214"/>
      <point x="40" y="180" type="curve"/>
      <point x="-4" y="137" type="line"/>
      <point x="36" y="97" type="line"/>
      <point x="74" y="136" type="line"/>
      <point x="108" y="102"/>
      <point x="152" y="82"/>
      <point x="202" y="82" type="curve" smooth="yes"/>
      <point x="250" y="82"/>
      <point x="296" y="102"/>
      <point x="329" y="136" type="curve"/>
      <point x="368" y="97" type="line"/>
      <point x="407" y="137" type="line"/>
      <point x="363" y="180" type="line"/>
      <point x="384" y="214"/>
      <point x="396" y="257"/>
      <point x="396" y="302" type="curve" smooth="yes"/>
      <point x="396" y="348"/>
      <point x="384" y="389"/>
      <point x="363" y="425" type="curve"/>
      <point x="407" y="468" type="line"/>
      <point x="367" y="508" type="line"/>
      <point x="329" y="470" type="line"/>
      <point x="295" y="503"/>
      <point x="250" y="524"/>
      <point x="202" y="524" type="curve" smooth="yes"/>
    </contour>
    <contour>
      <point x="278" y="469"/>
      <point x="339" y="395"/>
      <point x="339" y="302" type="curve" smooth="yes"/>
      <point x="339" y="211"/>
      <point x="278" y="137"/>
      <point x="202" y="137" type="curve" smooth="yes"/>
      <point x="124" y="137"/>
      <point x="63" y="211"/>
      <point x="63" y="302" type="curve" smooth="yes"/>
      <point x="63" y="395"/>
      <point x="124" y="469"/>
      <point x="202" y="469" type="curve" smooth="yes"/>
    </contour>
  </outline>
</glyph>
<glyph name="yen" format="1">
  <advance width="403"/>
  <unicode hex="00A5"/>
  <outline>
    <contour>
      <point x="381" y="322" type="line"/>
      <point x="262" y="322" type="line"/>
      <point x="400" y="606" type="line"/>
      <point x="338" y="606" type="line"/>
      <point x="211" y="339" type="line"/>
      <point x="207" y="339" type="line"/>
      <point x="76" y="606" type="line"/>
      <point x="1" y="606" type="line"/>
      <point x="140" y="322" type="line"/>
      <point x="21" y="322" type="line"/>
      <point x="21" y="269" type="line"/>
      <point x="167" y="269" type="line"/>
      <point x="167" y="207" type="line"/>
      <point x="21" y="207" type="line"/>
      <point x="21" y="153" type="line"/>
      <point x="167" y="153" type="line"/>
      <point x="167" y="0" type="line"/>
      <point x="235" y="0" type="line"/>
      <point x="235" y="153" type="line"/>
      <point x="381" y="153" type="line"/>
      <point x="381" y="207" type="line"/>
      <point x="235" y="207" type="line"/>
      <point x="235" y="269" type="line"/>
      <point x="381" y="269" type="line"/>
    </contour>
  </outline>
</glyph>
<glyph name="brokenbar" format="1">
  <advance width="184"/>
  <unicode hex="00A6"/>
  <outline>
    <contour>
      <point x="58" y="301" type="line"/>
      <point x="125" y="301" type="line"/>
      <point x="125" y="639" type="line"/>
      <point x="58" y="639" type="line"/>
    </contour>
    <contour>
      <point x="58" y="-153" type="line"/>
      <point x="125" y="-153" type="line"/>
      <point x="125" y="185" type="line"/>
      <point x="58" y="185" type="line"/>
    </contour>
  </outline>
</glyph>
<glyph name="section" format="1">
  <advance width="403"/>
  <unicode hex="00A7"/>
  <outline>
    <contour>
      <point x="145" y="-17" type="line"/>
      <point x="70" y="-17" type="line"/>
      <point x="70" y="-19"/>
      <point x="69" y="-27"/>
      <point x="69" y="-34" type="curve" smooth="yes"/>
      <point x="69" y="-103"/>
      <point x="116" y="-161"/>
      <point x="202" y="-161" type="curve" smooth="yes"/>
      <point x="294" y="-161"/>
      <point x="347" y="-111"/>
      <point x="347" y="-28" type="curve" smooth="yes"/>
      <point x="347" y="30"/>
      <point x="324" y="65"/>
      <point x="294" y="92" type="curve"/>
      <point x="325" y="114"/>
      <point x="356" y="154"/>
      <point x="356" y="211" type="curve" smooth="yes"/>
      <point x="356" y="390"/>
      <point x="144" y="358"/>
      <point x="144" y="490" type="curve" smooth="yes"/>
      <point x="144" y="515"/>
      <point x="156" y="553"/>
      <point x="207" y="553" type="curve" smooth="yes"/>
      <point x="256" y="553"/>
      <point x="271" y="517"/>
      <point x="271" y="481" type="curve" smooth="yes"/>
      <point x="271" y="473" type="line"/>
      <point x="347" y="473" type="line"/>
      <point x="347" y="490" type="line" smooth="yes"/>
      <point x="347" y="559"/>
      <point x="301" y="617"/>
      <point x="214" y="617" type="curve" smooth="yes"/>
      <point x="122" y="617"/>
      <point x="69" y="567"/>
      <point x="69" y="484" type="curve" smooth="yes"/>
      <point x="69" y="426"/>
      <point x="91" y="390"/>
      <point x="122" y="363" type="curve"/>
      <point x="91" y="342"/>
      <point x="60" y="302"/>
      <point x="60" y="245" type="curve" smooth="yes"/>
      <point x="60" y="66"/>
      <point x="272" y="98"/>
      <point x="272" y="-34" type="curve" smooth="yes"/>
      <point x="272" y="-59"/>
      <point x="260" y="-97"/>
      <point x="210" y="-97" type="curve" smooth="yes"/>
      <point x="160" y="-97"/>
      <point x="145" y="-61"/>
      <point x="145" y="-25" type="curve" smooth="yes"/>
    </contour>
    <contour>
      <point x="161" y="335" type="curve"/>
      <point x="220" y="299"/>
      <point x="286" y="273"/>
      <point x="286" y="193" type="curve" smooth="yes"/>
      <point x="286" y="160"/>
      <point x="273" y="135"/>
      <point x="255" y="120" type="curve"/>
      <point x="196" y="157"/>
      <point x="131" y="183"/>
      <point x="131" y="263" type="curve" smooth="yes"/>
      <point x="131" y="296"/>
      <point x="142" y="321"/>
    </contour>
  </outline>
</glyph>
<glyph name="dieresis" format="1">
  <advance width="241"/>
  <unicode hex="00A8"/>
  <outline>
    <contour>
      <point x="121" y="465" type="move" name="_top"/>
    </contour>
    <contour>
      <point x="148" y="559" type="line"/>
      <point x="220" y="559" type="line"/>
      <point x="220" y="639" type="line"/>
      <point x="148" y="639" type="line"/>
    </contour>
    <contour>
      <point x="21" y="559" type="line"/>
      <point x="94" y="559" type="line"/>
      <point x="94" y="639" type="line"/>
      <point x="21" y="639" type="line"/>
    </contour>
  </outline>
</glyph>
<glyph name="copyright" format="1">
  <advance width="534"/>
  <unicode hex="00A9"/>
  <outline>
    <contour>
      <point x="112" y="617"/>
      <point x="20" y="494"/>
      <point x="20" y="303" type="curve" smooth="yes"/>
      <point x="20" y="112"/>
      <point x="112" y="-11"/>
      <point x="267" y="-11" type="curve" smooth="yes"/>
      <point x="421" y="-11"/>
      <point x="513" y="112"/>
      <point x="513" y="303" type="curve" smooth="yes"/>
      <point x="513" y="494"/>
      <point x="421" y="617"/>
      <point x="267" y="617" type="curve" smooth="yes"/>
    </contour>
    <contour>
      <point x="176" y="494"/>
      <point x="129" y="433"/>
      <point x="129" y="309" type="curve" smooth="yes"/>
      <point x="129" y="186"/>
      <point x="176" y="124"/>
      <point x="269" y="124" type="curve" smooth="yes"/>
      <point x="340" y="124"/>
      <point x="391" y="165"/>
      <point x="391" y="257" type="curve"/>
      <point x="350" y="257" type="line"/>
      <point x="350" y="195"/>
      <point x="317" y="164"/>
      <point x="269" y="164" type="curve" smooth="yes"/>
      <point x="204" y="164"/>
      <point x="173" y="207"/>
      <point x="173" y="296" type="curve" smooth="yes"/>
      <point x="173" y="324" type="line" smooth="yes"/>
      <point x="173" y="413"/>
      <point x="205" y="454"/>
      <point x="269" y="454" type="curve" smooth="yes"/>
      <point x="317" y="454"/>
      <point x="348" y="424"/>
      <point x="348" y="361" type="curve"/>
      <point x="391" y="361" type="line"/>
      <point x="391" y="450"/>
      <point x="341" y="494"/>
      <point x="269" y="494" type="curve" smooth="yes"/>
    </contour>
    <contour>
      <point x="397" y="577"/>
      <point x="477" y="470"/>
      <point x="477" y="303" type="curve" smooth="yes"/>
      <point x="477" y="137"/>
      <point x="397" y="29"/>
      <point x="267" y="29" type="curve" smooth="yes"/>
      <point x="138" y="29"/>
      <point x="58" y="137"/>
      <point x="58" y="303" type="curve" smooth="yes"/>
      <point x="58" y="470"/>
      <point x="138" y="577"/>
      <point x="267" y="577" type="curve" smooth="yes"/>
    </contour>
  </outline>
</glyph>
<glyph name="ordfeminine" format="1">
  <advance width="268"/>
  <unicode hex="00AA"/>
  <outline>
    <contour>
      <point x="263" y="367" type="line"/>
      <point x="243" y="367" type="line" smooth="yes"/>
      <point x="236" y="367"/>
      <point x="228" y="372"/>
      <point x="228" y="386" type="curve" smooth="yes"/>
      <point x="228" y="561" type="line" smooth="yes"/>
      <point x="228" y="617"/>
      <point x="196" y="650"/>
      <point x="132" y="650" type="curve" smooth="yes"/>
      <point x="72" y="650"/>
      <point x="30" y="620"/>
      <point x="30" y="561" type="curve" smooth="yes"/>
      <point x="30" y="546" type="line"/>
      <point x="82" y="546" type="line"/>
      <point x="82" y="555" type="line" smooth="yes"/>
      <point x="82" y="579"/>
      <point x="94" y="604"/>
      <point x="129" y="604" type="curve" smooth="yes"/>
      <point x="166" y="604"/>
      <point x="176" y="583"/>
      <point x="176" y="554" type="curve" smooth="yes"/>
      <point x="176" y="516" type="line"/>
      <point x="85" y="516"/>
      <point x="18" y="498"/>
      <point x="18" y="409" type="curve" smooth="yes"/>
      <point x="18" y="332"/>
      <point x="70" y="320"/>
      <point x="102" y="320" type="curve" smooth="yes"/>
      <point x="134" y="320"/>
      <point x="163" y="335"/>
      <point x="179" y="361" type="curve"/>
      <point x="186" y="338"/>
      <point x="204" y="323"/>
      <point x="230" y="323" type="curve" smooth="yes"/>
      <point x="245" y="323"/>
      <point x="257" y="326"/>
      <point x="263" y="331" type="curve"/>
    </contour>
    <contour>
      <point x="176" y="442" type="line" smooth="yes"/>
      <point x="176" y="392"/>
      <point x="142" y="367"/>
      <point x="113" y="367" type="curve" smooth="yes"/>
      <point x="87" y="367"/>
      <point x="72" y="378"/>
      <point x="72" y="412" type="curve" smooth="yes"/>
      <point x="72" y="460"/>
      <point x="115" y="469"/>
      <point x="176" y="469" type="curve"/>
    </contour>
  </outline>
</glyph>
<glyph name="guillemotleft" format="1">
  <advance width="403"/>
  <unicode hex="00AB"/>
  <outline>
    <contour>
      <point x="270" y="288" type="line"/>
      <point x="369" y="465" type="line"/>
      <point x="307" y="465" type="line"/>
      <point x="181" y="288" type="line"/>
      <point x="307" y="111" type="line"/>
      <point x="369" y="111" type="line"/>
    </contour>
    <contour>
      <point x="135" y="288" type="line"/>
      <point x="235" y="465" type="line"/>
      <point x="172" y="465" type="line"/>
      <point x="48" y="288" type="line"/>
      <point x="172" y="111" type="line"/>
      <point x="235" y="111" type="line"/>
    </contour>
  </outline>
</glyph>
<glyph name="logicalnot" format="1">
  <advance width="423"/>
  <unicode hex="00AC"/>
  <outline>
    <contour>
      <point x="382" y="177" type="line"/>
      <point x="382" y="397" type="line"/>
      <point x="36" y="397" type="line"/>
      <point x="36" y="321" type="line"/>
      <point x="312" y="321" type="line"/>
      <point x="312" y="177" type="line"/>
    </contour>
  </outline>
</glyph>
<glyph name="macron" format="1">
  <advance width="241"/>
  <unicode hex="00AF"/>
  <outline>
    <contour>
      <point x="232" y="530" type="line"/>
      <point x="232" y="593" type="line"/>
      <point x="11" y="593" type="line"/>
      <point x="11" y="530" type="line"/>
    </contour>
    <contour>
      <point x="121" y="465" type="move" name="_top"/>
    </contour>
  </outline>
</glyph>
<glyph name="degree" format="1">
  <advance width="354"/>
  <unicode hex="00B0"/>
  <outline>
    <contour>
      <point x="109" y="617"/>
      <point x="56" y="564"/>
      <point x="56" y="498" type="curve" smooth="yes"/>
      <point x="56" y="431"/>
      <point x="109" y="378"/>
      <point x="175" y="378" type="curve" smooth="yes"/>
      <point x="241" y="378"/>
      <point x="294" y="431"/>
      <point x="294" y="498" type="curve" smooth="yes"/>
      <point x="294" y="564"/>
      <point x="241" y="617"/>
      <point x="175" y="617" type="curve" smooth="yes"/>
    </contour>
    <contour>
      <point x="215" y="569"/>
      <point x="247" y="537"/>
      <point x="247" y="498" type="curve" smooth="yes"/>
      <point x="247" y="458"/>
      <point x="215" y="425"/>
      <point x="175" y="425" type="curve" smooth="yes"/>
      <point x="135" y="425"/>
      <point x="103" y="458"/>
      <point x="103" y="498" type="curve" smooth="yes"/>
      <point x="103" y="537"/>
      <point x="135" y="569"/>
      <point x="175" y="569" type="curve" smooth="yes"/>
    </contour>
  </outline>
</glyph>
<glyph name="plusminus" format="1">
  <advance width="485"/>
  <unicode hex="00B1"/>
  <outline>
    <contour>
      <point x="278" y="348" type="line"/>
      <point x="278" y="511" type="line"/>
      <point x="205" y="511" type="line"/>
      <point x="205" y="348" type="line"/>
      <point x="69" y="348" type="line"/>
      <point x="69" y="274" type="line"/>
      <point x="205" y="274" type="line"/>
      <point x="205" y="112" type="line"/>
      <point x="278" y="112" type="line"/>
      <point x="278" y="274" type="line"/>
      <point x="415" y="274" type="line"/>
      <point x="415" y="348" type="line"/>
    </contour>
    <contour>
      <point x="415" y="0" type="line"/>
      <point x="415" y="73" type="line"/>
      <point x="69" y="73" type="line"/>
      <point x="69" y="0" type="line"/>
    </contour>
  </outline>
</glyph>
<glyph name="twosuperior" format="1">
  <advance width="241"/>
  <unicode hex="00B2"/>
  <outline>
    <contour>
      <point x="73" y="650"/>
      <point x="27" y="617"/>
      <point x="27" y="538" type="curve" smooth="yes"/>
      <point x="27" y="528"/>
      <point x="29" y="511"/>
      <point x="29" y="511" type="curve"/>
      <point x="80" y="511" type="line"/>
      <point x="80" y="539" type="line" smooth="yes"/>
      <point x="80" y="573"/>
      <point x="92" y="601"/>
      <point x="125" y="601" type="curve" smooth="yes"/>
      <point x="160" y="601"/>
      <point x="168" y="574"/>
      <point x="168" y="553" type="curve" smooth="yes"/>
      <point x="168" y="496"/>
      <point x="116" y="456"/>
      <point x="76" y="410" type="curve" smooth="yes"/>
      <point x="46" y="378"/>
      <point x="23" y="343"/>
      <point x="23" y="299" type="curve" smooth="yes"/>
      <point x="23" y="286" type="line"/>
      <point x="222" y="286" type="line"/>
      <point x="222" y="338" type="line"/>
      <point x="85" y="338" type="line"/>
      <point x="97" y="365"/>
      <point x="123" y="388"/>
      <point x="142" y="407" type="curve" smooth="yes"/>
      <point x="178" y="446"/>
      <point x="222" y="498"/>
      <point x="222" y="553" type="curve" smooth="yes"/>
      <point x="222" y="622"/>
      <point x="178" y="650"/>
      <point x="125" y="650" type="curve" smooth="yes"/>
    </contour>
  </outline>
</glyph>
<glyph name="threesuperior" format="1">
  <advance width="241"/>
  <unicode hex="00B3"/>
  <outline>
    <contour>
      <point x="124" y="650" type="curve" smooth="yes"/>
      <point x="67" y="650"/>
      <point x="29" y="610"/>
      <point x="29" y="548" type="curve" smooth="yes"/>
      <point x="29" y="533" type="line"/>
      <point x="79" y="533" type="line"/>
      <point x="79" y="544" type="line" smooth="yes"/>
      <point x="79" y="584"/>
      <point x="100" y="602"/>
      <point x="125" y="602" type="curve" smooth="yes"/>
      <point x="147" y="602"/>
      <point x="168" y="585"/>
      <point x="168" y="545" type="curve" smooth="yes"/>
      <point x="168" y="508"/>
      <point x="147" y="491"/>
      <point x="122" y="491" type="curve" smooth="yes"/>
      <point x="87" y="491" type="line"/>
      <point x="87" y="444" type="line"/>
      <point x="121" y="444" type="line" smooth="yes"/>
      <point x="149" y="444"/>
      <point x="174" y="433"/>
      <point x="174" y="388" type="curve" smooth="yes"/>
      <point x="174" y="346"/>
      <point x="153" y="328"/>
      <point x="121" y="328" type="curve" smooth="yes"/>
      <point x="90" y="328"/>
      <point x="74" y="348"/>
      <point x="74" y="389" type="curve" smooth="yes"/>
      <point x="74" y="400" type="line"/>
      <point x="22" y="400" type="line"/>
      <point x="22" y="391" type="line" smooth="yes"/>
      <point x="22" y="323"/>
      <point x="58" y="280"/>
      <point x="126" y="280" type="curve" smooth="yes"/>
      <point x="184" y="280"/>
      <point x="224" y="319"/>
      <point x="224" y="386" type="curve" smooth="yes"/>
      <point x="224" y="426"/>
      <point x="205" y="455"/>
      <point x="178" y="469" type="curve"/>
      <point x="204" y="486"/>
      <point x="219" y="508"/>
      <point x="219" y="548" type="curve" smooth="yes"/>
      <point x="219" y="613"/>
      <point x="181" y="650"/>
    </contour>
  </outline>
</glyph>
<glyph name="acute" format="1">
  <advance width="241"/>
  <unicode hex="00B4"/>
  <outline>
    <contour>
      <point x="140" y="465" type="move" name="_top"/>
    </contour>
    <contour>
      <point x="118" y="522" type="line"/>
      <point x="214" y="636" type="line"/>
      <point x="213" y="639" type="line"/>
      <point x="141" y="639" type="line"/>
      <point x="65" y="522" type="line"/>
    </contour>
  </outline>
</glyph>
<glyph name="paragraph" format="1">
  <advance width="389"/>
  <unicode hex="00B6"/>
  <outline>
    <contour>
      <point x="370" y="552" type="line"/>
      <point x="370" y="606" type="line"/>
      <point x="186" y="606" type="line" smooth="yes"/>
      <point x="91" y="606"/>
      <point x="16" y="520"/>
      <point x="16" y="413" type="curve" smooth="yes"/>
      <point x="16" y="313"/>
      <point x="80" y="232"/>
      <point x="165" y="221" type="curve"/>
      <point x="165" y="-153" type="line"/>
      <point x="223" y="-153" type="line"/>
      <point x="223" y="552" type="line"/>
      <point x="270" y="552" type="line"/>
      <point x="270" y="-153" type="line"/>
      <point x="328" y="-153" type="line"/>
      <point x="328" y="552" type="line"/>
    </contour>
  </outline>
</glyph>
<glyph name="periodcentered" format="1">
  <advance width="202"/>
  <unicode hex="00B7"/>
  <outline>
    <contour>
      <point x="59" y="258" type="line"/>
      <point x="143" y="258" type="line"/>
      <point x="143" y="350" type="line"/>
      <point x="59" y="350" type="line"/>
    </contour>
  </outline>
</glyph>
<glyph name="cedilla" format="1">
  <advance width="241"/>
  <unicode hex="00B8"/>
  <outline>
    <contour>
      <point x="132" y="10" type="line"/>
      <point x="86" y="10" type="line"/>
      <point x="73" y="-68" type="line"/>
      <point x="102" y="-68" type="line" smooth="yes"/>
      <point x="125" y="-68"/>
      <point x="132" y="-75"/>
      <point x="132" y="-89" type="curve" smooth="yes"/>
      <point x="132" y="-106"/>
      <point x="119" y="-111"/>
      <point x="100" y="-111" type="curve" smooth="yes"/>
      <point x="32" y="-111" type="line"/>
      <point x="32" y="-154" type="line"/>
      <point x="53" y="-158"/>
      <point x="81" y="-161"/>
      <point x="106" y="-161" type="curve" smooth="yes"/>
      <point x="141" y="-161"/>
      <point x="197" y="-149"/>
      <point x="197" y="-89" type="curve" smooth="yes"/>
      <point x="197" y="-49"/>
      <point x="162" y="-35"/>
      <point x="124" y="-33" type="curve"/>
    </contour>
    <contour>
      <point x="114" y="0" type="move" name="_bottom"/>
    </contour>
  </outline>
</glyph>
<glyph name="onesuperior" format="1">
  <advance width="241"/>
  <unicode hex="00B9"/>
  <outline>
    <contour>
      <point x="226" y="334" type="line"/>
      <point x="159" y="334" type="line"/>
      <point x="159" y="640" type="line"/>
      <point x="135" y="640" type="line"/>
      <point x="109" y="621"/>
      <point x="64" y="607"/>
      <point x="36" y="603" type="curve"/>
      <point x="36" y="568" type="line"/>
      <point x="108" y="568" type="line"/>
      <point x="108" y="334" type="line"/>
      <point x="37" y="334" type="line"/>
      <point x="37" y="286" type="line"/>
      <point x="226" y="286" type="line"/>
    </contour>
  </outline>
</glyph>
<glyph name="ordmasculine" format="1">
  <advance width="264"/>
  <unicode hex="00BA"/>
  <outline>
    <contour>
      <point x="60" y="650"/>
      <point x="22" y="598"/>
      <point x="22" y="484" type="curve" smooth="yes"/>
      <point x="22" y="371"/>
      <point x="60" y="319"/>
      <point x="131" y="319" type="curve" smooth="yes"/>
      <point x="203" y="319"/>
      <point x="241" y="371"/>
      <point x="241" y="484" type="curve" smooth="yes"/>
      <point x="241" y="598"/>
      <point x="203" y="650"/>
      <point x="131" y="650" type="curve" smooth="yes"/>
    </contour>
    <contour>
      <point x="172" y="609"/>
      <point x="194" y="571"/>
      <point x="194" y="496" type="curve" smooth="yes"/>
      <point x="194" y="473" type="line" smooth="yes"/>
      <point x="194" y="398"/>
      <point x="172" y="360"/>
      <point x="132" y="360" type="curve" smooth="yes"/>
      <point x="90" y="360"/>
      <point x="69" y="398"/>
      <point x="69" y="473" type="curve" smooth="yes"/>
      <point x="69" y="496" type="line" smooth="yes"/>
      <point x="69" y="571"/>
      <point x="90" y="609"/>
      <point x="132" y="609" type="curve" smooth="yes"/>
    </contour>
  </outline>
</glyph>
<glyph name="guillemotright" format="1">
  <advance width="403"/>
  <unicode hex="00BB"/>
  <outline>
    <contour>
      <point x="221" y="111" type="line"/>
      <point x="346" y="288" type="line"/>
      <point x="221" y="465" type="line"/>
      <point x="163" y="465" type="line"/>
      <point x="264" y="288" type="line"/>
      <point x="163" y="111" type="line"/>
    </contour>
    <contour>
      <point x="94" y="111" type="line"/>
      <point x="221" y="288" type="line"/>
      <point x="94" y="465" type="line"/>
      <point x="37" y="465" type="line"/>
      <point x="137" y="288" type="line"/>
      <point x="37" y="111" type="line"/>
    </contour>
  </outline>
</glyph>
<glyph name="onequarter" format="1">
  <advance width="605"/>
  <unicode hex="00BC"/>
  <outline>
    <contour>
      <point x="157" y="-11" type="line"/>
      <point x="524" y="617" type="line"/>
      <point x="469" y="617" type="line"/>
      <point x="102" y="-11" type="line"/>
    </contour>
    <contour>
      <point x="153" y="302" type="line"/>
      <point x="153" y="606" type="line"/>
      <point x="127" y="606" type="line"/>
      <point x="100" y="588"/>
      <point x="55" y="572"/>
      <point x="27" y="568" type="curve"/>
      <point x="27" y="530" type="line"/>
      <point x="98" y="530" type="line"/>
      <point x="98" y="302" type="line"/>
      <point x="28" y="302" type="line"/>
      <point x="28" y="251" type="line"/>
      <point x="217" y="251" type="line"/>
      <point x="217" y="302" type="line"/>
    </contour>
    <contour>
      <point x="436" y="365" type="line"/>
      <point x="414" y="284"/>
      <point x="381" y="198"/>
      <point x="344" y="131" type="curve"/>
      <point x="344" y="85" type="line"/>
      <point x="477" y="85" type="line"/>
      <point x="477" y="0" type="line"/>
      <point x="532" y="0" type="line"/>
      <point x="532" y="85" type="line"/>
      <point x="568" y="85" type="line"/>
      <point x="568" y="135" type="line"/>
      <point x="532" y="135" type="line"/>
      <point x="532" y="314" type="line"/>
      <point x="508" y="314" type="line"/>
      <point x="501" y="279"/>
      <point x="485" y="237"/>
      <point x="477" y="216" type="curve"/>
      <point x="477" y="135" type="line"/>
      <point x="402" y="135" type="line"/>
      <point x="425" y="174"/>
      <point x="471" y="275"/>
      <point x="491" y="365" type="curve"/>
    </contour>
  </outline>
</glyph>
<glyph name="threequarters" format="1">
  <advance width="605"/>
  <unicode hex="00BE"/>
  <outline>
    <contour>
      <point x="144" y="-11" type="line"/>
      <point x="516" y="617" type="line"/>
      <point x="462" y="617" type="line"/>
      <point x="90" y="-11" type="line"/>
    </contour>
    <contour>
      <point x="69" y="617"/>
      <point x="29" y="577"/>
      <point x="29" y="515" type="curve" smooth="yes"/>
      <point x="29" y="499" type="line"/>
      <point x="80" y="499" type="line"/>
      <point x="80" y="511" type="line" smooth="yes"/>
      <point x="80" y="551"/>
      <point x="100" y="570"/>
      <point x="125" y="570" type="curve" smooth="yes"/>
      <point x="148" y="570"/>
      <point x="170" y="553"/>
      <point x="170" y="513" type="curve" smooth="yes"/>
      <point x="170" y="475"/>
      <point x="148" y="459"/>
      <point x="123" y="459" type="curve" smooth="yes"/>
      <point x="88" y="459" type="line"/>
      <point x="88" y="410" type="line"/>
      <point x="122" y="410" type="line" smooth="yes"/>
      <point x="149" y="410"/>
      <point x="174" y="399"/>
      <point x="174" y="354" type="curve" smooth="yes"/>
      <point x="174" y="314"/>
      <point x="154" y="295"/>
      <point x="122" y="295" type="curve" smooth="yes"/>
      <point x="90" y="295"/>
      <point x="74" y="314"/>
      <point x="74" y="356" type="curve" smooth="yes"/>
      <point x="74" y="367" type="line"/>
      <point x="23" y="367" type="line"/>
      <point x="23" y="358" type="line" smooth="yes"/>
      <point x="23" y="290"/>
      <point x="59" y="248"/>
      <point x="126" y="248" type="curve" smooth="yes"/>
      <point x="184" y="248"/>
      <point x="225" y="287"/>
      <point x="225" y="353" type="curve" smooth="yes"/>
      <point x="225" y="393"/>
      <point x="206" y="423"/>
      <point x="178" y="437" type="curve"/>
      <point x="205" y="453"/>
      <point x="221" y="476"/>
      <point x="221" y="515" type="curve" smooth="yes"/>
      <point x="221" y="581"/>
      <point x="182" y="617"/>
      <point x="124" y="617" type="curve" smooth="yes"/>
    </contour>
    <contour>
      <point x="436" y="365" type="line"/>
      <point x="414" y="283"/>
      <point x="380" y="198"/>
      <point x="343" y="130" type="curve"/>
      <point x="343" y="87" type="line"/>
      <point x="478" y="87" type="line"/>
      <point x="478" y="0" type="line"/>
      <point x="528" y="0" type="line"/>
      <point x="528" y="87" type="line"/>
      <point x="564" y="87" type="line"/>
      <point x="564" y="134" type="line"/>
      <point x="528" y="134" type="line"/>
      <point x="528" y="322" type="line"/>
      <point x="504" y="322" type="line"/>
      <point x="498" y="285"/>
      <point x="484" y="248"/>
      <point x="478" y="229" type="curve"/>
      <point x="478" y="134" type="line"/>
      <point x="398" y="134" type="line"/>
      <point x="421" y="174"/>
      <point x="466" y="275"/>
      <point x="486" y="365" type="curve"/>
    </contour>
  </outline>
</glyph>
<glyph name="Aacute" format="1">
  <advance width="484"/>
  <unicode hex="00C1"/>
  <outline>
    <contour>
      <point x="292" y="606" type="line"/>
      <point x="192" y="606" type="line"/>
      <point x="-1" y="0" type="line"/>
      <point x="77" y="0" type="line"/>
      <point x="118" y="135" type="line"/>
      <point x="359" y="135" type="line"/>
      <point x="400" y="0" type="line"/>
      <point x="484" y="0" type="line"/>
    </contour>
    <contour>
      <point x="240" y="543" type="line"/>
      <point x="240" y="543"/>
      <point x="248" y="496"/>
      <point x="255" y="476" type="curve" smooth="yes"/>
      <point x="337" y="206" type="line"/>
      <point x="140" y="206" type="line"/>
      <point x="223" y="476" type="line" smooth="yes"/>
      <point x="229" y="495"/>
      <point x="237" y="543"/>
      <point x="237" y="543" type="curve"/>
    </contour>
    <contour>
      <point x="345" y="781" type="line"/>
      <point x="265" y="781" type="line"/>
      <point x="189" y="664" type="line"/>
      <point x="250" y="664" type="line"/>
      <point x="346" y="778" type="line"/>
    </contour>
  </outline>
</glyph>
<glyph name="Atilde" format="1">
  <advance width="473"/>
  <unicode hex="00C3"/>
  <outline>
    <contour>
      <point x="281" y="606" type="line"/>
      <point x="191" y="606" type="line"/>
      <point x="-2" y="0" type="line"/>
      <point x="67" y="0" type="line"/>
      <point x="109" y="140" type="line"/>
      <point x="355" y="140" type="line"/>
      <point x="398" y="0" type="line"/>
      <point x="473" y="0" type="line"/>
    </contour>
    <contour>
      <point x="234" y="554" type="line"/>
      <point x="234" y="554"/>
      <point x="242" y="508"/>
      <point x="248" y="492" type="curve" smooth="yes"/>
      <point x="336" y="202" type="line"/>
      <point x="129" y="202" type="line"/>
      <point x="218" y="492" type="line" smooth="yes"/>
      <point x="223" y="508"/>
      <point x="231" y="554"/>
      <point x="231" y="554" type="curve"/>
    </contour>
    <contour>
      <point x="310" y="781" type="line"/>
      <point x="307" y="761"/>
      <point x="296" y="756"/>
      <point x="281" y="756" type="curve" smooth="yes"/>
      <point x="249" y="756"/>
      <point x="220" y="781"/>
      <point x="183" y="781" type="curve" smooth="yes"/>
      <point x="133" y="781"/>
      <point x="112" y="731"/>
      <point x="112" y="694" type="curve"/>
      <point x="162" y="694" type="line"/>
      <point x="164" y="713"/>
      <point x="176" y="719"/>
      <point x="191" y="719" type="curve" smooth="yes"/>
      <point x="223" y="719"/>
      <point x="251" y="694"/>
      <point x="287" y="694" type="curve" smooth="yes"/>
      <point x="339" y="694"/>
      <point x="359" y="742"/>
      <point x="359" y="781" type="curve"/>
    </contour>
  </outline>
</glyph>
<glyph name="Adieresis" format="1">
  <advance width="484"/>
  <unicode hex="00C4"/>
  <outline>
    <contour>
      <point x="292" y="606" type="line"/>
      <point x="192" y="606" type="line"/>
      <point x="-1" y="0" type="line"/>
      <point x="77" y="0" type="line"/>
      <point x="118" y="135" type="line"/>
      <point x="359" y="135" type="line"/>
      <point x="400" y="0" type="line"/>
      <point x="484" y="0" type="line"/>
    </contour>
    <contour>
      <point x="240" y="543" type="line"/>
      <point x="240" y="543"/>
      <point x="248" y="496"/>
      <point x="255" y="476" type="curve" smooth="yes"/>
      <point x="337" y="206" type="line"/>
      <point x="140" y="206" type="line"/>
      <point x="223" y="476" type="line" smooth="yes"/>
      <point x="229" y="495"/>
      <point x="237" y="543"/>
      <point x="237" y="543" type="curve"/>
    </contour>
    <contour>
      <point x="214" y="781" type="line"/>
      <point x="137" y="781" type="line"/>
      <point x="137" y="697" type="line"/>
      <point x="214" y="697" type="line"/>
    </contour>
    <contour>
      <point x="347" y="781" type="line"/>
      <point x="270" y="781" type="line"/>
      <point x="270" y="697" type="line"/>
      <point x="347" y="697" type="line"/>
    </contour>
  </outline>
</glyph>
<glyph name="Aring" format="1">
  <advance width="473"/>
  <unicode hex="00C5"/>
  <outline>
    <contour>
      <point x="281" y="606" type="line"/>
      <point x="191" y="606" type="line"/>
      <point x="-2" y="0" type="line"/>
      <point x="67" y="0" type="line"/>
      <point x="109" y="140" type="line"/>
      <point x="355" y="140" type="line"/>
      <point x="398" y="0" type="line"/>
      <point x="473" y="0" type="line"/>
    </contour>
    <contour>
      <point x="234" y="554" type="line"/>
      <point x="234" y="554"/>
      <point x="242" y="508"/>
      <point x="248" y="492" type="curve" smooth="yes"/>
      <point x="336" y="202" type="line"/>
      <point x="129" y="202" type="line"/>
      <point x="218" y="492" type="line" smooth="yes"/>
      <point x="223" y="508"/>
      <point x="231" y="554"/>
      <point x="231" y="554" type="curve"/>
    </contour>
    <contour>
      <point x="188" y="810"/>
      <point x="150" y="772"/>
      <point x="150" y="725" type="curve" smooth="yes"/>
      <point x="150" y="677"/>
      <point x="189" y="640"/>
      <point x="235" y="640" type="curve" smooth="yes"/>
      <point x="283" y="640"/>
      <point x="320" y="678"/>
      <point x="320" y="725" type="curve" smooth="yes"/>
      <point x="320" y="771"/>
      <point x="285" y="810"/>
      <point x="235" y="810" type="curve" smooth="yes"/>
    </contour>
    <contour>
      <point x="260" y="771"/>
      <point x="282" y="750"/>
      <point x="282" y="725" type="curve" smooth="yes"/>
      <point x="282" y="699"/>
      <point x="260" y="678"/>
      <point x="235" y="678" type="curve" smooth="yes"/>
      <point x="211" y="678"/>
      <point x="189" y="699"/>
      <point x="189" y="725" type="curve" smooth="yes"/>
      <point x="189" y="750"/>
      <point x="211" y="771"/>
      <point x="235" y="771" type="curve" smooth="yes"/>
    </contour>
  </outline>
</glyph>
<glyph name="AE" format="1">
  <advance width="725"/>
  <unicode hex="00C6"/>
  <outline>
    <contour>
      <point x="362" y="606" type="move" name="top"/>
    </contour>
    <contour>
      <point x="689" y="545" type="line"/>
      <point x="689" y="606" type="line"/>
      <point x="254" y="606" type="line"/>
      <point x="1" y="0" type="line"/>
      <point x="71" y="0" type="line"/>
      <point x="125" y="140" type="line"/>
      <point x="371" y="140" type="line"/>
      <point x="402" y="0" type="line"/>
      <point x="694" y="0" type="line"/>
      <point x="694" y="62" type="line"/>
      <point x="463" y="62" type="line"/>
      <point x="415" y="279" type="line"/>
      <point x="650" y="279" type="line"/>
      <point x="650" y="342" type="line"/>
      <point x="401" y="342" type="line"/>
      <point x="355" y="545" type="line"/>
    </contour>
    <contour>
      <point x="288" y="550" type="line"/>
      <point x="291" y="529"/>
      <point x="292" y="510"/>
      <point x="297" y="489" type="curve" smooth="yes"/>
      <point x="359" y="202" type="line"/>
      <point x="149" y="202" type="line"/>
      <point x="262" y="489" type="line" smooth="yes"/>
      <point x="271" y="510"/>
      <point x="277" y="529"/>
      <point x="283" y="550" type="curve"/>
    </contour>
  </outline>
</glyph>
<glyph name="Ccedilla" format="1">
  <advance width="523"/>
  <unicode hex="00C7"/>
  <outline>
    <contour>
      <point x="277" y="617" type="curve" smooth="yes"/>
      <point x="118" y="617"/>
      <point x="39" y="513"/>
      <point x="39" y="303" type="curve" smooth="yes"/>
      <point x="39" y="117"/>
      <point x="102" y="13"/>
      <point x="227" y="-7" type="curve"/>
      <point x="216" y="-68" type="line"/>
      <point x="246" y="-68" type="line" smooth="yes"/>
      <point x="269" y="-68"/>
      <point x="276" y="-75"/>
      <point x="276" y="-89" type="curve" smooth="yes"/>
      <point x="276" y="-106"/>
      <point x="263" y="-111"/>
      <point x="244" y="-111" type="curve" smooth="yes"/>
      <point x="176" y="-111" type="line"/>
      <point x="176" y="-154" type="line"/>
      <point x="197" y="-158"/>
      <point x="225" y="-161"/>
      <point x="250" y="-161" type="curve" smooth="yes"/>
      <point x="285" y="-161"/>
      <point x="341" y="-149"/>
      <point x="341" y="-89" type="curve" smooth="yes"/>
      <point x="341" y="-49"/>
      <point x="306" y="-35"/>
      <point x="268" y="-33" type="curve"/>
      <point x="271" y="-11" type="line"/>
      <point x="397" y="-14"/>
      <point x="485" y="57"/>
      <point x="485" y="215" type="curve"/>
      <point x="418" y="215" type="line"/>
      <point x="418" y="106"/>
      <point x="362" y="53"/>
      <point x="276" y="53" type="curve" smooth="yes"/>
      <point x="165" y="53"/>
      <point x="109" y="125"/>
      <point x="109" y="281" type="curve" smooth="yes"/>
      <point x="109" y="325" type="line" smooth="yes"/>
      <point x="109" y="481"/>
      <point x="165" y="552"/>
      <point x="277" y="552" type="curve" smooth="yes"/>
      <point x="361" y="552"/>
      <point x="417" y="498"/>
      <point x="417" y="389" type="curve"/>
      <point x="485" y="389" type="line"/>
      <point x="485" y="541"/>
      <point x="401" y="617"/>
    </contour>
  </outline>
</glyph>
<glyph name="Egrave" format="1">
  <advance width="484"/>
  <unicode hex="00C8"/>
  <outline>
    <contour>
      <point x="435" y="545" type="line"/>
      <point x="435" y="606" type="line"/>
      <point x="65" y="606" type="line"/>
      <point x="65" y="0" type="line"/>
      <point x="440" y="0" type="line"/>
      <point x="440" y="62" type="line"/>
      <point x="133" y="62" type="line"/>
      <point x="133" y="279" type="line"/>
      <point x="396" y="279" type="line"/>
      <point x="396" y="342" type="line"/>
      <point x="133" y="342" type="line"/>
      <point x="133" y="545" type="line"/>
    </contour>
    <contour>
      <point x="292" y="664" type="line"/>
      <point x="216" y="781" type="line"/>
      <point x="145" y="781" type="line"/>
      <point x="144" y="778" type="line"/>
      <point x="239" y="664" type="line"/>
    </contour>
  </outline>
</glyph>
<glyph name="Eacute" format="1">
  <advance width="484"/>
  <unicode hex="00C9"/>
  <outline>
    <contour>
      <point x="435" y="606" type="line"/>
      <point x="65" y="606" type="line"/>
      <point x="65" y="0" type="line"/>
      <point x="440" y="0" type="line"/>
      <point x="440" y="62" type="line"/>
      <point x="133" y="62" type="line"/>
      <point x="133" y="279" type="line"/>
      <point x="396" y="279" type="line"/>
      <point x="396" y="342" type="line"/>
      <point x="133" y="342" type="line"/>
      <point x="133" y="545" type="line"/>
      <point x="435" y="545" type="line"/>
    </contour>
    <contour>
      <point x="339" y="781" type="line"/>
      <point x="267" y="781" type="line"/>
      <point x="191" y="664" type="line"/>
      <point x="244" y="664" type="line"/>
      <point x="340" y="778" type="line"/>
    </contour>
  </outline>
</glyph>
<glyph name="Ecircumflex" format="1">
  <advance width="484"/>
  <unicode hex="00CA"/>
  <outline>
    <contour>
      <point x="350" y="660" type="line"/>
      <point x="275" y="780" type="line"/>
      <point x="211" y="780" type="line"/>
      <point x="135" y="660" type="line"/>
      <point x="202" y="660" type="line"/>
      <point x="242" y="732" type="line"/>
      <point x="281" y="660" type="line"/>
    </contour>
    <contour>
      <point x="65" y="0" type="line"/>
      <point x="440" y="0" type="line"/>
      <point x="440" y="62" type="line"/>
      <point x="133" y="62" type="line"/>
      <point x="133" y="279" type="line"/>
      <point x="396" y="279" type="line"/>
      <point x="396" y="342" type="line"/>
      <point x="133" y="342" type="line"/>
      <point x="133" y="545" type="line"/>
      <point x="435" y="545" type="line"/>
      <point x="435" y="606" type="line"/>
      <point x="65" y="606" type="line"/>
    </contour>
  </outline>
</glyph>
<glyph name="Edieresis" format="1">
  <advance width="484"/>
  <unicode hex="00CB"/>
  <outline>
    <contour>
      <point x="435" y="606" type="line"/>
      <point x="65" y="606" type="line"/>
      <point x="65" y="0" type="line"/>
      <point x="440" y="0" type="line"/>
      <point x="440" y="62" type="line"/>
      <point x="133" y="62" type="line"/>
      <point x="133" y="279" type="line"/>
      <point x="396" y="279" type="line"/>
      <point x="396" y="342" type="line"/>
      <point x="133" y="342" type="line"/>
      <point x="133" y="545" type="line"/>
      <point x="435" y="545" type="line"/>
    </contour>
    <contour>
      <point x="215" y="781" type="line"/>
      <point x="142" y="781" type="line"/>
      <point x="142" y="701" type="line"/>
      <point x="215" y="701" type="line"/>
    </contour>
    <contour>
      <point x="343" y="781" type="line"/>
      <point x="269" y="781" type="line"/>
      <point x="269" y="701" type="line"/>
      <point x="343" y="701" type="line"/>
    </contour>
  </outline>
</glyph>
<glyph name="Igrave" format="1">
  <advance width="202"/>
  <unicode hex="00CC"/>
  <outline>
    <contour>
      <point x="135" y="0" type="line"/>
      <point x="135" y="606" type="line"/>
      <point x="67" y="606" type="line"/>
      <point x="67" y="0" type="line"/>
    </contour>
    <contour>
      <point x="151" y="664" type="line"/>
      <point x="75" y="781" type="line"/>
      <point x="3" y="781" type="line"/>
      <point x="2" y="778" type="line"/>
      <point x="98" y="664" type="line"/>
    </contour>
  </outline>
</glyph>
<glyph name="Iacute" format="1">
  <advance width="202"/>
  <unicode hex="00CD"/>
  <outline>
    <contour>
      <point x="135" y="606" type="line"/>
      <point x="67" y="606" type="line"/>
      <point x="67" y="0" type="line"/>
      <point x="135" y="0" type="line"/>
    </contour>
    <contour>
      <point x="198" y="781" type="line"/>
      <point x="128" y="781" type="line"/>
      <point x="52" y="664" type="line"/>
      <point x="105" y="664" type="line"/>
      <point x="199" y="778" type="line"/>
    </contour>
  </outline>
</glyph>
<glyph name="Icircumflex" format="1">
  <advance width="202"/>
  <unicode hex="00CE"/>
  <outline>
    <contour>
      <point x="67" y="0" type="line"/>
      <point x="135" y="0" type="line"/>
      <point x="135" y="606" type="line"/>
      <point x="67" y="606" type="line"/>
    </contour>
    <contour>
      <point x="141" y="660" type="line"/>
      <point x="208" y="660" type="line"/>
      <point x="133" y="780" type="line"/>
      <point x="69" y="780" type="line"/>
      <point x="-8" y="660" type="line"/>
      <point x="62" y="660" type="line"/>
      <point x="102" y="732" type="line"/>
    </contour>
  </outline>
</glyph>
<glyph name="Idieresis" format="1">
  <advance width="202"/>
  <unicode hex="00CF"/>
  <outline>
    <contour>
      <point x="135" y="0" type="line"/>
      <point x="135" y="606" type="line"/>
      <point x="67" y="606" type="line"/>
      <point x="67" y="0" type="line"/>
    </contour>
    <contour>
      <point x="75" y="701" type="line"/>
      <point x="75" y="781" type="line"/>
      <point x="1" y="781" type="line"/>
      <point x="1" y="701" type="line"/>
    </contour>
    <contour>
      <point x="201" y="701" type="line"/>
      <point x="201" y="781" type="line"/>
      <point x="128" y="781" type="line"/>
      <point x="128" y="701" type="line"/>
    </contour>
  </outline>
</glyph>
<glyph name="Eth" format="1">
  <advance width="523"/>
  <unicode hex="00D0"/>
  <outline>
    <contour>
      <point x="3" y="339" type="line"/>
      <point x="3" y="289" type="line"/>
      <point x="65" y="289" type="line"/>
      <point x="65" y="0" type="line"/>
      <point x="250" y="0" type="line" smooth="yes"/>
      <point x="391" y="0"/>
      <point x="477" y="104"/>
      <point x="477" y="312" type="curve" smooth="yes"/>
      <point x="477" y="507"/>
      <point x="391" y="606"/>
      <point x="250" y="606" type="curve" smooth="yes"/>
      <point x="65" y="606" type="line"/>
      <point x="65" y="339" type="line"/>
    </contour>
    <contour>
      <point x="132" y="545" type="line"/>
      <point x="244" y="545" type="line" smooth="yes"/>
      <point x="343" y="545"/>
      <point x="405" y="475"/>
      <point x="405" y="334" type="curve" smooth="yes"/>
      <point x="405" y="290" type="line" smooth="yes"/>
      <point x="405" y="136"/>
      <point x="343" y="62"/>
      <point x="244" y="62" type="curve" smooth="yes"/>
      <point x="132" y="62" type="line"/>
      <point x="132" y="289" type="line"/>
      <point x="278" y="289" type="line"/>
      <point x="278" y="339" type="line"/>
      <point x="132" y="339" type="line"/>
    </contour>
  </outline>
</glyph>
<glyph name="Ntilde" format="1">
  <advance width="523"/>
  <unicode hex="00D1"/>
  <outline>
    <contour>
      <point x="461" y="606" type="line"/>
      <point x="392" y="606" type="line"/>
      <point x="392" y="225" type="line" smooth="yes"/>
      <point x="392" y="206"/>
      <point x="394" y="145"/>
      <point x="394" y="145" type="curve"/>
      <point x="392" y="144" type="line"/>
      <point x="392" y="144"/>
      <point x="368" y="202"/>
      <point x="354" y="225" type="curve" smooth="yes"/>
      <point x="129" y="606" type="line"/>
      <point x="62" y="606" type="line"/>
      <point x="62" y="0" type="line"/>
      <point x="132" y="0" type="line"/>
      <point x="132" y="386" type="line" smooth="yes"/>
      <point x="132" y="411"/>
      <point x="128" y="467"/>
      <point x="128" y="467" type="curve"/>
      <point x="131" y="468" type="line"/>
      <point x="131" y="468"/>
      <point x="155" y="412"/>
      <point x="170" y="386" type="curve" smooth="yes"/>
      <point x="397" y="0" type="line"/>
      <point x="461" y="0" type="line"/>
    </contour>
    <contour>
      <point x="339" y="781" type="line"/>
      <point x="337" y="760"/>
      <point x="325" y="754"/>
      <point x="309" y="754" type="curve" smooth="yes"/>
      <point x="275" y="754"/>
      <point x="246" y="781"/>
      <point x="208" y="781" type="curve" smooth="yes"/>
      <point x="155" y="781"/>
      <point x="133" y="729"/>
      <point x="133" y="689" type="curve"/>
      <point x="184" y="689" type="line"/>
      <point x="187" y="709"/>
      <point x="198" y="716"/>
      <point x="214" y="716" type="curve" smooth="yes"/>
      <point x="248" y="716"/>
      <point x="277" y="689"/>
      <point x="316" y="689" type="curve" smooth="yes"/>
      <point x="369" y="689"/>
      <point x="391" y="740"/>
      <point x="391" y="781" type="curve"/>
    </contour>
  </outline>
</glyph>
<glyph name="Oacute" format="1">
  <advance width="564"/>
  <unicode hex="00D3"/>
  <outline>
    <contour>
      <point x="282" y="617" type="curve" smooth="yes"/>
      <point x="135" y="617"/>
      <point x="47" y="513"/>
      <point x="47" y="303" type="curve" smooth="yes"/>
      <point x="47" y="94"/>
      <point x="135" y="-11"/>
      <point x="282" y="-11" type="curve" smooth="yes"/>
      <point x="429" y="-11"/>
      <point x="517" y="94"/>
      <point x="517" y="303" type="curve" smooth="yes"/>
      <point x="517" y="513"/>
      <point x="429" y="617"/>
    </contour>
    <contour>
      <point x="282" y="552" type="curve" smooth="yes"/>
      <point x="382" y="552"/>
      <point x="446" y="481"/>
      <point x="446" y="325" type="curve" smooth="yes"/>
      <point x="446" y="281" type="line" smooth="yes"/>
      <point x="446" y="125"/>
      <point x="382" y="53"/>
      <point x="282" y="53" type="curve" smooth="yes"/>
      <point x="183" y="53"/>
      <point x="119" y="125"/>
      <point x="119" y="281" type="curve" smooth="yes"/>
      <point x="119" y="325" type="line" smooth="yes"/>
      <point x="119" y="481"/>
      <point x="183" y="552"/>
    </contour>
    <contour>
      <point x="381" y="778" type="line"/>
      <point x="380" y="781" type="line"/>
      <point x="309" y="781" type="line"/>
      <point x="233" y="664" type="line"/>
      <point x="286" y="664" type="line"/>
    </contour>
  </outline>
</glyph>
<glyph name="Odieresis" format="1">
  <advance width="564"/>
  <unicode hex="00D6"/>
  <outline>
    <contour>
      <point x="282" y="617" type="curve" smooth="yes"/>
      <point x="135" y="617"/>
      <point x="47" y="513"/>
      <point x="47" y="303" type="curve" smooth="yes"/>
      <point x="47" y="94"/>
      <point x="135" y="-11"/>
      <point x="282" y="-11" type="curve" smooth="yes"/>
      <point x="429" y="-11"/>
      <point x="517" y="94"/>
      <point x="517" y="303" type="curve" smooth="yes"/>
      <point x="517" y="513"/>
      <point x="429" y="617"/>
    </contour>
    <contour>
      <point x="282" y="552" type="curve" smooth="yes"/>
      <point x="382" y="552"/>
      <point x="446" y="481"/>
      <point x="446" y="325" type="curve" smooth="yes"/>
      <point x="446" y="281" type="line" smooth="yes"/>
      <point x="446" y="125"/>
      <point x="382" y="53"/>
      <point x="282" y="53" type="curve" smooth="yes"/>
      <point x="183" y="53"/>
      <point x="119" y="125"/>
      <point x="119" y="281" type="curve" smooth="yes"/>
      <point x="119" y="325" type="line" smooth="yes"/>
      <point x="119" y="481"/>
      <point x="183" y="552"/>
    </contour>
    <contour>
      <point x="257" y="701" type="line"/>
      <point x="257" y="781" type="line"/>
      <point x="183" y="781" type="line"/>
      <point x="183" y="701" type="line"/>
    </contour>
    <contour>
      <point x="382" y="701" type="line"/>
      <point x="382" y="781" type="line"/>
      <point x="308" y="781" type="line"/>
      <point x="308" y="701" type="line"/>
    </contour>
  </outline>
</glyph>
<glyph name="multiply" format="1">
  <advance width="423"/>
  <unicode hex="00D7"/>
  <outline>
    <contour>
      <point x="399" y="361" type="line"/>
      <point x="356" y="410" type="line"/>
      <point x="218" y="274" type="line"/>
      <point x="80" y="410" type="line"/>
      <point x="36" y="361" type="line"/>
      <point x="173" y="225" type="line"/>
      <point x="36" y="90" type="line"/>
      <point x="80" y="42" type="line"/>
      <point x="218" y="174" type="line"/>
      <point x="356" y="42" type="line"/>
      <point x="399" y="90" type="line"/>
      <point x="263" y="225" type="line"/>
    </contour>
  </outline>
</glyph>
<glyph name="Oslash" format="1">
  <advance width="564"/>
  <unicode hex="00D8"/>
  <outline>
    <contour>
      <point x="282" y="606" type="move" name="top"/>
    </contour>
    <contour>
      <point x="521" y="639" type="line"/>
      <point x="464" y="639" type="line"/>
      <point x="423" y="573" type="line"/>
      <point x="385" y="602"/>
      <point x="338" y="617"/>
      <point x="282" y="617" type="curve" smooth="yes"/>
      <point x="133" y="617"/>
      <point x="43" y="514"/>
      <point x="43" y="303" type="curve" smooth="yes"/>
      <point x="43" y="198"/>
      <point x="65" y="119"/>
      <point x="107" y="67" type="curve"/>
      <point x="44" y="-33" type="line"/>
      <point x="101" y="-33" type="line"/>
      <point x="141" y="33" type="line"/>
      <point x="179" y="4"/>
      <point x="226" y="-11"/>
      <point x="282" y="-11" type="curve" smooth="yes"/>
      <point x="431" y="-11"/>
      <point x="521" y="93"/>
      <point x="521" y="303" type="curve" smooth="yes"/>
      <point x="521" y="408"/>
      <point x="498" y="486"/>
      <point x="457" y="538" type="curve"/>
    </contour>
    <contour>
      <point x="152" y="140" type="line"/>
      <point x="134" y="175"/>
      <point x="125" y="222"/>
      <point x="125" y="281" type="curve" smooth="yes"/>
      <point x="125" y="325" type="line" smooth="yes"/>
      <point x="125" y="473"/>
      <point x="185" y="545"/>
      <point x="282" y="545" type="curve" smooth="yes"/>
      <point x="322" y="545"/>
      <point x="355" y="533"/>
      <point x="382" y="507" type="curve"/>
    </contour>
    <contour>
      <point x="412" y="466" type="line"/>
      <point x="430" y="431"/>
      <point x="439" y="384"/>
      <point x="439" y="325" type="curve" smooth="yes"/>
      <point x="439" y="281" type="line" smooth="yes"/>
      <point x="439" y="133"/>
      <point x="379" y="61"/>
      <point x="282" y="61" type="curve" smooth="yes"/>
      <point x="241" y="61"/>
      <point x="208" y="73"/>
      <point x="182" y="98" type="curve"/>
    </contour>
  </outline>
</glyph>
<glyph name="Ugrave" format="1">
  <advance width="523"/>
  <unicode hex="00D9"/>
  <outline>
    <contour>
      <point x="458" y="606" type="line"/>
      <point x="392" y="606" type="line"/>
      <point x="392" y="193" type="line" smooth="yes"/>
      <point x="392" y="102"/>
      <point x="342" y="53"/>
      <point x="262" y="53" type="curve" smooth="yes"/>
      <point x="181" y="53"/>
      <point x="132" y="102"/>
      <point x="132" y="193" type="curve" smooth="yes"/>
      <point x="132" y="606" type="line"/>
      <point x="64" y="606" type="line"/>
      <point x="64" y="199" type="line" smooth="yes"/>
      <point x="64" y="62"/>
      <point x="138" y="-11"/>
      <point x="262" y="-11" type="curve" smooth="yes"/>
      <point x="384" y="-11"/>
      <point x="458" y="62"/>
      <point x="458" y="199" type="curve" smooth="yes"/>
    </contour>
    <contour>
      <point x="311" y="664" type="line"/>
      <point x="237" y="781" type="line"/>
      <point x="163" y="781" type="line"/>
      <point x="162" y="778" type="line"/>
      <point x="260" y="664" type="line"/>
    </contour>
  </outline>
</glyph>
<glyph name="Uacute" format="1">
  <advance width="523"/>
  <unicode hex="00DA"/>
  <outline>
    <contour>
      <point x="458" y="606" type="line"/>
      <point x="392" y="606" type="line"/>
      <point x="392" y="193" type="line" smooth="yes"/>
      <point x="392" y="102"/>
      <point x="342" y="53"/>
      <point x="262" y="53" type="curve" smooth="yes"/>
      <point x="181" y="53"/>
      <point x="132" y="102"/>
      <point x="132" y="193" type="curve" smooth="yes"/>
      <point x="132" y="606" type="line"/>
      <point x="64" y="606" type="line"/>
      <point x="64" y="199" type="line" smooth="yes"/>
      <point x="64" y="62"/>
      <point x="138" y="-11"/>
      <point x="262" y="-11" type="curve" smooth="yes"/>
      <point x="384" y="-11"/>
      <point x="458" y="62"/>
      <point x="458" y="199" type="curve" smooth="yes"/>
    </contour>
    <contour>
      <point x="359" y="778" type="line"/>
      <point x="358" y="781" type="line"/>
      <point x="287" y="781" type="line"/>
      <point x="211" y="664" type="line"/>
      <point x="266" y="664" type="line"/>
    </contour>
  </outline>
</glyph>
<glyph name="Ucircumflex" format="1">
  <advance width="523"/>
  <unicode hex="00DB"/>
  <outline>
    <contour>
      <point x="458" y="606" type="line"/>
      <point x="392" y="606" type="line"/>
      <point x="392" y="193" type="line" smooth="yes"/>
      <point x="392" y="102"/>
      <point x="342" y="53"/>
      <point x="262" y="53" type="curve" smooth="yes"/>
      <point x="181" y="53"/>
      <point x="132" y="102"/>
      <point x="132" y="193" type="curve" smooth="yes"/>
      <point x="132" y="606" type="line"/>
      <point x="64" y="606" type="line"/>
      <point x="64" y="199" type="line" smooth="yes"/>
      <point x="64" y="62"/>
      <point x="138" y="-11"/>
      <point x="262" y="-11" type="curve" smooth="yes"/>
      <point x="384" y="-11"/>
      <point x="458" y="62"/>
      <point x="458" y="199" type="curve" smooth="yes"/>
    </contour>
    <contour>
      <point x="293" y="780" type="line"/>
      <point x="229" y="780" type="line"/>
      <point x="153" y="660" type="line"/>
      <point x="222" y="660" type="line"/>
      <point x="263" y="732" type="line"/>
      <point x="301" y="660" type="line"/>
      <point x="369" y="660" type="line"/>
    </contour>
  </outline>
</glyph>
<glyph name="Udieresis" format="1">
  <advance width="523"/>
  <unicode hex="00DC"/>
  <outline>
    <contour>
      <point x="458" y="606" type="line"/>
      <point x="392" y="606" type="line"/>
      <point x="392" y="193" type="line" smooth="yes"/>
      <point x="392" y="102"/>
      <point x="342" y="53"/>
      <point x="262" y="53" type="curve" smooth="yes"/>
      <point x="181" y="53"/>
      <point x="132" y="102"/>
      <point x="132" y="193" type="curve" smooth="yes"/>
      <point x="132" y="606" type="line"/>
      <point x="64" y="606" type="line"/>
      <point x="64" y="199" type="line" smooth="yes"/>
      <point x="64" y="62"/>
      <point x="138" y="-11"/>
      <point x="262" y="-11" type="curve" smooth="yes"/>
      <point x="384" y="-11"/>
      <point x="458" y="62"/>
      <point x="458" y="199" type="curve" smooth="yes"/>
    </contour>
    <contour>
      <point x="234" y="781" type="line"/>
      <point x="160" y="781" type="line"/>
      <point x="160" y="701" type="line"/>
      <point x="234" y="701" type="line"/>
    </contour>
    <contour>
      <point x="362" y="781" type="line"/>
      <point x="288" y="781" type="line"/>
      <point x="288" y="701" type="line"/>
      <point x="362" y="701" type="line"/>
    </contour>
  </outline>
</glyph>
<glyph name="Yacute" format="1">
  <advance width="484"/>
  <unicode hex="00DD"/>
  <outline>
    <contour>
      <point x="474" y="606" type="line"/>
      <point x="410" y="606" type="line"/>
      <point x="251" y="321" type="line"/>
      <point x="248" y="321" type="line"/>
      <point x="85" y="606" type="line"/>
      <point x="9" y="606" type="line"/>
      <point x="208" y="257" type="line"/>
      <point x="208" y="0" type="line"/>
      <point x="276" y="0" type="line"/>
      <point x="276" y="257" type="line"/>
    </contour>
    <contour>
      <point x="339" y="781" type="line"/>
      <point x="267" y="781" type="line"/>
      <point x="191" y="664" type="line"/>
      <point x="244" y="664" type="line"/>
      <point x="340" y="778" type="line"/>
    </contour>
  </outline>
</glyph>
<glyph name="Thorn" format="1">
  <advance width="484"/>
  <unicode hex="00DE"/>
  <outline>
    <contour>
      <point x="140" y="606" type="line"/>
      <point x="62" y="606" type="line"/>
      <point x="62" y="0" type="line"/>
      <point x="140" y="0" type="line"/>
      <point x="140" y="130" type="line"/>
      <point x="278" y="130" type="line" smooth="yes"/>
      <point x="391" y="130"/>
      <point x="460" y="202"/>
      <point x="460" y="309" type="curve" smooth="yes"/>
      <point x="460" y="415"/>
      <point x="398" y="486"/>
      <point x="278" y="486" type="curve" smooth="yes"/>
      <point x="140" y="486" type="line"/>
    </contour>
    <contour>
      <point x="276" y="415" type="line"/>
      <point x="342" y="415"/>
      <point x="378" y="375"/>
      <point x="378" y="309" type="curve" smooth="yes"/>
      <point x="378" y="244"/>
      <point x="338" y="201"/>
      <point x="276" y="201" type="curve" smooth="yes"/>
      <point x="140" y="201" type="line"/>
      <point x="140" y="415" type="line"/>
    </contour>
  </outline>
</glyph>
<glyph name="germandbls" format="1">
  <advance width="443"/>
  <unicode hex="00DF"/>
  <outline>
    <contour>
      <point x="225" y="650" type="curve" smooth="yes"/>
      <point x="126" y="650"/>
      <point x="47" y="594"/>
      <point x="47" y="455" type="curve" smooth="yes"/>
      <point x="47" y="0" type="line"/>
      <point x="110" y="0" type="line"/>
      <point x="110" y="455" type="line" smooth="yes"/>
      <point x="110" y="546"/>
      <point x="153" y="592"/>
      <point x="220" y="592" type="curve" smooth="yes"/>
      <point x="288" y="592"/>
      <point x="323" y="549"/>
      <point x="323" y="482" type="curve" smooth="yes"/>
      <point x="323" y="421"/>
      <point x="275" y="370"/>
      <point x="216" y="370" type="curve" smooth="yes"/>
      <point x="161" y="370" type="line"/>
      <point x="161" y="316" type="line"/>
      <point x="224" y="316" type="line" smooth="yes"/>
      <point x="290" y="316"/>
      <point x="342" y="259"/>
      <point x="342" y="190" type="curve" smooth="yes"/>
      <point x="342" y="117"/>
      <point x="290" y="58"/>
      <point x="224" y="58" type="curve" smooth="yes"/>
      <point x="161" y="58" type="line"/>
      <point x="161" y="0" type="line"/>
      <point x="230" y="0" type="line" smooth="yes"/>
      <point x="329" y="0"/>
      <point x="407" y="75"/>
      <point x="407" y="189" type="curve" smooth="yes"/>
      <point x="407" y="257"/>
      <point x="365" y="324"/>
      <point x="305" y="346" type="curve"/>
      <point x="305" y="349" type="line"/>
      <point x="354" y="369"/>
      <point x="389" y="426"/>
      <point x="389" y="484" type="curve" smooth="yes"/>
      <point x="389" y="588"/>
      <point x="319" y="650"/>
    </contour>
  </outline>
</glyph>
<glyph name="agrave" format="1">
  <advance width="403"/>
  <unicode hex="00E0"/>
  <outline>
    <contour>
      <point x="110" y="476"/>
      <point x="48" y="431"/>
      <point x="48" y="347" type="curve" smooth="yes"/>
      <point x="48" y="339"/>
      <point x="48" y="332"/>
      <point x="49" y="327" type="curve"/>
      <point x="120" y="327" type="line"/>
      <point x="120" y="338" type="line" smooth="yes"/>
      <point x="120" y="373"/>
      <point x="137" y="411"/>
      <point x="192" y="411" type="curve" smooth="yes"/>
      <point x="251" y="411"/>
      <point x="265" y="380"/>
      <point x="265" y="336" type="curve" smooth="yes"/>
      <point x="265" y="276" type="line"/>
      <point x="130" y="276"/>
      <point x="30" y="248"/>
      <point x="30" y="120" type="curve" smooth="yes"/>
      <point x="30" y="8"/>
      <point x="106" y="-11"/>
      <point x="152" y="-11" type="curve" smooth="yes"/>
      <point x="201" y="-11"/>
      <point x="241" y="12"/>
      <point x="265" y="50" type="curve"/>
      <point x="270" y="50" type="line"/>
      <point x="278" y="16"/>
      <point x="305" y="-7"/>
      <point x="343" y="-7" type="curve" smooth="yes"/>
      <point x="366" y="-7"/>
      <point x="383" y="-1"/>
      <point x="391" y="4" type="curve"/>
      <point x="391" y="54" type="line"/>
      <point x="362" y="54" type="line" smooth="yes"/>
      <point x="350" y="54"/>
      <point x="338" y="63"/>
      <point x="338" y="85" type="curve" smooth="yes"/>
      <point x="338" y="346" type="line" smooth="yes"/>
      <point x="338" y="428"/>
      <point x="291" y="476"/>
      <point x="197" y="476" type="curve" smooth="yes"/>
    </contour>
    <contour>
      <point x="265" y="169" type="line"/>
      <point x="265" y="92"/>
      <point x="215" y="54"/>
      <point x="169" y="54" type="curve" smooth="yes"/>
      <point x="128" y="54"/>
      <point x="106" y="72"/>
      <point x="106" y="125" type="curve" smooth="yes"/>
      <point x="106" y="197"/>
      <point x="171" y="211"/>
      <point x="265" y="211" type="curve"/>
    </contour>
    <contour>
      <point x="174" y="639" type="line"/>
      <point x="95" y="639" type="line"/>
      <point x="94" y="636" type="line"/>
      <point x="189" y="522" type="line"/>
      <point x="250" y="522" type="line"/>
    </contour>
  </outline>
</glyph>
<glyph name="acircumflex" format="1">
  <advance width="403"/>
  <unicode hex="00E2"/>
  <outline>
    <contour>
      <point x="198" y="476" type="curve" smooth="yes"/>
      <point x="114" y="476"/>
      <point x="52" y="433"/>
      <point x="52" y="347" type="curve" smooth="yes"/>
      <point x="52" y="339"/>
      <point x="52" y="332"/>
      <point x="53" y="327" type="curve"/>
      <point x="114" y="327" type="line"/>
      <point x="114" y="337" type="line" smooth="yes"/>
      <point x="114" y="376"/>
      <point x="133" y="417"/>
      <point x="191" y="417" type="curve" smooth="yes"/>
      <point x="255" y="417"/>
      <point x="271" y="385"/>
      <point x="271" y="337" type="curve" smooth="yes"/>
      <point x="271" y="274" type="line"/>
      <point x="136" y="274"/>
      <point x="35" y="249"/>
      <point x="35" y="120" type="curve" smooth="yes"/>
      <point x="35" y="7"/>
      <point x="112" y="-11"/>
      <point x="158" y="-11" type="curve" smooth="yes"/>
      <point x="204" y="-11"/>
      <point x="247" y="12"/>
      <point x="270" y="50" type="curve"/>
      <point x="275" y="50" type="line"/>
      <point x="282" y="17"/>
      <point x="309" y="-6"/>
      <point x="346" y="-6" type="curve" smooth="yes"/>
      <point x="366" y="-6"/>
      <point x="382" y="0"/>
      <point x="389" y="4" type="curve"/>
      <point x="389" y="47" type="line"/>
      <point x="358" y="47" type="line" smooth="yes"/>
      <point x="346" y="47"/>
      <point x="334" y="56"/>
      <point x="334" y="78" type="curve" smooth="yes"/>
      <point x="334" y="348" type="line" smooth="yes"/>
      <point x="334" y="429"/>
      <point x="288" y="476"/>
    </contour>
    <contour>
      <point x="272" y="166" type="line"/>
      <point x="272" y="82"/>
      <point x="213" y="47"/>
      <point x="168" y="47" type="curve" smooth="yes"/>
      <point x="126" y="47"/>
      <point x="102" y="64"/>
      <point x="102" y="124" type="curve" smooth="yes"/>
      <point x="102" y="199"/>
      <point x="168" y="212"/>
      <point x="272" y="212" type="curve"/>
    </contour>
    <contour>
      <point x="244" y="519" type="line"/>
      <point x="313" y="519" type="line"/>
      <point x="238" y="638" type="line"/>
      <point x="173" y="638" type="line"/>
      <point x="98" y="519" type="line"/>
      <point x="167" y="519" type="line"/>
      <point x="205" y="591" type="line"/>
    </contour>
  </outline>
</glyph>
<glyph name="atilde" format="1">
  <advance width="403"/>
  <unicode hex="00E3"/>
  <outline>
    <contour>
      <point x="110" y="476"/>
      <point x="48" y="431"/>
      <point x="48" y="347" type="curve" smooth="yes"/>
      <point x="48" y="339"/>
      <point x="48" y="332"/>
      <point x="49" y="327" type="curve"/>
      <point x="120" y="327" type="line"/>
      <point x="120" y="338" type="line" smooth="yes"/>
      <point x="120" y="373"/>
      <point x="137" y="411"/>
      <point x="192" y="411" type="curve" smooth="yes"/>
      <point x="251" y="411"/>
      <point x="265" y="380"/>
      <point x="265" y="336" type="curve" smooth="yes"/>
      <point x="265" y="276" type="line"/>
      <point x="130" y="276"/>
      <point x="30" y="248"/>
      <point x="30" y="120" type="curve" smooth="yes"/>
      <point x="30" y="8"/>
      <point x="106" y="-11"/>
      <point x="152" y="-11" type="curve" smooth="yes"/>
      <point x="201" y="-11"/>
      <point x="241" y="12"/>
      <point x="265" y="50" type="curve"/>
      <point x="270" y="50" type="line"/>
      <point x="278" y="16"/>
      <point x="305" y="-7"/>
      <point x="343" y="-7" type="curve" smooth="yes"/>
      <point x="366" y="-7"/>
      <point x="383" y="-1"/>
      <point x="391" y="4" type="curve"/>
      <point x="391" y="54" type="line"/>
      <point x="362" y="54" type="line" smooth="yes"/>
      <point x="350" y="54"/>
      <point x="338" y="63"/>
      <point x="338" y="85" type="curve" smooth="yes"/>
      <point x="338" y="346" type="line" smooth="yes"/>
      <point x="338" y="428"/>
      <point x="291" y="476"/>
      <point x="197" y="476" type="curve" smooth="yes"/>
    </contour>
    <contour>
      <point x="265" y="169" type="line"/>
      <point x="265" y="92"/>
      <point x="215" y="54"/>
      <point x="169" y="54" type="curve" smooth="yes"/>
      <point x="128" y="54"/>
      <point x="106" y="72"/>
      <point x="106" y="125" type="curve" smooth="yes"/>
      <point x="106" y="197"/>
      <point x="171" y="211"/>
      <point x="265" y="211" type="curve"/>
    </contour>
    <contour>
      <point x="279" y="639" type="line"/>
      <point x="277" y="619"/>
      <point x="265" y="612"/>
      <point x="249" y="612" type="curve" smooth="yes"/>
      <point x="215" y="612"/>
      <point x="186" y="639"/>
      <point x="148" y="639" type="curve" smooth="yes"/>
      <point x="95" y="639"/>
      <point x="72" y="588"/>
      <point x="72" y="547" type="curve"/>
      <point x="124" y="547" type="line"/>
      <point x="126" y="568"/>
      <point x="138" y="575"/>
      <point x="154" y="575" type="curve" smooth="yes"/>
      <point x="188" y="575"/>
      <point x="217" y="547"/>
      <point x="255" y="547" type="curve" smooth="yes"/>
      <point x="309" y="547"/>
      <point x="331" y="598"/>
      <point x="331" y="639" type="curve"/>
    </contour>
  </outline>
</glyph>
<glyph name="aring" format="1">
  <advance width="403"/>
  <unicode hex="00E5"/>
  <outline>
    <contour>
      <point x="114" y="476"/>
      <point x="52" y="433"/>
      <point x="52" y="347" type="curve" smooth="yes"/>
      <point x="52" y="339"/>
      <point x="52" y="332"/>
      <point x="53" y="327" type="curve"/>
      <point x="114" y="327" type="line"/>
      <point x="114" y="337" type="line" smooth="yes"/>
      <point x="114" y="376"/>
      <point x="133" y="417"/>
      <point x="191" y="417" type="curve" smooth="yes"/>
      <point x="255" y="417"/>
      <point x="271" y="385"/>
      <point x="271" y="337" type="curve" smooth="yes"/>
      <point x="271" y="274" type="line"/>
      <point x="136" y="274"/>
      <point x="35" y="249"/>
      <point x="35" y="120" type="curve" smooth="yes"/>
      <point x="35" y="7"/>
      <point x="112" y="-11"/>
      <point x="158" y="-11" type="curve" smooth="yes"/>
      <point x="204" y="-11"/>
      <point x="247" y="12"/>
      <point x="270" y="50" type="curve"/>
      <point x="275" y="50" type="line"/>
      <point x="282" y="17"/>
      <point x="309" y="-6"/>
      <point x="346" y="-6" type="curve" smooth="yes"/>
      <point x="366" y="-6"/>
      <point x="382" y="-0"/>
      <point x="389" y="4" type="curve"/>
      <point x="389" y="47" type="line"/>
      <point x="358" y="47" type="line" smooth="yes"/>
      <point x="346" y="47"/>
      <point x="334" y="56"/>
      <point x="334" y="78" type="curve" smooth="yes"/>
      <point x="334" y="348" type="line" smooth="yes"/>
      <point x="334" y="429"/>
      <point x="288" y="476"/>
      <point x="198" y="476" type="curve" smooth="yes"/>
    </contour>
    <contour>
      <point x="272" y="166" type="line"/>
      <point x="272" y="82"/>
      <point x="213" y="47"/>
      <point x="168" y="47" type="curve" smooth="yes"/>
      <point x="126" y="47"/>
      <point x="102" y="64"/>
      <point x="102" y="124" type="curve" smooth="yes"/>
      <point x="102" y="199"/>
      <point x="168" y="212"/>
      <point x="272" y="212" type="curve"/>
    </contour>
    <contour>
      <point x="158" y="667"/>
      <point x="120" y="629"/>
      <point x="120" y="584" type="curve" smooth="yes"/>
      <point x="120" y="534"/>
      <point x="159" y="497"/>
      <point x="205" y="497" type="curve" smooth="yes"/>
      <point x="251" y="497"/>
      <point x="289" y="535"/>
      <point x="289" y="584" type="curve" smooth="yes"/>
      <point x="289" y="628"/>
      <point x="252" y="667"/>
      <point x="205" y="667" type="curve" smooth="yes"/>
    </contour>
    <contour>
      <point x="228" y="629"/>
      <point x="251" y="608"/>
      <point x="251" y="584" type="curve" smooth="yes"/>
      <point x="251" y="558"/>
      <point x="228" y="536"/>
      <point x="204" y="536" type="curve" smooth="yes"/>
      <point x="179" y="536"/>
      <point x="157" y="558"/>
      <point x="157" y="584" type="curve" smooth="yes"/>
      <point x="157" y="608"/>
      <point x="179" y="629"/>
      <point x="204" y="629" type="curve" smooth="yes"/>
    </contour>
  </outline>
</glyph>
<glyph name="ae" format="1">
  <advance width="644"/>
  <unicode hex="00E6"/>
  <outline>
    <contour>
      <point x="391" y="476"/>
      <point x="349" y="458"/>
      <point x="320" y="421" type="curve"/>
      <point x="299" y="456"/>
      <point x="258" y="476"/>
      <point x="199" y="476" type="curve" smooth="yes"/>
      <point x="115" y="476"/>
      <point x="53" y="433"/>
      <point x="53" y="347" type="curve" smooth="yes"/>
      <point x="53" y="339"/>
      <point x="53" y="332"/>
      <point x="54" y="327" type="curve"/>
      <point x="117" y="327" type="line"/>
      <point x="117" y="337" type="line" smooth="yes"/>
      <point x="117" y="376"/>
      <point x="134" y="417"/>
      <point x="192" y="417" type="curve" smooth="yes"/>
      <point x="257" y="417"/>
      <point x="274" y="385"/>
      <point x="274" y="337" type="curve" smooth="yes"/>
      <point x="274" y="274" type="line"/>
      <point x="137" y="274"/>
      <point x="36" y="249"/>
      <point x="36" y="120" type="curve" smooth="yes"/>
      <point x="36" y="7"/>
      <point x="112" y="-11"/>
      <point x="173" y="-11" type="curve" smooth="yes"/>
      <point x="223" y="-11"/>
      <point x="272" y="18"/>
      <point x="305" y="62" type="curve"/>
      <point x="334" y="11"/>
      <point x="382" y="-11"/>
      <point x="446" y="-11" type="curve" smooth="yes"/>
      <point x="537" y="-11"/>
      <point x="595" y="57"/>
      <point x="595" y="156" type="curve"/>
      <point x="534" y="156" type="line"/>
      <point x="534" y="90"/>
      <point x="498" y="48"/>
      <point x="449" y="48" type="curve" smooth="yes"/>
      <point x="375" y="48"/>
      <point x="339" y="97"/>
      <point x="339" y="212" type="curve"/>
      <point x="595" y="212" type="line"/>
      <point x="595" y="264" type="line" smooth="yes"/>
      <point x="595" y="417"/>
      <point x="545" y="476"/>
      <point x="448" y="476" type="curve" smooth="yes"/>
    </contour>
    <contour>
      <point x="273" y="157" type="line"/>
      <point x="273" y="78"/>
      <point x="213" y="47"/>
      <point x="168" y="47" type="curve" smooth="yes"/>
      <point x="126" y="47"/>
      <point x="102" y="64"/>
      <point x="102" y="124" type="curve" smooth="yes"/>
      <point x="102" y="199"/>
      <point x="168" y="212"/>
      <point x="273" y="212" type="curve"/>
    </contour>
    <contour>
      <point x="501" y="417"/>
      <point x="529" y="368"/>
      <point x="529" y="274" type="curve"/>
      <point x="339" y="274" type="line"/>
      <point x="347" y="369"/>
      <point x="377" y="417"/>
      <point x="447" y="417" type="curve" smooth="yes"/>
    </contour>
    <contour>
      <point x="323" y="465" type="move" name="top"/>
    </contour>
  </outline>
</glyph>
<glyph name="ccedilla" format="1">
  <advance width="350"/>
  <unicode hex="00E7"/>
  <outline>
    <contour>
      <point x="186" y="476" type="curve" smooth="yes"/>
      <point x="79" y="476"/>
      <point x="31" y="400"/>
      <point x="31" y="232" type="curve" smooth="yes"/>
      <point x="31" y="90"/>
      <point x="65" y="14"/>
      <point x="141" y="-4" type="curve"/>
      <point x="130" y="-68" type="line"/>
      <point x="159" y="-68" type="line" smooth="yes"/>
      <point x="182" y="-68"/>
      <point x="189" y="-75"/>
      <point x="189" y="-89" type="curve" smooth="yes"/>
      <point x="189" y="-106"/>
      <point x="178" y="-111"/>
      <point x="157" y="-111" type="curve" smooth="yes"/>
      <point x="89" y="-111" type="line"/>
      <point x="89" y="-154" type="line"/>
      <point x="110" y="-158"/>
      <point x="139" y="-161"/>
      <point x="163" y="-161" type="curve" smooth="yes"/>
      <point x="200" y="-161"/>
      <point x="254" y="-149"/>
      <point x="254" y="-89" type="curve" smooth="yes"/>
      <point x="254" y="-49"/>
      <point x="220" y="-35"/>
      <point x="182" y="-33" type="curve"/>
      <point x="184" y="-11" type="line"/>
      <point x="287" y="-10"/>
      <point x="322" y="84"/>
      <point x="322" y="171" type="curve"/>
      <point x="261" y="171" type="line"/>
      <point x="261" y="90"/>
      <point x="241" y="47"/>
      <point x="185" y="47" type="curve" smooth="yes"/>
      <point x="124" y="47"/>
      <point x="97" y="104"/>
      <point x="97" y="216" type="curve" smooth="yes"/>
      <point x="97" y="249" type="line" smooth="yes"/>
      <point x="97" y="361"/>
      <point x="124" y="418"/>
      <point x="186" y="418" type="curve" smooth="yes"/>
      <point x="243" y="418"/>
      <point x="257" y="378"/>
      <point x="257" y="294" type="curve"/>
      <point x="322" y="294" type="line"/>
      <point x="322" y="408"/>
      <point x="287" y="476"/>
    </contour>
  </outline>
</glyph>
<glyph name="egrave" format="1">
  <advance width="403"/>
  <unicode hex="00E8"/>
  <outline>
    <contour>
      <point x="96" y="476"/>
      <point x="40" y="400"/>
      <point x="40" y="232" type="curve" smooth="yes"/>
      <point x="40" y="59"/>
      <point x="99" y="-11"/>
      <point x="214" y="-11" type="curve" smooth="yes"/>
      <point x="303" y="-11"/>
      <point x="362" y="57"/>
      <point x="362" y="156" type="curve"/>
      <point x="300" y="156" type="line"/>
      <point x="300" y="90"/>
      <point x="265" y="48"/>
      <point x="217" y="48" type="curve" smooth="yes"/>
      <point x="143" y="48"/>
      <point x="107" y="97"/>
      <point x="106" y="212" type="curve"/>
      <point x="362" y="212" type="line"/>
      <point x="362" y="264" type="line" smooth="yes"/>
      <point x="362" y="417"/>
      <point x="313" y="476"/>
      <point x="214" y="476" type="curve" smooth="yes"/>
    </contour>
    <contour>
      <point x="269" y="417"/>
      <point x="297" y="368"/>
      <point x="297" y="274" type="curve"/>
      <point x="107" y="274" type="line"/>
      <point x="114" y="369"/>
      <point x="145" y="417"/>
      <point x="214" y="417" type="curve" smooth="yes"/>
    </contour>
    <contour>
      <point x="188" y="639" type="line"/>
      <point x="117" y="639" type="line"/>
      <point x="116" y="636" type="line"/>
      <point x="211" y="522" type="line"/>
      <point x="264" y="522" type="line"/>
    </contour>
  </outline>
</glyph>
<glyph name="eacute" format="1">
  <advance width="403"/>
  <unicode hex="00E9"/>
  <outline>
    <contour>
      <point x="95" y="476"/>
      <point x="37" y="400"/>
      <point x="37" y="232" type="curve" smooth="yes"/>
      <point x="37" y="60"/>
      <point x="97" y="-11"/>
      <point x="213" y="-11" type="curve" smooth="yes"/>
      <point x="303" y="-11"/>
      <point x="365" y="54"/>
      <point x="365" y="158" type="curve"/>
      <point x="293" y="158" type="line"/>
      <point x="293" y="94"/>
      <point x="261" y="54"/>
      <point x="215" y="54" type="curve" smooth="yes"/>
      <point x="146" y="54"/>
      <point x="114" y="103"/>
      <point x="113" y="211" type="curve"/>
      <point x="365" y="211" type="line"/>
      <point x="365" y="257" type="line" smooth="yes"/>
      <point x="365" y="413"/>
      <point x="314" y="476"/>
      <point x="212" y="476" type="curve" smooth="yes"/>
    </contour>
    <contour>
      <point x="263" y="411"/>
      <point x="289" y="364"/>
      <point x="289" y="276" type="curve"/>
      <point x="114" y="276" type="line"/>
      <point x="120" y="365"/>
      <point x="148" y="411"/>
      <point x="212" y="411" type="curve" smooth="yes"/>
    </contour>
    <contour>
      <point x="315" y="639" type="line"/>
      <point x="235" y="639" type="line"/>
      <point x="159" y="522" type="line"/>
      <point x="221" y="522" type="line"/>
      <point x="316" y="636" type="line"/>
    </contour>
  </outline>
</glyph>
<glyph name="edieresis" format="1">
  <advance width="403"/>
  <unicode hex="00EB"/>
  <outline>
    <contour>
      <point x="96" y="476"/>
      <point x="40" y="400"/>
      <point x="40" y="232" type="curve" smooth="yes"/>
      <point x="40" y="59"/>
      <point x="99" y="-11"/>
      <point x="214" y="-11" type="curve" smooth="yes"/>
      <point x="303" y="-11"/>
      <point x="362" y="57"/>
      <point x="362" y="156" type="curve"/>
      <point x="300" y="156" type="line"/>
      <point x="300" y="90"/>
      <point x="265" y="48"/>
      <point x="217" y="48" type="curve" smooth="yes"/>
      <point x="143" y="48"/>
      <point x="107" y="97"/>
      <point x="106" y="212" type="curve"/>
      <point x="362" y="212" type="line"/>
      <point x="362" y="264" type="line" smooth="yes"/>
      <point x="362" y="417"/>
      <point x="313" y="476"/>
      <point x="214" y="476" type="curve" smooth="yes"/>
    </contour>
    <contour>
      <point x="269" y="417"/>
      <point x="297" y="368"/>
      <point x="297" y="274" type="curve"/>
      <point x="107" y="274" type="line"/>
      <point x="114" y="369"/>
      <point x="145" y="417"/>
      <point x="214" y="417" type="curve" smooth="yes"/>
    </contour>
    <contour>
      <point x="174" y="639" type="line"/>
      <point x="101" y="639" type="line"/>
      <point x="101" y="559" type="line"/>
      <point x="174" y="559" type="line"/>
    </contour>
    <contour>
      <point x="302" y="639" type="line"/>
      <point x="227" y="639" type="line"/>
      <point x="227" y="559" type="line"/>
      <point x="302" y="559" type="line"/>
    </contour>
  </outline>
</glyph>
<glyph name="igrave" format="1">
  <advance width="202"/>
  <unicode hex="00EC"/>
  <outline>
    <contour>
      <point x="132" y="0" type="line"/>
      <point x="132" y="465" type="line"/>
      <point x="70" y="465" type="line"/>
      <point x="70" y="0" type="line"/>
    </contour>
    <contour>
      <point x="151" y="522" type="line"/>
      <point x="75" y="639" type="line"/>
      <point x="3" y="639" type="line"/>
      <point x="2" y="636" type="line"/>
      <point x="98" y="522" type="line"/>
    </contour>
  </outline>
</glyph>
<glyph name="iacute" format="1">
  <advance width="202"/>
  <unicode hex="00ED"/>
  <outline>
    <contour>
      <point x="132" y="465" type="line"/>
      <point x="70" y="465" type="line"/>
      <point x="70" y="0" type="line"/>
      <point x="132" y="0" type="line"/>
    </contour>
    <contour>
      <point x="198" y="639" type="line"/>
      <point x="128" y="639" type="line"/>
      <point x="52" y="522" type="line"/>
      <point x="105" y="522" type="line"/>
      <point x="199" y="636" type="line"/>
    </contour>
  </outline>
</glyph>
<glyph name="icircumflex" format="1">
  <advance width="202"/>
  <unicode hex="00EE"/>
  <outline>
    <contour>
      <point x="132" y="0" type="line"/>
      <point x="132" y="465" type="line"/>
      <point x="70" y="465" type="line"/>
      <point x="70" y="0" type="line"/>
    </contour>
    <contour>
      <point x="208" y="519" type="line"/>
      <point x="133" y="638" type="line"/>
      <point x="69" y="638" type="line"/>
      <point x="-8" y="519" type="line"/>
      <point x="62" y="519" type="line"/>
      <point x="102" y="591" type="line"/>
      <point x="141" y="519" type="line"/>
    </contour>
  </outline>
</glyph>
<glyph name="idieresis" format="1">
  <advance width="202"/>
  <unicode hex="00EF"/>
  <outline>
    <contour>
      <point x="132" y="465" type="line"/>
      <point x="70" y="465" type="line"/>
      <point x="70" y="0" type="line"/>
      <point x="132" y="0" type="line"/>
    </contour>
    <contour>
      <point x="75" y="639" type="line"/>
      <point x="1" y="639" type="line"/>
      <point x="1" y="559" type="line"/>
      <point x="75" y="559" type="line"/>
    </contour>
    <contour>
      <point x="201" y="639" type="line"/>
      <point x="128" y="639" type="line"/>
      <point x="128" y="559" type="line"/>
      <point x="201" y="559" type="line"/>
    </contour>
  </outline>
</glyph>
<glyph name="eth" format="1">
  <advance width="391"/>
  <unicode hex="00F0"/>
  <outline>
    <contour>
      <point x="102" y="639" type="line"/>
      <point x="100" y="636" type="line"/>
      <point x="116" y="619"/>
      <point x="129" y="603"/>
      <point x="140" y="590" type="curve"/>
      <point x="78" y="584" type="line"/>
      <point x="78" y="534" type="line"/>
      <point x="181" y="543" type="line"/>
      <point x="202" y="514"/>
      <point x="221" y="488"/>
      <point x="237" y="458" type="curve"/>
      <point x="240" y="461" type="line"/>
      <point x="225" y="469"/>
      <point x="210" y="476"/>
      <point x="191" y="476" type="curve" smooth="yes"/>
      <point x="102" y="476"/>
      <point x="35" y="408"/>
      <point x="35" y="232" type="curve" smooth="yes"/>
      <point x="35" y="65"/>
      <point x="92" y="-11"/>
      <point x="196" y="-11" type="curve" smooth="yes"/>
      <point x="300" y="-11"/>
      <point x="357" y="65"/>
      <point x="357" y="232" type="curve" smooth="yes"/>
      <point x="357" y="358"/>
      <point x="314" y="459"/>
      <point x="246" y="549" type="curve"/>
      <point x="308" y="555" type="line"/>
      <point x="308" y="606" type="line"/>
      <point x="209" y="596" type="line"/>
      <point x="197" y="610"/>
      <point x="183" y="624"/>
      <point x="170" y="639" type="curve"/>
    </contour>
    <contour>
      <point x="196" y="418" type="curve" smooth="yes"/>
      <point x="256" y="418"/>
      <point x="290" y="361"/>
      <point x="290" y="249" type="curve" smooth="yes"/>
      <point x="290" y="216" type="line" smooth="yes"/>
      <point x="290" y="104"/>
      <point x="257" y="47"/>
      <point x="196" y="47" type="curve" smooth="yes"/>
      <point x="133" y="47"/>
      <point x="100" y="104"/>
      <point x="100" y="216" type="curve" smooth="yes"/>
      <point x="100" y="249" type="line" smooth="yes"/>
      <point x="100" y="361"/>
      <point x="133" y="418"/>
    </contour>
  </outline>
</glyph>
<glyph name="oacute" format="1">
  <advance width="391"/>
  <unicode hex="00F3"/>
  <outline>
    <contour>
      <point x="92" y="476"/>
      <point x="35" y="400"/>
      <point x="35" y="232" type="curve" smooth="yes"/>
      <point x="35" y="65"/>
      <point x="92" y="-11"/>
      <point x="196" y="-11" type="curve" smooth="yes"/>
      <point x="300" y="-11"/>
      <point x="357" y="65"/>
      <point x="357" y="232" type="curve" smooth="yes"/>
      <point x="357" y="400"/>
      <point x="300" y="476"/>
      <point x="196" y="476" type="curve" smooth="yes"/>
    </contour>
    <contour>
      <point x="257" y="418"/>
      <point x="290" y="361"/>
      <point x="290" y="249" type="curve" smooth="yes"/>
      <point x="290" y="216" type="line" smooth="yes"/>
      <point x="290" y="104"/>
      <point x="257" y="47"/>
      <point x="196" y="47" type="curve" smooth="yes"/>
      <point x="133" y="47"/>
      <point x="100" y="104"/>
      <point x="100" y="216" type="curve" smooth="yes"/>
      <point x="100" y="249" type="line" smooth="yes"/>
      <point x="100" y="361"/>
      <point x="133" y="418"/>
      <point x="196" y="418" type="curve" smooth="yes"/>
    </contour>
    <contour>
      <point x="292" y="639" type="line"/>
      <point x="221" y="639" type="line"/>
      <point x="145" y="522" type="line"/>
      <point x="198" y="522" type="line"/>
      <point x="293" y="636" type="line"/>
    </contour>
  </outline>
</glyph>
<glyph name="ocircumflex" format="1">
  <advance width="403"/>
  <unicode hex="00F4"/>
  <outline>
    <contour>
      <point x="312" y="519" type="line"/>
      <point x="237" y="638" type="line"/>
      <point x="167" y="638" type="line"/>
      <point x="92" y="519" type="line"/>
      <point x="163" y="519" type="line"/>
      <point x="202" y="589" type="line"/>
      <point x="241" y="519" type="line"/>
    </contour>
    <contour>
      <point x="202" y="476" type="curve" smooth="yes"/>
      <point x="93" y="476"/>
      <point x="35" y="400"/>
      <point x="35" y="232" type="curve" smooth="yes"/>
      <point x="35" y="65"/>
      <point x="93" y="-11"/>
      <point x="202" y="-11" type="curve" smooth="yes"/>
      <point x="310" y="-11"/>
      <point x="368" y="65"/>
      <point x="368" y="232" type="curve" smooth="yes"/>
      <point x="368" y="400"/>
      <point x="310" y="476"/>
    </contour>
    <contour>
      <point x="292" y="216" type="line" smooth="yes"/>
      <point x="292" y="109"/>
      <point x="262" y="54"/>
      <point x="202" y="54" type="curve" smooth="yes"/>
      <point x="141" y="54"/>
      <point x="111" y="109"/>
      <point x="111" y="216" type="curve" smooth="yes"/>
      <point x="111" y="249" type="line" smooth="yes"/>
      <point x="111" y="356"/>
      <point x="141" y="411"/>
      <point x="202" y="411" type="curve" smooth="yes"/>
      <point x="262" y="411"/>
      <point x="292" y="356"/>
      <point x="292" y="249" type="curve" smooth="yes"/>
    </contour>
  </outline>
</glyph>
<glyph name="otilde" format="1">
  <advance width="403"/>
  <unicode hex="00F5"/>
  <outline>
    <contour>
      <point x="279" y="639" type="line"/>
      <point x="277" y="619"/>
      <point x="265" y="612"/>
      <point x="249" y="612" type="curve" smooth="yes"/>
      <point x="215" y="612"/>
      <point x="186" y="639"/>
      <point x="148" y="639" type="curve" smooth="yes"/>
      <point x="95" y="639"/>
      <point x="72" y="588"/>
      <point x="72" y="547" type="curve"/>
      <point x="124" y="547" type="line"/>
      <point x="126" y="568"/>
      <point x="138" y="575"/>
      <point x="154" y="575" type="curve" smooth="yes"/>
      <point x="188" y="575"/>
      <point x="217" y="547"/>
      <point x="255" y="547" type="curve" smooth="yes"/>
      <point x="309" y="547"/>
      <point x="331" y="598"/>
      <point x="331" y="639" type="curve"/>
    </contour>
    <contour>
      <point x="202" y="476" type="curve" smooth="yes"/>
      <point x="93" y="476"/>
      <point x="35" y="400"/>
      <point x="35" y="232" type="curve" smooth="yes"/>
      <point x="35" y="65"/>
      <point x="93" y="-11"/>
      <point x="202" y="-11" type="curve" smooth="yes"/>
      <point x="310" y="-11"/>
      <point x="368" y="65"/>
      <point x="368" y="232" type="curve" smooth="yes"/>
      <point x="368" y="400"/>
      <point x="310" y="476"/>
    </contour>
    <contour>
      <point x="292" y="216" type="line" smooth="yes"/>
      <point x="292" y="109"/>
      <point x="262" y="54"/>
      <point x="202" y="54" type="curve" smooth="yes"/>
      <point x="141" y="54"/>
      <point x="111" y="109"/>
      <point x="111" y="216" type="curve" smooth="yes"/>
      <point x="111" y="249" type="line" smooth="yes"/>
      <point x="111" y="356"/>
      <point x="141" y="411"/>
      <point x="202" y="411" type="curve" smooth="yes"/>
      <point x="262" y="411"/>
      <point x="292" y="356"/>
      <point x="292" y="249" type="curve" smooth="yes"/>
    </contour>
  </outline>
</glyph>
<glyph name="odieresis" format="1">
  <advance width="403"/>
  <unicode hex="00F6"/>
  <outline>
    <contour>
      <point x="93" y="476"/>
      <point x="35" y="400"/>
      <point x="35" y="232" type="curve" smooth="yes"/>
      <point x="35" y="65"/>
      <point x="93" y="-11"/>
      <point x="202" y="-11" type="curve" smooth="yes"/>
      <point x="310" y="-11"/>
      <point x="368" y="65"/>
      <point x="368" y="232" type="curve" smooth="yes"/>
      <point x="368" y="400"/>
      <point x="310" y="476"/>
      <point x="202" y="476" type="curve" smooth="yes"/>
    </contour>
    <contour>
      <point x="262" y="411"/>
      <point x="292" y="356"/>
      <point x="292" y="249" type="curve" smooth="yes"/>
      <point x="292" y="216" type="line" smooth="yes"/>
      <point x="292" y="109"/>
      <point x="262" y="54"/>
      <point x="202" y="54" type="curve" smooth="yes"/>
      <point x="141" y="54"/>
      <point x="111" y="109"/>
      <point x="111" y="216" type="curve" smooth="yes"/>
      <point x="111" y="249" type="line" smooth="yes"/>
      <point x="111" y="356"/>
      <point x="141" y="411"/>
      <point x="202" y="411" type="curve" smooth="yes"/>
    </contour>
    <contour>
      <point x="173" y="639" type="line"/>
      <point x="96" y="639" type="line"/>
      <point x="96" y="555" type="line"/>
      <point x="173" y="555" type="line"/>
    </contour>
    <contour>
      <point x="307" y="639" type="line"/>
      <point x="229" y="639" type="line"/>
      <point x="229" y="555" type="line"/>
      <point x="307" y="555" type="line"/>
    </contour>
  </outline>
</glyph>
<glyph name="divide" format="1">
  <advance width="485"/>
  <unicode hex="00F7"/>
  <outline>
    <contour>
      <point x="444" y="191" type="line"/>
      <point x="444" y="261" type="line"/>
      <point x="41" y="261" type="line"/>
      <point x="41" y="191" type="line"/>
    </contour>
    <contour>
      <point x="277" y="48" type="line"/>
      <point x="277" y="123" type="line"/>
      <point x="208" y="123" type="line"/>
      <point x="208" y="48" type="line"/>
    </contour>
    <contour>
      <point x="277" y="329" type="line"/>
      <point x="277" y="405" type="line"/>
      <point x="208" y="405" type="line"/>
      <point x="208" y="329" type="line"/>
    </contour>
  </outline>
</glyph>
<glyph name="ucircumflex" format="1">
  <advance width="391"/>
  <unicode hex="00FB"/>
  <outline>
    <contour>
      <point x="292" y="0" type="line"/>
      <point x="337" y="0" type="line"/>
      <point x="337" y="465" type="line"/>
      <point x="275" y="465" type="line"/>
      <point x="275" y="182" type="line" smooth="yes"/>
      <point x="275" y="94"/>
      <point x="231" y="45"/>
      <point x="183" y="45" type="curve" smooth="yes"/>
      <point x="145" y="45"/>
      <point x="117" y="60"/>
      <point x="117" y="125" type="curve" smooth="yes"/>
      <point x="117" y="465" type="line"/>
      <point x="54" y="465" type="line"/>
      <point x="54" y="127" type="line" smooth="yes"/>
      <point x="54" y="26"/>
      <point x="97" y="-11"/>
      <point x="167" y="-11" type="curve" smooth="yes"/>
      <point x="210" y="-11"/>
      <point x="252" y="4"/>
      <point x="277" y="53" type="curve"/>
      <point x="283" y="53" type="line"/>
    </contour>
    <contour>
      <point x="235" y="519" type="line"/>
      <point x="304" y="519" type="line"/>
      <point x="229" y="638" type="line"/>
      <point x="164" y="638" type="line"/>
      <point x="89" y="519" type="line"/>
      <point x="158" y="519" type="line"/>
      <point x="196" y="591" type="line"/>
    </contour>
  </outline>
</glyph>
<glyph name="udieresis" format="1">
  <advance width="391"/>
  <unicode hex="00FC"/>
  <outline>
    <contour>
      <point x="337" y="465" type="line"/>
      <point x="275" y="465" type="line"/>
      <point x="275" y="182" type="line" smooth="yes"/>
      <point x="275" y="94"/>
      <point x="231" y="45"/>
      <point x="183" y="45" type="curve" smooth="yes"/>
      <point x="145" y="45"/>
      <point x="117" y="60"/>
      <point x="117" y="125" type="curve" smooth="yes"/>
      <point x="117" y="465" type="line"/>
      <point x="54" y="465" type="line"/>
      <point x="54" y="127" type="line" smooth="yes"/>
      <point x="54" y="26"/>
      <point x="97" y="-11"/>
      <point x="167" y="-11" type="curve" smooth="yes"/>
      <point x="210" y="-11"/>
      <point x="252" y="4"/>
      <point x="277" y="53" type="curve"/>
      <point x="283" y="53" type="line"/>
      <point x="292" y="0" type="line"/>
      <point x="337" y="0" type="line"/>
    </contour>
    <contour>
      <point x="169" y="639" type="line"/>
      <point x="95" y="639" type="line"/>
      <point x="95" y="559" type="line"/>
      <point x="169" y="559" type="line"/>
    </contour>
    <contour>
      <point x="296" y="639" type="line"/>
      <point x="221" y="639" type="line"/>
      <point x="221" y="559" type="line"/>
      <point x="296" y="559" type="line"/>
    </contour>
  </outline>
</glyph>
<glyph name="yacute" format="1">
  <advance width="350"/>
  <unicode hex="00FD"/>
  <outline>
    <contour>
      <point x="340" y="465" type="line"/>
      <point x="277" y="465" type="line"/>
      <point x="220" y="219" type="line"/>
      <point x="210" y="179"/>
      <point x="199" y="139"/>
      <point x="188" y="98" type="curve"/>
      <point x="185" y="98" type="line"/>
      <point x="172" y="139"/>
      <point x="159" y="180"/>
      <point x="147" y="220" type="curve"/>
      <point x="79" y="465" type="line"/>
      <point x="10" y="465" type="line"/>
      <point x="148" y="0" type="line"/>
      <point x="130" y="-89"/>
      <point x="92" y="-112"/>
      <point x="50" y="-112" type="curve" smooth="yes"/>
      <point x="32" y="-112" type="line"/>
      <point x="32" y="-154" type="line"/>
      <point x="51" y="-160"/>
      <point x="65" y="-161"/>
      <point x="79" y="-161" type="curve" smooth="yes"/>
      <point x="158" y="-161"/>
      <point x="199" y="-78"/>
      <point x="225" y="24" type="curve" smooth="yes"/>
    </contour>
    <contour>
      <point x="273" y="636" type="line"/>
      <point x="272" y="639" type="line"/>
      <point x="200" y="639" type="line"/>
      <point x="125" y="522" type="line"/>
      <point x="178" y="522" type="line"/>
    </contour>
  </outline>
</glyph>
<glyph name="thorn" format="1">
  <advance width="391"/>
  <unicode hex="00FE"/>
  <outline>
    <contour>
      <point x="117" y="639" type="line"/>
      <point x="54" y="639" type="line"/>
      <point x="54" y="-153" type="line"/>
      <point x="117" y="-153" type="line"/>
      <point x="117" y="39" type="line"/>
      <point x="121" y="39" type="line"/>
      <point x="137" y="8"/>
      <point x="174" y="-11"/>
      <point x="219" y="-11" type="curve" smooth="yes"/>
      <point x="294" y="-11"/>
      <point x="356" y="63"/>
      <point x="356" y="232" type="curve" smooth="yes"/>
      <point x="356" y="403"/>
      <point x="301" y="476"/>
      <point x="214" y="476" type="curve" smooth="yes"/>
      <point x="174" y="476"/>
      <point x="140" y="456"/>
      <point x="122" y="428" type="curve"/>
      <point x="117" y="429" type="line"/>
    </contour>
    <contour>
      <point x="260" y="420"/>
      <point x="290" y="374"/>
      <point x="290" y="249" type="curve" smooth="yes"/>
      <point x="290" y="216" type="line" smooth="yes"/>
      <point x="290" y="91"/>
      <point x="260" y="45"/>
      <point x="204" y="45" type="curve" smooth="yes"/>
      <point x="146" y="45"/>
      <point x="117" y="102"/>
      <point x="117" y="216" type="curve" smooth="yes"/>
      <point x="117" y="249" type="line" smooth="yes"/>
      <point x="117" y="363"/>
      <point x="146" y="420"/>
      <point x="204" y="420" type="curve" smooth="yes"/>
    </contour>
  </outline>
</glyph>
<glyph name="ydieresis" format="1">
  <advance width="362"/>
  <unicode hex="00FF"/>
  <outline>
    <contour>
      <point x="153" y="555" type="line"/>
      <point x="153" y="639" type="line"/>
      <point x="76" y="639" type="line"/>
      <point x="76" y="555" type="line"/>
    </contour>
    <contour>
      <point x="286" y="555" type="line"/>
      <point x="286" y="639" type="line"/>
      <point x="209" y="639" type="line"/>
      <point x="209" y="555" type="line"/>
    </contour>
    <contour>
      <point x="354" y="465" type="line"/>
      <point x="281" y="465" type="line"/>
      <point x="224" y="225" type="line"/>
      <point x="194" y="104" type="line"/>
      <point x="191" y="104" type="line"/>
      <point x="179" y="145"/>
      <point x="168" y="186"/>
      <point x="156" y="226" type="curve" smooth="yes"/>
      <point x="88" y="465" type="line"/>
      <point x="9" y="465" type="line"/>
      <point x="151" y="0" type="line"/>
      <point x="134" y="-80"/>
      <point x="98" y="-103"/>
      <point x="59" y="-103" type="curve" smooth="yes"/>
      <point x="34" y="-103" type="line"/>
      <point x="34" y="-154" type="line"/>
      <point x="49" y="-159"/>
      <point x="65" y="-161"/>
      <point x="86" y="-161" type="curve" smooth="yes"/>
      <point x="167" y="-161"/>
      <point x="209" y="-78"/>
      <point x="236" y="24" type="curve" smooth="yes"/>
    </contour>
  </outline>
</glyph>
<glyph name="Amacron" format="1">
  <advance width="484"/>
  <unicode hex="0100"/>
  <outline>
    <contour>
      <point x="353" y="671" type="line"/>
      <point x="353" y="735" type="line"/>
      <point x="131" y="735" type="line"/>
      <point x="131" y="671" type="line"/>
    </contour>
    <contour>
      <point x="484" y="0" type="line"/>
      <point x="292" y="606" type="line"/>
      <point x="192" y="606" type="line"/>
      <point x="-1" y="0" type="line"/>
      <point x="77" y="0" type="line"/>
      <point x="118" y="135" type="line"/>
      <point x="359" y="135" type="line"/>
      <point x="400" y="0" type="line"/>
    </contour>
    <contour>
      <point x="240" y="543" type="line"/>
      <point x="240" y="543"/>
      <point x="248" y="496"/>
      <point x="255" y="476" type="curve"/>
      <point x="337" y="206" type="line"/>
      <point x="140" y="206" type="line"/>
      <point x="223" y="476" type="line" smooth="yes"/>
      <point x="229" y="495"/>
      <point x="237" y="543"/>
      <point x="237" y="543" type="curve"/>
    </contour>
  </outline>
</glyph>
<glyph name="Abreve" format="1">
  <advance width="473"/>
  <unicode hex="0102"/>
  <outline>
    <contour>
      <point x="281" y="606" type="line"/>
      <point x="191" y="606" type="line"/>
      <point x="-2" y="0" type="line"/>
      <point x="67" y="0" type="line"/>
      <point x="109" y="140" type="line"/>
      <point x="355" y="140" type="line"/>
      <point x="398" y="0" type="line"/>
      <point x="473" y="0" type="line"/>
    </contour>
    <contour>
      <point x="234" y="554" type="line"/>
      <point x="234" y="554"/>
      <point x="242" y="508"/>
      <point x="248" y="492" type="curve" smooth="yes"/>
      <point x="336" y="202" type="line"/>
      <point x="129" y="202" type="line"/>
      <point x="218" y="492" type="line" smooth="yes"/>
      <point x="223" y="508"/>
      <point x="231" y="554"/>
      <point x="231" y="554" type="curve"/>
    </contour>
    <contour>
      <point x="288" y="781" type="line"/>
      <point x="287" y="768"/>
      <point x="265" y="751"/>
      <point x="235" y="751" type="curve" smooth="yes"/>
      <point x="206" y="751"/>
      <point x="186" y="768"/>
      <point x="183" y="781" type="curve"/>
      <point x="130" y="781" type="line"/>
      <point x="130" y="742"/>
      <point x="170" y="698"/>
      <point x="235" y="698" type="curve" smooth="yes"/>
      <point x="302" y="698"/>
      <point x="343" y="742"/>
      <point x="343" y="781" type="curve"/>
    </contour>
  </outline>
</glyph>
<glyph name="Aogonek" format="1">
  <advance width="484"/>
  <unicode hex="0104"/>
  <outline>
    <contour>
      <point x="531" y="-103" type="line"/>
      <point x="504" y="-103" type="line" smooth="yes"/>
      <point x="474" y="-103"/>
      <point x="463" y="-80"/>
      <point x="463" y="-55" type="curve" smooth="yes"/>
      <point x="463" y="-30"/>
      <point x="475" y="-13"/>
      <point x="484" y="0" type="curve"/>
      <point x="292" y="606" type="line"/>
      <point x="192" y="606" type="line"/>
      <point x="-1" y="0" type="line"/>
      <point x="77" y="0" type="line"/>
      <point x="118" y="135" type="line"/>
      <point x="359" y="135" type="line"/>
      <point x="400" y="0" type="line"/>
      <point x="429" y="0" type="line"/>
      <point x="412" y="-21"/>
      <point x="394" y="-41"/>
      <point x="394" y="-81" type="curve" smooth="yes"/>
      <point x="394" y="-142"/>
      <point x="439" y="-161"/>
      <point x="477" y="-161" type="curve" smooth="yes"/>
      <point x="495" y="-161"/>
      <point x="513" y="-156"/>
      <point x="531" y="-149" type="curve"/>
    </contour>
    <contour>
      <point x="337" y="206" type="line"/>
      <point x="140" y="206" type="line"/>
      <point x="223" y="476" type="line" smooth="yes"/>
      <point x="229" y="495"/>
      <point x="237" y="543"/>
      <point x="237" y="543" type="curve"/>
      <point x="240" y="543" type="line"/>
      <point x="240" y="543"/>
      <point x="248" y="496"/>
      <point x="255" y="476" type="curve"/>
    </contour>
  </outline>
</glyph>
<glyph name="aogonek" format="1">
  <advance width="403"/>
  <unicode hex="0105"/>
  <outline>
    <contour>
      <point x="438" y="-103" type="line"/>
      <point x="407" y="-103" type="line" smooth="yes"/>
      <point x="377" y="-103"/>
      <point x="367" y="-80"/>
      <point x="367" y="-54" type="curve" smooth="yes"/>
      <point x="367" y="-31"/>
      <point x="378" y="-10"/>
      <point x="389" y="4" type="curve"/>
      <point x="389" y="47" type="line"/>
      <point x="358" y="47" type="line" smooth="yes"/>
      <point x="346" y="47"/>
      <point x="334" y="56"/>
      <point x="334" y="78" type="curve" smooth="yes"/>
      <point x="334" y="348" type="line" smooth="yes"/>
      <point x="334" y="429"/>
      <point x="288" y="476"/>
      <point x="198" y="476" type="curve" smooth="yes"/>
      <point x="114" y="476"/>
      <point x="52" y="433"/>
      <point x="52" y="347" type="curve" smooth="yes"/>
      <point x="52" y="339"/>
      <point x="52" y="332"/>
      <point x="53" y="327" type="curve"/>
      <point x="114" y="327" type="line"/>
      <point x="114" y="337" type="line" smooth="yes"/>
      <point x="114" y="376"/>
      <point x="133" y="417"/>
      <point x="191" y="417" type="curve" smooth="yes"/>
      <point x="255" y="417"/>
      <point x="271" y="385"/>
      <point x="271" y="337" type="curve" smooth="yes"/>
      <point x="271" y="274" type="line"/>
      <point x="136" y="274"/>
      <point x="35" y="249"/>
      <point x="35" y="120" type="curve" smooth="yes"/>
      <point x="35" y="7"/>
      <point x="112" y="-11"/>
      <point x="158" y="-11" type="curve" smooth="yes"/>
      <point x="204" y="-11"/>
      <point x="247" y="12"/>
      <point x="270" y="50" type="curve"/>
      <point x="275" y="50" type="line"/>
      <point x="282" y="21"/>
      <point x="302" y="2"/>
      <point x="329" y="-4" type="curve"/>
      <point x="314" y="-24"/>
      <point x="303" y="-46"/>
      <point x="303" y="-80" type="curve" smooth="yes"/>
      <point x="303" y="-141"/>
      <point x="348" y="-160"/>
      <point x="385" y="-160" type="curve" smooth="yes"/>
      <point x="403" y="-160"/>
      <point x="419" y="-155"/>
      <point x="438" y="-148" type="curve"/>
    </contour>
    <contour>
      <point x="272" y="166" type="line"/>
      <point x="272" y="82"/>
      <point x="213" y="47"/>
      <point x="168" y="47" type="curve" smooth="yes"/>
      <point x="126" y="47"/>
      <point x="102" y="64"/>
      <point x="102" y="124" type="curve" smooth="yes"/>
      <point x="102" y="199"/>
      <point x="168" y="212"/>
      <point x="272" y="212" type="curve"/>
    </contour>
  </outline>
</glyph>
<glyph name="cacute" format="1">
  <advance width="350"/>
  <unicode hex="0107"/>
  <outline>
    <contour>
      <point x="79" y="476"/>
      <point x="31" y="400"/>
      <point x="31" y="232" type="curve" smooth="yes"/>
      <point x="31" y="65"/>
      <point x="78" y="-11"/>
      <point x="185" y="-11" type="curve" smooth="yes"/>
      <point x="288" y="-11"/>
      <point x="322" y="84"/>
      <point x="322" y="171" type="curve"/>
      <point x="261" y="171" type="line"/>
      <point x="261" y="90"/>
      <point x="241" y="47"/>
      <point x="185" y="47" type="curve" smooth="yes"/>
      <point x="124" y="47"/>
      <point x="97" y="104"/>
      <point x="97" y="216" type="curve" smooth="yes"/>
      <point x="97" y="249" type="line" smooth="yes"/>
      <point x="97" y="361"/>
      <point x="124" y="418"/>
      <point x="186" y="418" type="curve" smooth="yes"/>
      <point x="243" y="418"/>
      <point x="257" y="378"/>
      <point x="257" y="294" type="curve"/>
      <point x="322" y="294" type="line"/>
      <point x="322" y="408"/>
      <point x="287" y="476"/>
      <point x="186" y="476" type="curve" smooth="yes"/>
    </contour>
    <contour>
      <point x="281" y="639" type="line"/>
      <point x="209" y="639" type="line"/>
      <point x="133" y="522" type="line"/>
      <point x="187" y="522" type="line"/>
      <point x="281" y="636" type="line"/>
    </contour>
  </outline>
</glyph>
<glyph name="Cdotaccent" format="1">
  <advance width="523"/>
  <unicode hex="010A"/>
  <outline>
    <contour>
      <point x="118" y="617"/>
      <point x="39" y="513"/>
      <point x="39" y="303" type="curve" smooth="yes"/>
      <point x="39" y="94"/>
      <point x="118" y="-11"/>
      <point x="277" y="-11" type="curve" smooth="yes"/>
      <point x="400" y="-11"/>
      <point x="485" y="60"/>
      <point x="485" y="215" type="curve"/>
      <point x="418" y="215" type="line"/>
      <point x="418" y="106"/>
      <point x="362" y="53"/>
      <point x="276" y="53" type="curve" smooth="yes"/>
      <point x="165" y="53"/>
      <point x="109" y="125"/>
      <point x="109" y="281" type="curve" smooth="yes"/>
      <point x="109" y="325" type="line" smooth="yes"/>
      <point x="109" y="481"/>
      <point x="165" y="552"/>
      <point x="277" y="552" type="curve" smooth="yes"/>
      <point x="361" y="552"/>
      <point x="417" y="498"/>
      <point x="417" y="389" type="curve"/>
      <point x="485" y="389" type="line"/>
      <point x="485" y="541"/>
      <point x="401" y="617"/>
      <point x="277" y="617" type="curve" smooth="yes"/>
    </contour>
    <contour>
      <point x="296" y="702" type="line"/>
      <point x="296" y="781" type="line"/>
      <point x="223" y="781" type="line"/>
      <point x="223" y="702" type="line"/>
    </contour>
  </outline>
</glyph>
<glyph name="dcroat" format="1">
  <advance width="400"/>
  <unicode hex="0111"/>
  <outline>
    <contour>
      <point x="350" y="639" type="line"/>
      <point x="278" y="639" type="line"/>
      <point x="278" y="575" type="line"/>
      <point x="179" y="575" type="line"/>
      <point x="179" y="515" type="line"/>
      <point x="278" y="515" type="line"/>
      <point x="278" y="421" type="line"/>
      <point x="273" y="421" type="line"/>
      <point x="257" y="455"/>
      <point x="219" y="476"/>
      <point x="174" y="476" type="curve" smooth="yes"/>
      <point x="97" y="476"/>
      <point x="35" y="402"/>
      <point x="35" y="233" type="curve" smooth="yes"/>
      <point x="35" y="63"/>
      <point x="91" y="-11"/>
      <point x="179" y="-11" type="curve" smooth="yes"/>
      <point x="222" y="-11"/>
      <point x="259" y="11"/>
      <point x="281" y="54" type="curve"/>
      <point x="286" y="54" type="line"/>
      <point x="295" y="0" type="line"/>
      <point x="350" y="0" type="line"/>
      <point x="350" y="515" type="line"/>
      <point x="401" y="515" type="line"/>
      <point x="401" y="575" type="line"/>
      <point x="350" y="575" type="line"/>
    </contour>
    <contour>
      <point x="250" y="411"/>
      <point x="278" y="355"/>
      <point x="278" y="246" type="curve" smooth="yes"/>
      <point x="278" y="216" type="line" smooth="yes"/>
      <point x="278" y="109"/>
      <point x="250" y="54"/>
      <point x="194" y="54" type="curve" smooth="yes"/>
      <point x="139" y="54"/>
      <point x="111" y="100"/>
      <point x="111" y="216" type="curve" smooth="yes"/>
      <point x="111" y="249" type="line" smooth="yes"/>
      <point x="111" y="365"/>
      <point x="139" y="411"/>
      <point x="194" y="411" type="curve" smooth="yes"/>
    </contour>
  </outline>
</glyph>
<glyph name="Emacron" format="1">
  <advance width="484"/>
  <unicode hex="0112"/>
  <outline>
    <contour>
      <point x="353" y="671" type="line"/>
      <point x="353" y="731" type="line"/>
      <point x="132" y="731" type="line"/>
      <point x="132" y="671" type="line"/>
    </contour>
    <contour>
      <point x="65" y="0" type="line"/>
      <point x="440" y="0" type="line"/>
      <point x="440" y="62" type="line"/>
      <point x="133" y="62" type="line"/>
      <point x="133" y="279" type="line"/>
      <point x="396" y="279" type="line"/>
      <point x="396" y="342" type="line"/>
      <point x="133" y="342" type="line"/>
      <point x="133" y="545" type="line"/>
      <point x="435" y="545" type="line"/>
      <point x="435" y="606" type="line"/>
      <point x="65" y="606" type="line"/>
    </contour>
  </outline>
</glyph>
<glyph name="Ebreve" format="1">
  <advance width="484"/>
  <unicode hex="0114"/>
  <outline>
    <contour>
      <point x="294" y="781" type="line"/>
      <point x="293" y="768"/>
      <point x="271" y="751"/>
      <point x="241" y="751" type="curve" smooth="yes"/>
      <point x="212" y="751"/>
      <point x="192" y="768"/>
      <point x="189" y="781" type="curve"/>
      <point x="133" y="781" type="line"/>
      <point x="133" y="741"/>
      <point x="174" y="695"/>
      <point x="241" y="695" type="curve" smooth="yes"/>
      <point x="309" y="695"/>
      <point x="351" y="741"/>
      <point x="351" y="781" type="curve"/>
    </contour>
    <contour>
      <point x="62" y="0" type="line"/>
      <point x="441" y="0" type="line"/>
      <point x="441" y="71" type="line"/>
      <point x="140" y="71" type="line"/>
      <point x="140" y="275" type="line"/>
      <point x="397" y="275" type="line"/>
      <point x="397" y="346" type="line"/>
      <point x="140" y="346" type="line"/>
      <point x="140" y="536" type="line"/>
      <point x="436" y="536" type="line"/>
      <point x="436" y="606" type="line"/>
      <point x="62" y="606" type="line"/>
    </contour>
  </outline>
</glyph>
